<svg width="61" height="79" viewBox="0 0 61 79" fill="none" xmlns="http://www.w3.org/2000/svg">
<path d="M18.7093 7.18408C18.5304 6.8032 18.2725 6.46475 17.9528 6.1912C17.633 5.91765 17.2587 5.71527 16.8547 5.5975C16.4508 5.47973 16.0263 5.44926 15.6097 5.50813C15.193 5.56699 14.7936 5.71383 14.4381 5.93891L9.02963 9.36155C6.50273 10.9626 5.08417 13.7149 5.4066 16.4828C6.75134 27.9418 10.6587 38.951 16.8388 48.6938C22.9886 58.4557 31.2573 66.7078 41.0314 72.8382C43.3934 74.3168 46.488 74.216 49.0183 72.6201L54.4257 69.2018C54.7816 68.9771 55.0855 68.6794 55.3175 68.3282C55.5494 67.9771 55.7039 67.5807 55.7708 67.1652C55.8377 66.7498 55.8155 66.3248 55.7055 65.9186C55.5956 65.5124 55.4005 65.1343 55.1332 64.8093L47.0129 54.9338C46.7272 54.5872 46.3665 54.31 45.9581 54.1232C45.5496 53.9363 45.104 53.8447 44.655 53.8552L34.7823 54.0832C33.4645 54.1139 32.1611 53.8027 30.9992 53.1801C29.8373 52.5575 28.8564 51.6447 28.152 50.5305L20.0336 37.682C19.3284 36.568 18.9238 35.2904 18.859 33.9736C18.7943 32.6567 19.0717 31.3455 19.6642 30.1678L24.1095 21.3483C24.3116 20.9471 24.42 20.5053 24.4264 20.0562C24.4329 19.6071 24.3372 19.1624 24.1467 18.7556L18.7093 7.18408ZM11.9411 1.99474C12.8564 1.41598 13.8842 1.03854 14.9565 0.88749C16.0288 0.736442 17.1209 0.815241 18.1604 1.11865C19.1999 1.42207 20.163 1.94315 20.9856 2.64731C21.8083 3.35146 22.4717 4.22258 22.9319 5.2028L28.3703 16.77C29.3675 18.8918 29.3326 21.355 28.2776 23.4492L23.8366 32.2696C23.6068 32.7265 23.499 33.2351 23.5237 33.7459C23.5485 34.2567 23.7049 34.7525 23.9778 35.1851L32.1005 48.0345C32.3744 48.4673 32.7558 48.8218 33.2074 49.0635C33.6591 49.3052 34.1656 49.4258 34.6777 49.4136L44.5461 49.1846C45.703 49.1576 46.8509 49.394 47.903 49.8758C48.9551 50.3577 49.8839 51.0724 50.6192 51.966L58.7352 61.8406C61.6528 65.3907 60.7989 70.6919 56.9194 73.1407L51.5119 76.5591C47.6419 79.0055 42.6091 79.3287 38.5582 76.7878C28.1893 70.287 19.4171 61.5351 12.8923 51.1812C6.33866 40.8471 2.19558 29.1702 0.770328 17.0165C0.216112 12.2724 2.66795 7.8605 6.53792 5.41408L11.9454 1.9957L11.9411 1.99474Z" fill="black"/>
</svg>
