<svg width="5" height="5" viewBox="0 0 5 5" fill="none" xmlns="http://www.w3.org/2000/svg">
<path fill-rule="evenodd" clip-rule="evenodd" d="M0.056491 0.104897C0.0743526 0.0716462 0.0955715 0.0452651 0.118932 0.0272651C0.142293 0.00926505 0.167337 0 0.192629 0C0.217921 0 0.242965 0.00926505 0.266326 0.0272651C0.289686 0.0452651 0.310905 0.0716462 0.328767 0.104897L2.50005 4.13744L4.67133 0.104897C4.68921 0.0717 4.71044 0.0453664 4.73379 0.0274002C4.75715 0.00943405 4.78219 0.000186941 4.80747 0.000186941C4.83276 0.000186941 4.85779 0.00943405 4.88115 0.0274002C4.90451 0.0453664 4.92573 0.0717 4.94361 0.104897C4.96149 0.138094 4.97567 0.177505 4.98534 0.220879C4.99502 0.264254 5 0.310742 5 0.35769C5 0.404638 4.99502 0.451126 4.98534 0.4945C4.97567 0.537875 4.96149 0.577285 4.94361 0.610483L2.63619 4.8951C2.61833 4.92835 2.59711 4.95473 2.57375 4.97273C2.55039 4.99073 2.52534 5 2.50005 5C2.47476 5 2.44971 4.99073 2.42635 4.97273C2.40299 4.95473 2.38177 4.92835 2.36391 4.8951L0.056491 0.610483C0.0385842 0.577315 0.024377 0.537914 0.0146834 0.494536C0.00498974 0.451158 0 0.404654 0 0.35769C0 0.310725 0.00498974 0.264222 0.0146834 0.220844C0.024377 0.177465 0.0385842 0.138064 0.056491 0.104897Z" fill="white"/>
</svg>
