<svg width="18" height="18" viewBox="0 0 18 18" fill="none" xmlns="http://www.w3.org/2000/svg">
<g clip-path="url(#clip0_330_175)">
<path d="M6.75223 9.01092L2.68339 7.84823C2.53517 7.80717 2.37852 7.89182 2.33577 8.04173C2.2933 8.19079 2.37964 8.3466 2.52927 8.38935L6.59811 9.55204C6.6237 9.55907 6.64958 9.56273 6.67517 9.56273C6.79752 9.56273 6.91002 9.48229 6.94545 9.35854C6.9882 9.20948 6.90158 9.05367 6.75223 9.01092Z" fill="white"/>
<path d="M6.75223 10.9799L2.68339 9.81747C2.53517 9.77641 2.37852 9.86106 2.33577 10.011C2.2933 10.1603 2.37964 10.3158 2.52927 10.3586L6.59811 11.521C6.6237 11.528 6.64958 11.5317 6.67517 11.5317C6.79752 11.5317 6.91002 11.4512 6.94545 11.3275C6.9882 11.1782 6.90158 11.0226 6.75223 10.9799Z" fill="white"/>
<path d="M6.75223 7.04217L2.68339 5.87948C2.53517 5.83842 2.37852 5.92307 2.33577 6.07298C2.2933 6.22204 2.37964 6.37785 2.52927 6.4206L6.59811 7.58329C6.6237 7.59032 6.64958 7.59398 6.67517 7.59398C6.79752 7.59398 6.91002 7.51354 6.94545 7.38979C6.9882 7.24073 6.90158 7.08492 6.75223 7.04217Z" fill="white"/>
<path d="M6.75223 5.07342L2.68339 3.91073C2.53517 3.86967 2.37852 3.95432 2.33577 4.10423C2.2933 4.25329 2.37964 4.4091 2.52927 4.45185L6.59811 5.61454C6.6237 5.62157 6.64958 5.62523 6.67517 5.62523C6.79752 5.62523 6.91002 5.54479 6.94545 5.42104C6.9882 5.27198 6.90158 5.11617 6.75223 5.07342Z" fill="white"/>
<path d="M11.2396 9.55226C11.2655 9.55226 11.2914 9.5486 11.317 9.54157L15.3858 8.37888C15.5351 8.33613 15.6218 8.18032 15.5793 8.03126C15.5365 7.88163 15.3802 7.79726 15.2317 7.83776L11.1625 9.00045C11.0132 9.0432 10.9266 9.19901 10.969 9.34807C11.0048 9.47182 11.1173 9.55226 11.2396 9.55226Z" fill="white"/>
<path d="M15.3166 9.81725L11.2478 10.9797C11.0984 11.0224 11.0118 11.1779 11.0543 11.3273C11.09 11.451 11.2025 11.5315 11.3248 11.5315C11.3507 11.5315 11.3766 11.5278 11.4022 11.5208L15.471 10.3584C15.6203 10.3156 15.707 10.1601 15.6645 10.0108C15.6215 9.86113 15.4651 9.77675 15.3166 9.81725Z" fill="white"/>
<path d="M15.3166 5.87946L11.2478 7.04215C11.0984 7.0849 11.0118 7.24071 11.0543 7.38977C11.09 7.51352 11.2025 7.59396 11.3248 7.59396C11.3507 7.59396 11.3766 7.5903 11.4022 7.58327L15.471 6.42058C15.6203 6.37783 15.707 6.22202 15.6645 6.07296C15.6215 5.92333 15.4651 5.8384 15.3166 5.87946Z" fill="white"/>
<path d="M15.3166 3.91051L11.2478 5.0732C11.0984 5.11595 11.0118 5.27176 11.0543 5.42082C11.09 5.54457 11.2025 5.62501 11.3248 5.62501C11.3507 5.62501 11.3766 5.62136 11.4022 5.61432L15.471 4.45164C15.6203 4.40889 15.707 4.25307 15.6645 4.10401C15.6215 3.95439 15.4651 3.87001 15.3166 3.91051Z" fill="white"/>
<path d="M17.7803 0.116645C17.6808 0.0404258 17.5598 0.000488281 17.4369 0.000488281C17.3886 0.000488281 17.3399 0.00667578 17.2924 0.0190508L9 2.23052L0.707625 0.0190508C0.659813 0.00639453 0.611156 0.000488281 0.562781 0.000488281C0.439875 0.000488281 0.319219 0.0404258 0.219656 0.116645C0.0812813 0.223238 0 0.388051 0 0.562707V14.6249C0 14.8797 0.171281 15.1028 0.417375 15.1686L7.69416 17.1089C7.90003 17.6304 8.40572 18.0002 9 18.0002C9.59428 18.0002 10.1 17.6304 10.3058 17.1089L17.5826 15.1686C17.8287 15.1028 18 14.8797 18 14.6249V0.562707C18 0.388051 17.9187 0.223238 17.7803 0.116645ZM9 15.1877C9.04866 15.1877 9.09759 15.1815 9.14512 15.1689L17.4375 12.9574V13.507L9 15.7404L0.5625 13.507V12.9574L8.85487 15.1686C8.90241 15.1815 8.95134 15.1877 9 15.1877ZM0.561938 0.562988C0.561938 0.562988 0.562219 0.562988 0.562781 0.562988L8.71875 2.73761V14.5501L0.5625 12.3752L0.561938 0.562988ZM9.83784 16.6516C9.81563 16.9731 9.61706 17.2453 9.33497 17.3677L9.14484 17.4186C9.09731 17.4312 9.04838 17.4374 8.99972 17.4374C8.95106 17.4374 8.90212 17.4312 8.85459 17.4186L8.66447 17.3677C8.38237 17.2453 8.18381 16.9731 8.16159 16.6516L0.5625 14.6249V14.0889L8.928 16.3034C8.95162 16.3096 8.97581 16.3127 9 16.3127C9.02419 16.3127 9.04838 16.3096 9.072 16.3034L17.4375 14.0889V14.6249L9.83784 16.6516ZM9.28125 14.5501V2.73761L17.4375 0.562707V12.3752L9.28125 14.5501Z" fill="white"/>
</g>
<defs>
<clipPath id="clip0_330_175">
<rect width="18" height="18" fill="white"/>
</clipPath>
</defs>
</svg>
