<svg width="18" height="18" viewBox="0 0 18 18" fill="none" xmlns="http://www.w3.org/2000/svg">
<path d="M14.076 6.1741H12.654L13.266 3.8341C13.266 3.8161 13.266 3.7981 13.266 3.7801C13.266 3.6901 13.194 3.6001 13.086 3.6001H11.952C11.862 3.6001 11.79 3.6721 11.772 3.7441L11.16 6.1741H8.31601L8.92801 3.8341C8.92801 3.8161 8.92801 3.7981 8.92801 3.7801C8.92801 3.6901 8.85601 3.6001 8.74801 3.6001H7.61401C7.52401 3.6001 7.45201 3.6721 7.43401 3.7441L6.80401 6.1561H5.22001C5.13001 6.1561 5.07601 6.2101 5.04001 6.2821L4.75201 7.3621C4.75201 7.3801 4.75201 7.3981 4.75201 7.3981C4.75201 7.4881 4.82401 7.5781 4.93201 7.5781H6.42601L5.72401 10.3141H4.19401C4.10401 10.3141 4.05001 10.3681 4.01401 10.4401L3.72601 11.5201C3.72601 11.5381 3.72601 11.5561 3.72601 11.5561C3.72601 11.6461 3.79801 11.7361 3.90601 11.7361H5.34601L4.73401 14.1121C4.73401 14.1301 4.73401 14.1481 4.73401 14.1481C4.73401 14.2381 4.80601 14.3281 4.91401 14.3281H6.04801C6.13801 14.3281 6.21001 14.2741 6.22801 14.1841L6.85801 11.7181H9.68401L9.07201 14.0941C9.07201 14.1121 9.07201 14.1301 9.07201 14.1301C9.07201 14.2201 9.14401 14.3101 9.25201 14.3101H10.386C10.476 14.3101 10.548 14.2561 10.566 14.1661L11.196 11.7001H12.762C12.852 11.7001 12.924 11.6461 12.942 11.5561L13.23 10.4761C13.23 10.4581 13.23 10.4401 13.23 10.4401C13.23 10.3501 13.158 10.2601 13.05 10.2601H11.574L12.276 7.5241H13.788C13.878 7.5241 13.95 7.4701 13.968 7.3801L14.256 6.3001C14.256 6.2821 14.256 6.2641 14.256 6.2641C14.256 6.2461 14.166 6.1741 14.076 6.1741ZM10.08 10.3501H7.23601L7.93801 7.6141H10.764L10.08 10.3501Z" fill="white" stroke="white"/>
</svg>
