<svg width="18" height="18" viewBox="0 0 18 18" fill="none" xmlns="http://www.w3.org/2000/svg">
<g clip-path="url(#clip0_330_134)">
<path d="M15.6138 10.2213H13.4906V9.72422C14.3117 9.50006 15.0559 9.0456 15.6333 8.40867C15.6376 8.53007 15.7221 8.63814 15.8393 8.67045C15.9676 8.70585 16.1069 8.6438 16.1664 8.52479L16.3924 8.07275C16.4333 8.07701 16.4745 8.07933 16.5156 8.07933C17.1683 8.07933 17.6993 7.54829 17.6993 6.89562C17.6993 6.59563 17.5846 6.30756 17.3819 6.08948C17.3929 6.05886 17.3987 6.02645 17.3987 5.99372V5.09186C17.3987 4.31353 17.2229 3.5756 16.9093 2.91526C17.5373 2.74222 18 2.16647 18 1.48433C18 0.665895 17.3341 0 16.5157 0C15.9229 0 15.3963 0.350367 15.1607 0.876973C14.3461 0.323648 13.3636 0 12.3069 0C9.49921 0 7.21503 2.28421 7.21503 5.09186V5.99372C7.21503 6.02645 7.22073 6.05879 7.23184 6.08948C7.02909 6.30752 6.91441 6.59559 6.91441 6.89562C6.91441 7.54833 7.44545 8.07933 8.09812 8.07933C8.13926 8.07933 8.18043 8.07704 8.22131 8.07279L8.4473 8.52479C8.50573 8.64165 8.63672 8.703 8.76416 8.67305C8.88777 8.64383 8.97538 8.53566 8.9803 8.40962C9.55764 9.0475 10.3008 9.5015 11.1232 9.72506V10.2213H9.00006C7.85006 10.2213 6.91445 11.1569 6.91445 12.3069V12.3257H2.68684C2.53117 12.3257 2.40499 12.4519 2.40499 12.6076C2.40499 12.7632 2.53113 12.8894 2.68684 12.8894H8.1709L8.952 16.5345H1.41155L0.630446 12.8893H1.5219C1.67757 12.8893 1.80375 12.7632 1.80375 12.6075C1.80375 12.4518 1.67761 12.3256 1.5219 12.3256H0.281837C0.105247 12.3256 -0.0307023 12.4937 0.00624689 12.6665L0.901887 16.8462V17.7182C0.901887 17.8738 1.02803 18 1.18374 18H17.4176C17.5732 18 17.6994 17.8739 17.6994 17.7182V14.1107C17.6994 13.955 17.5733 13.8288 17.4176 13.8288C17.2619 13.8288 17.1357 13.955 17.1357 14.1107V17.4363H12.5887V16.8163C12.5887 16.6606 12.4626 16.5344 12.3069 16.5344H9.52842L8.6743 12.5485C8.64646 12.4185 8.53157 12.3257 8.39871 12.3257H7.47807V12.3069C7.47807 11.4677 8.16081 10.785 8.99999 10.785H9.62004V12.9082C9.62004 13.1392 9.89651 13.2734 10.078 13.1282L11.4202 12.0544L12.1506 12.5414C12.2443 12.6038 12.3696 12.6038 12.4633 12.5414L13.1937 12.0544L14.5359 13.1282C14.7173 13.2733 14.9938 13.1392 14.9938 12.9082V10.785H15.6139C16.4531 10.785 17.1358 11.4677 17.1358 12.3069V12.9081C17.1358 13.0638 17.262 13.19 17.4177 13.19C17.5733 13.19 17.6995 13.0639 17.6995 12.9081V12.3069C17.6994 11.1569 16.7639 10.2213 15.6138 10.2213ZM12.025 17.0981V17.4363H1.46555V17.0981H12.025ZM11.1232 11.5702L10.1837 12.3218V10.785H11.1232V11.5702ZM17.0929 6.67192C17.1203 6.74269 17.1356 6.81824 17.1356 6.89562C17.1357 7.17954 16.9436 7.41888 16.6828 7.49215L17.0929 6.67192ZM16.5157 0.56366C17.0233 0.56366 17.4363 0.976641 17.4363 1.48433C17.4363 1.95465 17.0818 2.34348 16.6259 2.39815C16.3533 1.96249 16.0168 1.57075 15.6293 1.23637C15.7399 0.839496 16.1014 0.56366 16.5157 0.56366ZM7.47807 6.89562C7.47807 6.81824 7.4934 6.74265 7.52082 6.67188L7.93096 7.49211C7.67013 7.41888 7.47807 7.1795 7.47807 6.89562ZM8.69937 5.71191C8.5437 5.71191 8.41752 5.83805 8.41752 5.99375V7.20485L7.7787 5.9272V5.09189C7.7787 2.59502 9.81002 0.563695 12.3069 0.563695C14.8038 0.563695 16.8351 2.59502 16.8351 5.09189V5.9272L16.1963 7.20485V5.99375C16.1963 5.83808 16.0701 5.71191 15.9144 5.71191H14.0919V4.79123C14.0919 4.63556 13.9657 4.50939 13.81 4.50939C13.6544 4.50939 13.5282 4.63553 13.5282 4.79123V5.71191H12.5887V3.88934C12.5887 3.73366 12.4626 3.60749 12.3069 3.60749C12.1512 3.60749 12.025 3.73363 12.025 3.88934V5.71187H11.0856V4.7912C11.0856 4.63553 10.9595 4.50935 10.8038 4.50935C10.6481 4.50935 10.5219 4.63549 10.5219 4.7912V5.71187H8.69937V5.71191ZM12.9269 10.5031V11.5548L12.3069 11.9682L11.6868 11.5548V10.5031V9.88309H12.9269V10.5031H12.9269ZM12.3069 9.31943C10.9698 9.31943 9.73676 8.64851 9.0086 7.5247C9.00038 7.51198 8.99102 7.50038 8.98121 7.48944V6.2756H15.6326V7.517C15.6062 7.53595 15.5825 7.55947 15.5633 7.58791C14.8308 8.6721 13.6135 9.31943 12.3069 9.31943ZM14.43 12.3218L13.4906 11.5702V10.785H14.43V12.3218Z" fill="white" stroke="white" stroke-width="0.390625"/>
<path d="M12.5831 13.1536C12.5367 12.9111 12.2085 12.8499 12.0724 13.0526C12.0011 13.1587 12.0131 13.3034 12.098 13.3982C12.1797 13.4894 12.3169 13.5158 12.4273 13.4637C12.5425 13.4094 12.6087 13.2786 12.5831 13.1536Z" fill="white" stroke="white" stroke-width="0.390625"/>
<path d="M12.5061 14.2119C12.3354 14.0358 12.0305 14.1654 12.0252 14.4052C12.0224 14.5273 12.1025 14.6406 12.2184 14.6785C12.3361 14.7169 12.4671 14.6732 12.5381 14.572C12.6153 14.4619 12.6013 14.3065 12.5061 14.2119Z" fill="white" stroke="white" stroke-width="0.390625"/>
<path d="M12.5673 15.5059C12.5207 15.3953 12.4064 15.3237 12.2861 15.3328C12.1687 15.3417 12.0667 15.4249 12.0355 15.5386C12.0035 15.6546 12.0504 15.7814 12.1506 15.8483C12.247 15.9125 12.3764 15.9102 12.4705 15.8431C12.5769 15.7673 12.6154 15.6264 12.5673 15.5059Z" fill="white" stroke="white" stroke-width="0.390625"/>
<path d="M13.4343 7.62839C13.3409 7.50386 13.1642 7.47869 13.0397 7.57196C12.918 7.66319 12.661 7.81626 12.3069 7.81626C12.1548 7.81626 11.8574 7.78452 11.5741 7.572C11.4496 7.47862 11.2729 7.50386 11.1795 7.62835C11.0862 7.75284 11.1114 7.92953 11.2359 8.02291C11.65 8.33351 12.0847 8.37989 12.3069 8.37989C12.8244 8.37989 13.2 8.15622 13.3778 8.02294C13.5023 7.9296 13.5276 7.75291 13.4343 7.62839Z" fill="white" stroke="white" stroke-width="0.390625"/>
<path d="M10.7635 6.48729C10.6674 6.25885 10.3296 6.26054 10.2403 6.49373C10.1478 6.73511 10.4161 6.96802 10.6419 6.84033C10.765 6.77076 10.8156 6.61783 10.7635 6.48729Z" fill="white" stroke="white" stroke-width="0.390625"/>
<path d="M14.2881 6.37646C14.0875 6.2134 13.7809 6.39825 13.8349 6.653C13.8622 6.78167 13.9789 6.87701 14.1106 6.87701C14.3698 6.87701 14.4899 6.54036 14.2881 6.37646Z" fill="white" stroke="white" stroke-width="0.390625"/>
<path d="M3.58871 0C1.60988 0 0 1.47502 0 3.28809C0 5.09509 1.59894 6.56627 3.56868 6.57615L5.20692 8.00961C5.38576 8.16606 5.67432 8.03419 5.67432 7.79748V5.96436C6.61862 5.3467 7.17746 4.35734 7.17746 3.28809C7.17746 1.47502 5.56755 0 3.58871 0ZM5.24879 5.56552C5.16319 5.61628 5.11066 5.70843 5.11066 5.80792V7.17634L3.85907 6.08122C3.7793 6.0114 3.68838 6.01246 3.58871 6.01246C1.92069 6.01249 0.56366 4.79032 0.56366 3.28806C0.56366 1.7858 1.92069 0.563625 3.58871 0.563625C5.25674 0.563625 6.61377 1.7858 6.61377 3.28806C6.61377 4.20746 6.10351 5.05884 5.24879 5.56552Z" fill="white" stroke="white" stroke-width="0.390625"/>
<path d="M3.5887 2.70557C3.43303 2.70557 3.30685 2.83171 3.30685 2.98741V4.79118C3.30685 4.94685 3.433 5.07302 3.5887 5.07302C3.74441 5.07302 3.87055 4.94688 3.87055 4.79118V2.98741C3.87055 2.83174 3.74441 2.70557 3.5887 2.70557Z" fill="white" stroke="white" stroke-width="0.390625"/>
<path d="M3.5887 1.80371C3.43303 1.80371 3.30685 1.92985 3.30685 2.08556V2.12314C3.30685 2.27881 3.433 2.40499 3.5887 2.40499C3.74441 2.40499 3.87055 2.27885 3.87055 2.12314V2.08556C3.87055 1.92985 3.74441 1.80371 3.5887 1.80371Z" fill="white" stroke="white" stroke-width="0.390625"/>
<path d="M4.79123 13.8286C4.30428 13.8286 3.90814 14.2248 3.90814 14.7117C3.90814 15.1987 4.30428 15.5948 4.79123 15.5948C5.27818 15.5948 5.67432 15.1987 5.67432 14.7117C5.67432 14.2248 5.27818 13.8286 4.79123 13.8286ZM4.79123 15.0311C4.6151 15.0311 4.4718 14.8878 4.4718 14.7117C4.4718 14.5355 4.6151 14.3922 4.79123 14.3922C4.96736 14.3922 5.11066 14.5355 5.11066 14.7117C5.11066 14.8878 4.96736 15.0311 4.79123 15.0311Z" fill="white" stroke="white" stroke-width="0.390625"/>
<path d="M7.19623 14.4302H6.59499C6.43932 14.4302 6.31314 14.5563 6.31314 14.712C6.31314 14.8677 6.43928 14.9939 6.59499 14.9939H7.19623C7.3519 14.9939 7.47808 14.8677 7.47808 14.712C7.47808 14.5563 7.35194 14.4302 7.19623 14.4302Z" fill="white" stroke="white" stroke-width="0.390625"/>
<path d="M2.98746 14.4302H2.38622C2.23055 14.4302 2.10437 14.5563 2.10437 14.712C2.10437 14.8677 2.23051 14.9939 2.38622 14.9939H2.98746C3.14313 14.9939 3.26931 14.8677 3.26931 14.712C3.26931 14.5563 3.14313 14.4302 2.98746 14.4302Z" fill="white" stroke="white" stroke-width="0.390625"/>
</g>
<defs>
<clipPath id="clip0_330_134">
<rect width="18" height="18" fill="white"/>
</clipPath>
</defs>
</svg>
