<svg width="18" height="18" viewBox="0 0 18 18" fill="none" xmlns="http://www.w3.org/2000/svg">
<path fill-rule="evenodd" clip-rule="evenodd" d="M13.5842 11.7591L13.5886 7.58811L10.62 4.6289C9.7241 3.73698 8.27582 3.73698 7.37999 4.6289L4.41791 7.58091V11.7569C4.42029 13.0199 5.44591 14.042 6.70895 14.04H11.2932C12.5554 14.042 13.5806 13.0212 13.5842 11.7591Z" stroke="white" stroke-width="3.84" stroke-linecap="round" stroke-linejoin="round"/>
<path fill-rule="evenodd" clip-rule="evenodd" d="M10.08 8.54276C10.0689 9.13647 9.58061 9.60987 8.98683 9.60253C8.39304 9.59518 7.91655 9.10983 7.92022 8.51605C7.92382 7.92219 8.40615 7.44273 9 7.44263C9.28908 7.44528 9.56535 7.56269 9.76788 7.76905C9.97042 7.97533 10.0827 8.25368 10.08 8.54276Z" stroke="white" stroke-width="3.84" stroke-linecap="round" stroke-linejoin="round"/>
<path d="M14.1336 4.50951C14.134 4.21127 13.8926 3.96917 13.5944 3.96875C13.2961 3.96833 13.054 4.20976 13.0536 4.50799L14.1336 4.50951ZM13.5893 7.5882L13.0493 7.58741C13.0491 7.73119 13.1062 7.86914 13.208 7.97059L13.5893 7.5882ZM14.3788 9.13771C14.5899 9.34831 14.9319 9.34773 15.1424 9.13656C15.353 8.92538 15.3525 8.58345 15.1412 8.37285L14.3788 9.13771ZM4.79917 7.96339C5.01038 7.75286 5.0109 7.41094 4.80034 7.19974C4.58978 6.98853 4.24787 6.98801 4.03666 7.19856L4.79917 7.96339ZM2.85874 8.37285C2.64754 8.58345 2.64701 8.92538 2.85758 9.13656C3.06813 9.34773 3.41005 9.34831 3.62125 9.13771L2.85874 8.37285ZM7.56 11.302C7.26177 11.302 7.02 11.5437 7.02 11.842C7.02 12.1402 7.26177 12.382 7.56 12.382V11.302ZM10.44 12.382C10.7382 12.382 10.98 12.1402 10.98 11.842C10.98 11.5437 10.7382 11.302 10.44 11.302V12.382ZM13.0536 4.50799L13.0493 7.58741L14.1293 7.58892L14.1336 4.50951L13.0536 4.50799ZM13.208 7.97059L14.3788 9.13771L15.1412 8.37285L13.9705 7.20576L13.208 7.97059ZM4.03666 7.19856L2.85874 8.37285L3.62125 9.13771L4.79917 7.96339L4.03666 7.19856ZM7.56 12.382H10.44V11.302H7.56V12.382Z" fill="white"/>
</svg>
