<svg width="18" height="18" viewBox="0 0 18 18" fill="none" xmlns="http://www.w3.org/2000/svg">
<g clip-path="url(#clip0_330_127)">
<path d="M17.6704 10.4546L13.5976 6.38156L13.601 6.38466C13.7149 5.96278 13.7812 5.52066 13.7812 5.0625C13.7812 2.26688 11.5147 0 8.71875 0C8.25103 0 7.80019 0.068625 7.37072 0.187313C7.18791 0.066375 6.97247 0 6.75 0H1.125C0.503719 0 0 0.503719 0 1.125V6.75C0 7.04841 0.118688 7.33444 0.329625 7.54537L10.4546 17.6704C10.674 17.89 10.9623 18 11.25 18C11.5377 18 11.826 17.89 12.0454 17.6704L17.6704 12.0454C18.11 11.6063 18.11 10.8937 17.6704 10.4546ZM8.71875 0.562781C11.2042 0.562781 13.2188 2.57737 13.2188 5.06278C13.2188 5.34487 13.1858 5.65003 13.1358 5.92003L12.638 5.42222L12.6312 5.41519C12.6419 5.30297 12.6562 5.17022 12.6562 5.06278C12.6562 2.88844 10.8934 1.12528 8.71875 1.12528C8.59725 1.12528 8.478 1.13259 8.35931 1.14328C8.12869 1.16409 7.90481 1.20741 7.68684 1.26647C6.69544 1.53506 5.86153 2.18025 5.34487 3.04059C5.24784 3.20175 5.15925 3.36825 5.08584 3.54347C4.89009 4.01119 4.78125 4.52419 4.78125 5.06278C4.78125 5.23631 4.81809 5.57381 4.81809 5.57381C4.81809 5.57381 4.61137 5.625 4.5 5.625C4.41478 5.625 4.33266 5.61375 4.25306 5.59575C4.24378 5.5935 4.24237 5.5935 4.25306 5.59575C4.23253 5.42053 4.21875 5.24362 4.21875 5.06278C4.21875 4.46709 4.33716 3.90009 4.54725 3.38006C4.62262 3.19387 4.70953 3.01472 4.80797 2.84203C5.34206 1.9035 6.20381 1.17844 7.23797 0.817594C7.44047 0.746719 7.64803 0.687937 7.86262 0.646875C8.13966 0.592875 8.42569 0.562781 8.71875 0.562781ZM12.0839 4.86816L8.91337 1.69762C10.6214 1.79522 11.986 3.15984 12.0839 4.86816ZM5.625 4.5C5.625 4.77872 5.52066 5.03016 5.35191 5.22534C5.34966 5.17134 5.34375 5.11791 5.34375 5.06278C5.34375 4.69687 5.40366 4.34559 5.51138 4.01541C5.58225 4.16278 5.625 4.32591 5.625 4.5ZM3.65625 5.0625C3.65625 5.12184 3.66244 5.18006 3.66497 5.23884C3.48806 5.04113 3.375 4.78631 3.375 4.5C3.375 4.10709 3.5775 3.76172 3.88294 3.56062C3.73556 4.03537 3.65625 4.53966 3.65625 5.0625ZM17.2727 11.6477L11.6474 17.2727C11.5414 17.379 11.4002 17.4375 11.25 17.4375C11.0998 17.4375 10.9586 17.379 10.8523 17.2727L0.727312 7.14769C0.622687 7.04278 0.5625 6.89766 0.5625 6.75V1.125C0.5625 0.8145 0.814781 0.5625 1.125 0.5625H6.40631C5.43712 1.06172 4.65272 1.86384 4.17319 2.84484C3.39778 2.997 2.8125 3.67988 2.8125 4.5C2.8125 5.43178 3.56822 6.1875 4.5 6.1875C5.43178 6.1875 6.1875 5.43178 6.1875 4.5C6.1875 4.0815 6.03422 3.699 5.78166 3.40425C6.27328 2.53575 7.13784 1.90912 8.1585 1.73812L17.2727 10.8523C17.379 10.9586 17.4375 11.0998 17.4375 11.25C17.4375 11.4002 17.379 11.5414 17.2727 11.6477Z" fill="#FFFAFB"/>
<path d="M4.25306 5.59575C4.33266 5.61375 4.41478 5.625 4.5 5.625C4.61137 5.625 4.81809 5.57381 4.81809 5.57381C4.81809 5.57381 4.78125 5.23631 4.78125 5.06278C4.78125 4.52419 4.89009 4.01119 5.08584 3.54347C5.15925 3.36825 5.24784 3.20175 5.34487 3.04059C5.86153 2.18025 6.69544 1.53506 7.68684 1.26647C7.90481 1.20741 8.12869 1.16409 8.35931 1.14328C8.478 1.13259 8.59725 1.12528 8.71875 1.12528C10.8934 1.12528 12.6562 2.88844 12.6562 5.06278C12.6562 5.17022 12.6419 5.30297 12.6312 5.41519L12.638 5.42222L13.1358 5.92003C13.1858 5.65003 13.2188 5.34487 13.2188 5.06278C13.2188 2.57737 11.2042 0.562781 8.71875 0.562781C8.42569 0.562781 8.13966 0.592875 7.86262 0.646875C7.64803 0.687937 7.44047 0.746719 7.23797 0.817594C6.20381 1.17844 5.34206 1.9035 4.80797 2.84203C4.70953 3.01472 4.62262 3.19387 4.54725 3.38006C4.33716 3.90009 4.21875 4.46709 4.21875 5.06278C4.21875 5.24362 4.23253 5.42053 4.25306 5.59575ZM4.25306 5.59575C4.24237 5.5935 4.24378 5.5935 4.25306 5.59575ZM17.6704 10.4546L13.5976 6.38156L13.601 6.38466C13.7149 5.96278 13.7812 5.52066 13.7812 5.0625C13.7812 2.26688 11.5147 0 8.71875 0C8.25103 0 7.80019 0.068625 7.37072 0.187313C7.18791 0.066375 6.97247 0 6.75 0H1.125C0.503719 0 0 0.503719 0 1.125V6.75C0 7.04841 0.118688 7.33444 0.329625 7.54537L10.4546 17.6704C10.674 17.89 10.9623 18 11.25 18C11.5377 18 11.826 17.89 12.0454 17.6704L17.6704 12.0454C18.11 11.6063 18.11 10.8937 17.6704 10.4546ZM12.0839 4.86816L8.91337 1.69762C10.6214 1.79522 11.986 3.15984 12.0839 4.86816ZM5.625 4.5C5.625 4.77872 5.52066 5.03016 5.35191 5.22534C5.34966 5.17134 5.34375 5.11791 5.34375 5.06278C5.34375 4.69687 5.40366 4.34559 5.51138 4.01541C5.58225 4.16278 5.625 4.32591 5.625 4.5ZM3.65625 5.0625C3.65625 5.12184 3.66244 5.18006 3.66497 5.23884C3.48806 5.04113 3.375 4.78631 3.375 4.5C3.375 4.10709 3.5775 3.76172 3.88294 3.56062C3.73556 4.03537 3.65625 4.53966 3.65625 5.0625ZM17.2727 11.6477L11.6474 17.2727C11.5414 17.379 11.4002 17.4375 11.25 17.4375C11.0998 17.4375 10.9586 17.379 10.8523 17.2727L0.727312 7.14769C0.622687 7.04278 0.5625 6.89766 0.5625 6.75V1.125C0.5625 0.8145 0.814781 0.5625 1.125 0.5625H6.40631C5.43712 1.06172 4.65272 1.86384 4.17319 2.84484C3.39778 2.997 2.8125 3.67988 2.8125 4.5C2.8125 5.43178 3.56822 6.1875 4.5 6.1875C5.43178 6.1875 6.1875 5.43178 6.1875 4.5C6.1875 4.0815 6.03422 3.699 5.78166 3.40425C6.27328 2.53575 7.13784 1.90912 8.1585 1.73812L17.2727 10.8523C17.379 10.9586 17.4375 11.0998 17.4375 11.25C17.4375 11.4002 17.379 11.5414 17.2727 11.6477Z" stroke="white"/>
<path d="M14.0968 10.6537C13.7678 10.3246 13.2325 10.3243 12.9035 10.6534L10.658 12.8989C10.3292 13.2277 10.3171 13.7753 10.6462 14.1043C10.9747 14.4334 11.5203 14.4233 11.8494 14.0942L14.0971 11.847H14.0965C14.4256 11.518 14.4256 10.9825 14.0968 10.6537ZM13.6989 11.4493L11.4601 13.6881C11.3501 13.7981 11.153 13.8166 11.0439 13.7066C10.9339 13.5967 10.9482 13.4046 11.0582 13.2946L13.3015 11.0514C13.4114 10.9414 13.5892 10.9414 13.6991 11.0514C13.8088 11.1611 13.8088 11.3394 13.6989 11.4493Z" fill="#FFFAFB" stroke="white"/>
<path d="M11.8468 9.59751C12.1759 9.26845 12.1759 8.73295 11.8471 8.40416C11.518 8.0751 10.9828 8.07482 10.6538 8.40388L8.40826 10.6494C8.07948 10.9782 8.06738 11.5258 8.39645 11.8548C8.72495 12.1839 9.27057 12.1738 9.59963 11.8447L11.8474 9.59751H11.8468ZM11.4491 9.19982L9.21038 11.4386C9.10041 11.5485 8.90326 11.5671 8.79413 11.4571C8.68416 11.3472 8.69851 11.1551 8.80848 11.0451L11.0517 8.80185C11.1617 8.69188 11.3394 8.69188 11.4494 8.80185C11.5591 8.91154 11.5591 9.08985 11.4491 9.19982Z" fill="#FFFAFB" stroke="white"/>
<path d="M9.59569 7.34604C9.92475 7.01698 9.92475 6.48148 9.59597 6.1527C9.26691 5.82364 8.73169 5.82336 8.40263 6.15242L6.15713 8.39792C5.82835 8.7267 5.81625 9.27429 6.14532 9.60336C6.47382 9.93242 7.01944 9.92229 7.3485 9.59323L9.59625 7.34604H9.59569ZM9.198 6.94836L6.95925 9.18711C6.84928 9.29707 6.65213 9.31564 6.543 9.20567C6.43303 9.0957 6.44738 8.90361 6.55735 8.79364L8.8006 6.55039C8.91057 6.44042 9.08832 6.44042 9.19829 6.55039C9.30797 6.66007 9.30797 6.83839 9.198 6.94836Z" fill="#FFFAFB" stroke="white"/>
</g>
<defs>
<clipPath id="clip0_330_127">
<rect width="18" height="18" fill="white"/>
</clipPath>
</defs>
</svg>
