<svg width="28" height="29" viewBox="0 0 28 29" fill="none" xmlns="http://www.w3.org/2000/svg">
<g clip-path="url(#clip0_329_2)">
<path d="M12.7983 10.5105C12.616 12.1491 12.0767 13.4968 11.235 14.4912C11.051 14.7085 10.8505 14.9103 10.6355 15.0947C10.745 15.7715 10.7993 16.1975 10.9166 17.0371C10.1248 16.6259 9.66373 16.3765 9.05497 16.029C8.87727 16.096 8.69432 16.1544 8.50611 16.2044C7.63593 16.4241 6.73464 16.4797 5.84543 16.3685C5.82029 16.366 5.79412 16.3637 5.76809 16.3604C4.5505 16.2156 3.50284 15.833 2.65407 15.2496C0.809399 13.9848 -0.101025 11.7762 0.207459 9.00612C0.514257 6.24693 2.39075 3.99493 5.00025 3.38971C5.73007 3.22388 6.48159 3.18605 7.2235 3.2778C10.9331 3.72114 13.1903 6.99269 12.7983 10.5105Z" fill="white"/>
<path d="M8.8377 4.12927C8.87227 4.09821 8.91291 4.07525 8.95684 4.06195C9.00076 4.04865 9.04694 4.04532 9.09223 4.0522C9.13667 4.0587 9.17914 4.07543 9.21653 4.10116C9.25391 4.12688 9.28526 4.16095 9.30827 4.20087C9.33489 4.25599 9.35002 4.31629 9.35269 4.37786C9.3721 4.61862 9.32721 4.86027 9.22294 5.07639C9.17377 5.18564 9.10243 5.28263 9.01379 5.36073C8.97781 5.3969 8.93203 5.42081 8.88257 5.42926C8.8331 5.43772 8.78233 5.43031 8.73704 5.40803C8.70295 5.5135 8.65868 5.60825 8.64401 5.65427C8.57738 5.84158 8.22894 6.46775 7.7767 6.77237C7.77758 6.93804 7.76533 7.14381 7.82391 7.29445C7.86225 7.3927 8.05424 7.53741 8.26112 7.67013C8.26112 7.67013 7.96789 8.95725 6.66086 8.95725C5.35383 8.95725 5.13794 7.68016 5.13794 7.68016C5.33169 7.54447 5.51599 7.3952 5.55529 7.29467C5.61393 7.14525 5.60235 6.93987 5.60301 6.7748C5.41834 6.64678 5.25299 6.49113 5.11235 6.31293C4.90713 6.05642 4.7517 5.76124 4.65461 5.44364L4.62749 5.45124C4.57792 5.46109 4.52677 5.45801 4.47865 5.44226C4.43052 5.42651 4.38695 5.3986 4.35185 5.36104C4.26316 5.28289 4.1918 5.18585 4.14262 5.07654C4.03842 4.8604 3.99353 4.61876 4.01287 4.37801C4.01552 4.31643 4.03069 4.25612 4.05736 4.20102C4.08037 4.16112 4.1117 4.12705 4.14907 4.10132C4.18644 4.0756 4.2289 4.05887 4.27333 4.05236C4.31861 4.04548 4.3648 4.0488 4.40872 4.0621C4.45265 4.0754 4.49329 4.09836 4.52786 4.12942C4.52786 4.12942 4.20911 2.03125 6.62017 2.03125C9.03123 2.03125 8.8377 4.12927 8.8377 4.12927Z" fill="white"/>
<path d="M24.1957 13.0995C24.2979 13.0297 24.4221 13.003 24.5428 13.025C24.6192 13.0319 24.6924 13.0597 24.7551 13.1056C24.8177 13.1515 24.8674 13.2139 24.899 13.2862C25.0008 13.5263 24.9437 13.9351 24.8242 14.1771C24.7223 14.4131 24.5548 14.6122 24.3431 14.7491C24.2018 14.8234 24.0443 14.8587 23.8859 14.8516C23.8694 14.8903 23.8573 14.9188 23.8573 14.9188C23.7982 15.0427 23.6594 15.2589 23.6594 15.2589C23.5248 15.4633 23.3741 15.6557 23.2088 15.8342C23.2513 15.9624 23.294 16.0906 23.3367 16.2188C23.3714 16.3368 23.4181 16.4506 23.476 16.5583C23.6419 16.8424 23.9954 16.9925 24.2834 17.1384C24.3327 17.1634 24.3875 17.1887 24.4447 17.2143L24.2963 17.3275C23.4898 17.9511 22.5125 18.2924 21.5061 18.3021C21.126 18.3134 20.7479 18.2409 20.3969 18.0895C20.0582 17.9348 19.7758 17.6725 19.5905 17.3406C19.764 17.2804 19.9318 17.2204 20.0516 17.1679C20.1361 17.1383 20.214 17.0914 20.2807 17.0301C20.3474 16.9689 20.4016 16.8944 20.4402 16.8111C19.9711 16.7402 19.532 16.5296 19.1763 16.205C18.6526 15.75 18.4308 15.04 18.3572 14.2572C18.3146 13.8057 18.2789 13.3152 18.2223 12.8247C18.2223 12.8247 17.6662 10.5704 20.5279 10.3624C24.0107 10.1088 24.1957 13.0995 24.1957 13.0995Z" fill="white"/>
<path d="M18.706 9.77723C18.4539 10.186 18.2806 10.6413 18.1956 11.1183C18.1016 11.7535 18.1115 12.4007 18.2249 13.0325C18.2354 12.9685 18.2423 12.9248 18.2423 12.9248C18.2937 12.6021 18.8823 11.7095 19.3096 11.4539C19.3597 11.4239 19.4269 11.4587 19.4512 11.5465C19.471 11.615 19.4785 11.6868 19.4732 11.7581C19.4705 11.7784 19.4733 11.799 19.4813 11.8177C19.4893 11.8364 19.5021 11.8524 19.5183 11.8641C19.5345 11.8757 19.5536 11.8824 19.5733 11.8835C19.593 11.8846 19.6126 11.8801 19.6299 11.8703C19.8684 11.7196 20.2787 11.3621 20.7559 11.1407C21.0887 11.0819 21.4267 11.0614 21.7639 11.0795C21.9552 11.1562 22.8379 11.4628 23.5013 12.6616C23.5647 12.7742 23.6203 12.8927 23.6836 13.0053C23.7022 13.0405 23.7236 13.074 23.7477 13.1054C23.7593 13.1193 23.7755 13.1281 23.793 13.1301C23.928 13.1488 24.0653 13.1385 24.1962 13.0997C24.2984 13.0299 24.4226 13.0032 24.5433 13.0252C24.6197 13.0321 24.6929 13.0599 24.7556 13.1058C24.8182 13.1517 24.8679 13.2141 24.8995 13.2864C24.9163 13.327 24.9285 13.3694 24.9362 13.4128C25.1701 12.98 25.1951 12.1979 25.2169 11.8623C25.2366 11.5452 25.2087 11.2267 25.1342 10.9184C24.9868 10.3053 24.7619 9.80305 24.3024 9.36351L24.2112 9.27634L23.7333 8.92541C23.1018 8.44058 22.3241 8.205 21.5399 8.26105C20.4116 8.31943 19.5041 8.77097 18.8959 9.51293C18.8274 9.59687 18.7639 9.68514 18.706 9.77723Z" fill="#85807F"/>
<path d="M23.0675 15.8745C23.1341 16.1057 23.214 16.3326 23.3068 16.5539C23.3993 16.7371 23.5383 16.8906 23.7089 16.998C24.0416 17.2237 24.4268 17.3688 24.793 17.5233C24.8305 17.5338 24.8705 17.5285 24.9042 17.5086C24.938 17.4887 24.9629 17.4558 24.9734 17.417C24.9827 17.3782 24.9773 17.3371 24.9581 17.3023C24.939 17.2675 24.9077 17.2417 24.8707 17.2301C24.5344 17.1022 24.2089 16.9457 23.8975 16.7623C23.7575 16.6811 23.6427 16.5603 23.5665 16.414C23.4812 16.2123 23.4089 16.005 23.3501 15.7934C23.2892 15.6096 23.0055 15.6885 23.0673 15.8742L23.0675 15.8745Z" fill="#211715"/>
<path d="M19.0583 17.689C19.3237 17.5855 19.5958 17.5018 19.863 17.4038C19.9934 17.3624 20.1202 17.3094 20.2418 17.2453C20.3825 17.1627 20.4958 17.0379 20.5666 16.8872C20.5852 16.8522 20.5901 16.8112 20.5803 16.7725C20.5705 16.7339 20.5468 16.7006 20.514 16.6795C20.4804 16.6595 20.4405 16.654 20.403 16.6642C20.3654 16.6744 20.3333 16.6994 20.3134 16.7339C20.2012 16.9802 19.9572 17.0493 19.7269 17.132C19.4785 17.2212 19.2264 17.3002 18.9802 17.3961C18.9433 17.4077 18.912 17.4336 18.8929 17.4683C18.8738 17.5031 18.8683 17.5441 18.8776 17.583C18.8881 17.6217 18.9129 17.6545 18.9467 17.6744C18.9804 17.6943 19.0204 17.6997 19.0579 17.6893L19.0583 17.689Z" fill="#211715"/>
<path d="M24.1985 9.47064C24.6059 9.8644 24.8436 10.3604 24.9818 10.9142C25.1163 11.4548 25.0844 12.0258 25.0126 12.5751C24.9781 12.8403 24.9284 13.1217 24.7979 13.3564C24.7034 13.5261 24.9567 13.6792 25.0511 13.5097C25.3033 13.0566 25.3266 12.4834 25.3566 11.9737C25.3994 11.3238 25.2781 10.6735 25.0047 10.0869C24.8556 9.77435 24.6525 9.49269 24.4054 9.25592C24.2676 9.12266 24.0598 9.33693 24.1981 9.47064H24.1985Z" fill="#211715"/>
<path d="M21.7245 11.2263C21.7594 11.2402 21.7943 11.2537 21.829 11.268L21.8643 11.2832C21.8918 11.2949 21.8368 11.2707 21.8678 11.2848C21.8967 11.2979 21.9255 11.3112 21.9541 11.3251C22.1003 11.3966 22.2405 11.4804 22.3734 11.5757C22.7857 11.8821 23.1275 12.2792 23.3743 12.7385C23.4687 12.9077 23.7222 12.7549 23.6275 12.5852C23.2609 11.928 22.7279 11.3522 22.0521 11.0387C21.97 11.0008 21.8864 10.9669 21.8025 10.9334C21.7649 10.923 21.725 10.9284 21.6912 10.9482C21.6575 10.9681 21.6327 11.001 21.6221 11.0397C21.6127 11.0785 21.6181 11.1197 21.6372 11.1545C21.6563 11.1893 21.6877 11.2151 21.7247 11.2265L21.7245 11.2263Z" fill="#211715"/>
<path d="M18.3836 12.9654C18.419 12.7637 18.5449 12.5719 18.6579 12.3959C18.8057 12.1589 18.9804 11.9411 19.1784 11.7473C19.2145 11.7122 19.2524 11.679 19.2918 11.648C19.3159 11.6334 19.3389 11.6172 19.3609 11.5995C19.3785 11.5813 19.4127 11.5874 19.3472 11.5851C19.2948 11.5834 19.3113 11.5829 19.3184 11.6226C19.3203 11.704 19.329 11.7851 19.3443 11.865C19.3585 11.905 19.3819 11.9409 19.4125 11.9696C19.443 11.9983 19.4797 12.0189 19.5196 12.0297C19.6538 12.0661 19.7701 11.9594 19.8725 11.8851C19.984 11.8042 20.0944 11.7215 20.2072 11.6421C20.5147 11.4267 20.8406 11.2312 21.2051 11.1422C21.3883 11.0974 21.3109 10.8045 21.1271 10.8494C20.7862 10.9429 20.4632 11.0961 20.1721 11.3024C20.0442 11.3881 19.92 11.4793 19.7957 11.5705C19.7449 11.6077 19.6942 11.645 19.6426 11.6811C19.6217 11.6929 19.6018 11.7064 19.5831 11.7216C19.5735 11.7269 19.5643 11.7329 19.5555 11.7395C19.5519 11.6748 19.6203 11.7574 19.6194 11.7584C19.6346 11.7422 19.6172 11.6465 19.6147 11.626C19.6097 11.5759 19.599 11.5266 19.5828 11.4791C19.5689 11.4362 19.5452 11.3974 19.5137 11.366C19.4822 11.3346 19.4439 11.3116 19.402 11.2989C19.2622 11.2643 19.1339 11.3876 19.0354 11.4735C18.8182 11.6725 18.6267 11.8998 18.4657 12.1496C18.3208 12.3642 18.1471 12.6213 18.1009 12.8846C18.0674 13.0757 18.3502 13.158 18.3837 12.9654H18.3836Z" fill="#211715"/>
<path d="M20.2034 15.4846C20.356 15.5629 20.5251 15.6008 20.6953 15.5948C20.7787 15.5943 20.8617 15.5831 20.9424 15.5613C21.0338 15.5288 21.1227 15.489 21.2081 15.4421C21.2416 15.4217 21.2659 15.3884 21.2758 15.3494C21.2856 15.3105 21.2802 15.2691 21.2607 15.2343C21.2403 15.2004 21.2082 15.1759 21.1709 15.1657C21.1336 15.1556 21.0939 15.1607 21.0601 15.1799C21.023 15.1971 20.9868 15.2162 20.9502 15.2345L20.9236 15.2476C20.8829 15.2674 20.9365 15.2433 20.9135 15.2521C20.8988 15.2575 20.8846 15.2626 20.8699 15.2669C20.8552 15.2712 20.8397 15.2751 20.8244 15.2783C20.8166 15.28 20.8087 15.2816 20.8008 15.2831C20.7975 15.2837 20.7714 15.2878 20.7899 15.2851C20.8084 15.2824 20.7817 15.2859 20.7784 15.2862C20.77 15.2872 20.7615 15.2878 20.7531 15.2885C20.7339 15.29 20.7146 15.2908 20.6953 15.2911C20.6605 15.2916 20.6256 15.2904 20.591 15.2875C20.5823 15.2867 20.5737 15.2858 20.565 15.285C20.5513 15.2832 20.5503 15.2835 20.565 15.285C20.5481 15.2824 20.5314 15.2796 20.5146 15.2761C20.4804 15.2693 20.4467 15.2603 20.4136 15.2493C20.4063 15.2468 20.399 15.2441 20.3916 15.2417C20.3883 15.2404 20.3642 15.2313 20.3827 15.2386C20.4012 15.2459 20.3784 15.2364 20.3749 15.2347C20.3669 15.2306 20.359 15.2266 20.3511 15.2222C20.3345 15.2122 20.3161 15.2056 20.297 15.2029C20.2779 15.2002 20.2585 15.2014 20.2399 15.2064C20.2213 15.2115 20.2038 15.2203 20.1884 15.2324C20.1731 15.2444 20.1602 15.2595 20.1505 15.2767C20.1408 15.2939 20.1344 15.313 20.1318 15.3327C20.1292 15.3525 20.1303 15.3726 20.1352 15.3919C20.1401 15.4112 20.1486 15.4293 20.1603 15.4452C20.1719 15.4611 20.1864 15.4744 20.2031 15.4845L20.2034 15.4846Z" fill="#211715"/>
<path d="M21.2575 13.6426C21.2178 13.4824 21.2648 13.1209 21.5549 13.104C21.9361 13.125 21.9368 13.565 21.7989 13.7651C21.686 13.929 21.3737 13.9842 21.2575 13.6426Z" fill="#211715"/>
<path d="M18.9887 13.6061C18.9525 13.4455 18.996 13.0827 19.2618 13.0654C19.611 13.0859 19.6108 13.5273 19.4843 13.7283C19.3808 13.8928 19.0946 13.9486 18.9887 13.6061Z" fill="#211715"/>
<path d="M20.1653 13.9937C20.1153 14.0786 20.067 14.165 20.0242 14.254C20.0006 14.2981 19.9856 14.3465 19.9802 14.3966C19.9785 14.427 19.9833 14.4574 19.9943 14.4856C20.0053 14.5139 20.0223 14.5392 20.0439 14.5599C20.0789 14.5951 20.1214 14.6214 20.168 14.6366C20.1991 14.6444 20.2309 14.6492 20.2628 14.6511L20.2238 14.6457C20.2264 14.6457 20.2289 14.6464 20.2312 14.6468C20.2693 14.6563 20.3095 14.6509 20.3441 14.6316C20.3777 14.6113 20.4021 14.578 20.412 14.539C20.4218 14.5001 20.4163 14.4587 20.3967 14.4239C20.3873 14.4068 20.3748 14.3918 20.3597 14.3798C20.3447 14.3678 20.3275 14.3591 20.3091 14.3541C20.2842 14.35 20.2591 14.3476 20.2341 14.3443L20.2731 14.3498C20.2587 14.3478 20.2446 14.3439 20.2312 14.3382L20.2662 14.3534C20.2552 14.348 20.2447 14.3414 20.235 14.3338L20.2647 14.3575C20.2554 14.3499 20.2467 14.3413 20.2389 14.332L20.2619 14.3628C20.2597 14.3598 20.2579 14.3566 20.2565 14.3531L20.2712 14.3894C20.2694 14.3842 20.2681 14.3788 20.2674 14.3734L20.2727 14.4138C20.2724 14.4081 20.2725 14.4023 20.2731 14.3966L20.2679 14.4369C20.27 14.4246 20.2733 14.4127 20.2779 14.4012L20.2632 14.4374C20.3081 14.3369 20.3599 14.2398 20.4182 14.147C20.4378 14.1122 20.4433 14.0708 20.4334 14.0318C20.4236 13.9929 20.3992 13.9595 20.3656 13.9392C20.332 13.9189 20.292 13.9132 20.2544 13.9234C20.2168 13.9336 20.1846 13.9589 20.165 13.9937H20.1653Z" fill="#211715"/>
<path d="M22.9959 16.2436C23.2376 16.0346 23.4553 15.7977 23.6448 15.5374C23.7736 15.3682 23.8872 15.1869 23.9839 14.9961C24.0026 14.9611 24.0076 14.92 23.9978 14.8813C23.988 14.8426 23.9642 14.8093 23.9313 14.7883C23.8977 14.7683 23.8578 14.7629 23.8203 14.7731C23.7828 14.7833 23.7506 14.8083 23.7307 14.8428C23.4979 15.3005 23.1773 15.7041 22.7885 16.029C22.7613 16.0576 22.746 16.0962 22.746 16.1364C22.746 16.1766 22.7613 16.2152 22.7885 16.2438C22.8164 16.2715 22.8536 16.2869 22.8922 16.2869C22.9309 16.2869 22.968 16.2715 22.9959 16.2438V16.2436Z" fill="#211715"/>
<path d="M23.8071 8.79446C23.2862 8.40567 22.6732 8.17072 22.0335 8.11469C21.4402 8.06916 20.8442 8.1519 20.2834 8.35765C19.7638 8.54593 19.2941 8.85767 18.9117 9.26787C18.4905 9.74355 18.202 10.3288 18.0768 10.961C17.9406 11.6752 17.946 12.4106 18.0927 13.1225C18.13 13.3139 18.4127 13.2329 18.3755 13.0418C18.1538 11.9036 18.2468 10.5423 18.9994 9.62093C19.6917 8.77336 20.7607 8.39091 21.8138 8.40845C22.4782 8.42542 23.1219 8.65171 23.6591 9.05717C23.8138 9.16977 23.9605 8.90653 23.8071 8.79492V8.79446Z" fill="#211715"/>
<path d="M22.1906 16.343C21.4443 16.6862 20.5677 16.8433 19.8068 16.4551C19.4485 16.2823 19.1421 16.012 18.9205 15.673C18.7172 15.3205 18.5862 14.9284 18.5359 14.5211C18.4508 13.9605 18.4337 13.3878 18.3693 12.8242C18.3681 12.7843 18.3523 12.7464 18.325 12.7182C18.2978 12.6899 18.2612 12.6735 18.2226 12.6724C18.1838 12.6726 18.1467 12.6887 18.1192 12.7171C18.0918 12.7455 18.0763 12.784 18.076 12.8242C18.1383 13.3685 18.164 13.9176 18.2337 14.4608C18.2798 14.9152 18.413 15.3555 18.6257 15.7558C19.0686 16.5362 19.9513 16.9925 20.8126 16.9869C21.3467 16.9835 21.8536 16.8275 22.3386 16.6049C22.372 16.5844 22.3962 16.5511 22.4061 16.5122C22.4159 16.4733 22.4106 16.432 22.3912 16.3971C22.3709 16.3631 22.3388 16.3384 22.3014 16.3283C22.2641 16.3182 22.2244 16.3233 22.1906 16.3427V16.343Z" fill="#211715"/>
<path d="M24.2697 13.2311C24.4354 13.1199 24.6807 13.1715 24.7628 13.3421C24.7966 13.4371 24.8108 13.5384 24.8042 13.6395C24.7992 13.7692 24.7747 13.8973 24.7316 14.0191C24.6578 14.2327 24.5272 14.4203 24.3548 14.5602C24.2047 14.6754 23.9459 14.7606 23.757 14.6677C23.7232 14.6485 23.6836 14.6434 23.6463 14.6535C23.6089 14.6636 23.5768 14.6882 23.5564 14.7221C23.5372 14.757 23.5319 14.7983 23.5417 14.8372C23.5516 14.8761 23.5758 14.9094 23.6091 14.93C23.7232 14.9801 23.846 15.0054 23.97 15.0042C24.094 15.003 24.2163 14.9753 24.3295 14.9229C24.5573 14.8136 24.7462 14.633 24.8696 14.4066C24.9963 14.194 25.073 13.9536 25.0936 13.7046C25.1118 13.4845 25.0828 13.2432 24.9374 13.0716C24.7413 12.8399 24.3656 12.8047 24.1217 12.9685C23.9639 13.0743 24.1107 13.3373 24.2697 13.2307V13.2311Z" fill="#211715"/>
<path d="M14.7011 23.3979C14.6086 23.4454 14.527 23.513 14.4619 23.596C14.3967 23.6789 14.3495 23.7754 14.3234 23.8789C14.3289 24.3463 14.7351 25.858 14.9229 26.3371C15.0613 26.6778 15.2476 26.9953 15.4757 27.2795C15.5894 27.4186 15.7287 27.533 15.8855 27.6159C16.0423 27.6988 16.2134 27.7486 16.3889 27.7624C16.9213 27.7887 17.6824 27.2837 17.8629 26.8627L17.9848 26.5784C18.027 27.012 18.068 27.4486 18.1059 27.8743H25.8502C26.1012 27.8512 26.3447 27.7741 26.5652 27.6479C26.9877 27.4034 27.2965 26.966 27.4511 26.5102C27.7957 25.4949 27.824 23.6289 27.8464 22.8172C27.8735 22.0182 27.8361 21.2181 27.7347 20.4255C27.683 20.0332 27.5588 19.5343 27.3747 19.1931C27.1728 18.8192 26.7716 18.3839 26.5593 18.1997C26.0608 17.7669 25.3539 17.4125 24.5538 17.1177C23.7036 17.8704 22.625 18.2897 21.5065 18.3021C21.1264 18.3135 20.7484 18.241 20.3974 18.0895C20.0299 17.9226 19.7299 17.6285 19.5487 17.2577C19.4611 17.2805 19.3172 17.319 19.2562 17.3376C18.6096 17.5345 17.7505 17.8994 17.2769 18.346L14.7011 23.3979Z" fill="white"/>
<path d="M5.67801 15.1153L3.578 15.0284L2.13733 14.0357C2.24729 11.8703 2.36239 10.1034 2.57352 9.3753C2.63232 9.16083 2.74876 8.96808 2.90927 8.81951C3.04006 8.70983 3.18158 8.61466 3.33153 8.53555C3.71714 8.34269 4.6357 7.92889 5.04623 7.73072L5.26953 7.62298C5.41703 9.25853 6.08509 10.6049 6.63359 11.8984C6.84063 11.5131 7.02735 11.1164 7.19294 10.7101C7.41286 10.1688 7.73586 9.22193 7.83439 8.94404C7.98128 8.49169 8.08999 8.02699 8.1593 7.55518C8.26303 7.59124 8.34418 7.61888 8.34418 7.61888C8.76571 7.82138 9.64175 8.19251 10.0609 8.40207C10.2043 8.4673 10.3356 8.55804 10.4489 8.67017C10.5584 8.78686 10.6448 8.92466 10.7031 9.07577C10.9982 9.873 11.0442 10.2798 11.3276 11.0592C11.4125 10.7656 11.4938 10.475 11.5799 10.1687C12.0226 10.3216 12.8709 10.6074 13.1986 10.697C13.0539 11.4393 12.914 12.2361 12.6808 12.989C12.5187 13.512 12.2749 14.0095 11.7786 14.2038C11.5931 14.2799 11.3932 14.3111 11.1943 14.2949C10.9954 14.2788 10.8026 14.2158 10.6308 14.1108C10.2963 13.909 9.89899 13.4388 9.69644 13.2335C9.67547 13.4316 9.79475 14.5622 9.84929 15.2884L5.67801 15.1153Z" fill="white"/>
<path d="M5.18668 3.06385C5.15549 3.11253 5.11808 3.15662 5.07547 3.1949C4.99681 3.26324 4.88765 3.31153 4.80136 3.37515C4.73963 3.41834 4.68753 3.4747 4.64855 3.54045C4.60957 3.6062 4.58461 3.67983 4.57535 3.75638C4.56069 3.86063 4.54955 3.98902 4.54046 4.14179C4.50565 4.10648 4.46341 4.08 4.41706 4.06444C4.37071 4.04889 4.32151 4.04467 4.27332 4.05212C4.25474 4.05495 4.23647 4.05966 4.21878 4.06617C4.13379 3.77263 4.09467 3.46691 4.10288 3.16058C4.12598 2.47058 4.40916 1.81742 4.89173 1.34111C5.3743 0.864796 6.01783 0.603253 6.68438 0.612544C7.26762 0.605081 7.83589 0.803778 8.29542 1.17585C8.76342 1.54835 9.22541 2.17748 9.26603 3.16058C9.27629 3.43897 9.24491 3.71732 9.173 3.98576L9.15313 4.06822C9.13341 4.06071 9.113 4.05531 9.09221 4.05212C9.04353 4.04453 8.99381 4.04894 8.94709 4.06499C8.90036 4.08105 8.85796 4.1083 8.82332 4.14452C8.77757 3.92897 8.75001 3.76185 8.71731 3.64249C8.66841 3.46536 8.64092 3.33878 8.57634 3.14897C8.51923 2.98102 8.51219 2.86439 8.14873 2.82499C8.0502 2.81436 7.89596 2.81314 7.79626 2.81306C7.5904 2.81306 7.38455 2.81307 7.17885 2.81739C7.04087 2.82577 6.90244 2.82068 6.76538 2.80221C6.54744 2.76424 6.37369 2.65552 6.17701 2.58126C5.98032 2.507 5.71215 2.47284 5.54574 2.57579C5.4851 2.61725 5.43461 2.67275 5.39825 2.7379L5.21497 3.0205C5.20588 3.03477 5.19643 3.0492 5.18668 3.06385Z" fill="#85807F"/>
<path d="M10.8424 14.6987C10.7548 14.7863 10.6649 14.8713 10.5719 14.9527C10.543 14.9717 10.5202 14.9991 10.5064 15.0316C10.4925 15.064 10.4883 15.1 10.4943 15.1349C10.5012 15.1835 10.5099 15.2318 10.5175 15.2804C10.5468 15.4662 10.575 15.6522 10.6022 15.8383C10.6621 16.2509 10.7176 16.6643 10.7753 17.0772L10.9907 16.9057C10.6523 16.73 10.3146 16.553 9.97904 16.3713C9.83091 16.291 9.68326 16.2098 9.53611 16.1277C9.46534 16.0882 9.39472 16.0485 9.32424 16.0086C9.25042 15.9669 9.15798 15.8913 9.07433 15.8796C8.98446 15.867 8.86342 15.938 8.77765 15.966C8.67502 15.9995 8.57146 16.0301 8.46697 16.0577C8.28428 16.1063 8.09974 16.1464 7.91334 16.178C7.51605 16.2436 7.11409 16.2741 6.71181 16.2691C5.22363 16.2575 3.69338 15.8686 2.484 14.9414C1.51211 14.1825 0.818033 13.1041 0.515583 11.8831C0.349345 11.2135 0.275935 10.5228 0.297562 9.83174C0.30818 9.10669 0.421805 8.38721 0.634784 7.69644C1.05101 6.38198 1.87223 5.2453 2.97239 4.46088C3.1061 4.36684 3.24324 4.27841 3.3838 4.19559C3.54757 4.09864 3.4 3.83615 3.23579 3.93334C2.15299 4.57711 1.27754 5.53729 0.718942 6.69375C0.136209 7.90297 -0.0716951 9.27793 0.0213341 10.6204C0.105566 11.8363 0.469179 13.0388 1.18174 14.0198C1.92517 15.0435 2.97833 15.7589 4.14804 16.1556C4.85713 16.3899 5.59295 16.5262 6.33646 16.5611C7.07872 16.607 7.82341 16.5361 8.54512 16.3507C8.73083 16.3014 8.91376 16.2429 9.09391 16.1753L8.98094 16.1601C9.59454 16.5101 10.2165 16.843 10.8426 17.1682C10.8679 17.1823 10.8966 17.1886 10.9252 17.1862C10.9539 17.1838 10.9812 17.1729 11.004 17.1547C11.0268 17.1366 11.044 17.112 11.0536 17.084C11.0631 17.0559 11.0647 17.0256 11.058 16.9967C10.9675 16.3487 10.8811 15.7002 10.7769 15.0543L10.7393 15.2021C10.8461 15.1098 10.9496 15.0137 11.0496 14.9135C11.1856 14.7775 10.9782 14.5629 10.8423 14.6988L10.8424 14.6987Z" fill="#211715"/>
<path d="M9.92274 4.40626C10.8935 5.05149 11.6649 5.97203 12.145 7.05832C12.1649 7.09286 12.197 7.11793 12.2345 7.12811C12.2721 7.1383 12.312 7.13278 12.3456 7.11276C12.3785 7.09182 12.4024 7.05853 12.4122 7.01983C12.422 6.98113 12.417 6.94001 12.3982 6.90502C11.8933 5.77313 11.0855 4.81497 10.0707 4.14416C9.91123 4.03862 9.76395 4.3014 9.92274 4.40641V4.40626Z" fill="#211715"/>
<path d="M15.1947 8.19429C15.189 8.18549 15.1855 8.17529 15.1846 8.16468C15.1856 8.15427 15.1888 8.1442 15.1939 8.13515C15.2095 8.10242 15.2184 8.06671 15.22 8.03025C15.2216 7.99379 15.2159 7.95738 15.2033 7.92331C15.1825 7.86173 15.1519 7.81838 15.0467 7.77685C14.9583 7.74207 14.8809 7.74063 14.7388 7.81177C14.7022 7.70828 14.5183 7.63372 14.4142 7.64952C14.3149 7.67258 14.2202 7.71324 14.1342 7.76971C13.7603 7.97471 13.0594 8.31897 12.7097 8.36771C12.7699 8.16505 12.8008 7.95427 12.8014 7.74222C12.8011 7.7118 12.7948 7.68175 12.783 7.65389C12.7712 7.62602 12.7541 7.60091 12.7327 7.58004C12.7112 7.55741 12.6842 7.54128 12.6545 7.53336C12.6247 7.52544 12.5935 7.52604 12.5641 7.53509C12.5036 7.56578 12.4532 7.61434 12.4192 7.67465C12.2675 7.96217 12.1316 8.2583 12.012 8.56163C11.8815 8.89738 11.9122 9.25014 11.9779 9.60464C11.9747 9.64564 11.9706 9.69849 11.9706 9.69849C11.9633 9.78618 11.8852 10.0915 11.8415 10.2584C12.2154 10.3856 12.6985 10.547 13.0122 10.6424C13.0598 10.466 13.1319 10.177 13.1724 10.0622C13.1827 10.0243 13.2015 9.98955 13.2272 9.96059C13.2522 9.93942 13.281 9.92355 13.312 9.91389C13.8645 9.69325 14.8315 9.10906 15.1022 8.79017C15.1267 8.76125 15.1418 8.72497 15.145 8.68659C15.1483 8.64822 15.1397 8.60976 15.1204 8.57682C15.1705 8.52958 15.2048 8.46699 15.2182 8.39818C15.2315 8.32937 15.2233 8.25794 15.1947 8.19429Z" fill="white"/>
<path d="M11.9614 10.3804C12.0058 10.2117 12.0508 10.0429 12.0879 9.8722C12.1035 9.8009 12.1144 9.72857 12.1205 9.65573C12.1322 9.51268 12.0821 9.36067 12.0727 9.21649C12.0606 9.07339 12.0689 8.92924 12.0973 8.78864C12.1331 8.64924 12.1817 8.51374 12.2426 8.38402C12.2912 8.2712 12.3433 8.16004 12.3973 8.04994C12.4427 7.93936 12.4967 7.83273 12.5586 7.73105C12.5773 7.7047 12.5993 7.67107 12.6288 7.68792C12.6712 7.71214 12.6536 7.79688 12.6519 7.83378C12.6442 8.00149 12.6161 8.16752 12.5682 8.32791C12.5315 8.44993 12.6449 8.53026 12.7485 8.51469C13.0942 8.46276 13.4328 8.28972 13.7462 8.13847C13.9019 8.06331 14.0558 7.98427 14.208 7.90135C14.2845 7.85937 14.3801 7.78655 14.4719 7.80121C14.5003 7.80357 14.5277 7.81272 14.5521 7.82794C14.5764 7.84315 14.5971 7.86402 14.6123 7.8889C14.6324 7.92309 14.6646 7.94787 14.702 7.95804C14.7394 7.9682 14.7791 7.96296 14.8129 7.94342C14.9028 7.90044 15.0909 7.88169 15.0728 8.03537C15.0665 8.08851 15.0346 8.12868 15.0407 8.1854C15.045 8.22541 15.0689 8.25829 15.0756 8.29739C15.0808 8.32905 15.0781 8.36155 15.0678 8.39182C15.0574 8.42209 15.0398 8.44912 15.0165 8.47035C14.9942 8.49444 14.9799 8.52533 14.9758 8.55846C14.9716 8.59159 14.9779 8.62522 14.9936 8.6544C15.0156 8.69996 14.9203 8.76525 14.8933 8.79016C14.8325 8.84551 14.7687 8.89646 14.7027 8.94543C14.5209 9.08111 14.3302 9.20411 14.1365 9.32043C13.9407 9.43804 13.7407 9.54882 13.5362 9.64905C13.4525 9.69012 13.3676 9.72885 13.2818 9.7643C13.2221 9.784 13.1678 9.81839 13.1237 9.86452C13.0796 9.91065 13.0469 9.96715 13.0284 10.0292C12.9545 10.2418 12.9104 10.4659 12.8485 10.6822C12.7948 10.87 13.0777 10.9502 13.1312 10.763C13.1899 10.5588 13.235 10.3506 13.2986 10.148C13.3039 10.1145 13.3206 10.084 13.3458 10.0622C13.3949 10.0362 13.4461 10.0145 13.4988 9.99732C13.5946 9.95496 13.689 9.90932 13.7824 9.86164C14.2063 9.65176 14.6086 9.39796 14.9832 9.10412C15.0558 9.04824 15.124 8.98633 15.187 8.91901C15.2396 8.86555 15.274 8.79574 15.2848 8.7202C15.2956 8.64466 15.2822 8.56754 15.2468 8.50057L15.2239 8.68462C15.3796 8.52851 15.3949 8.32533 15.326 8.12435V8.20506C15.3852 8.01524 15.3762 7.80219 15.197 7.68405C15.023 7.5694 14.8429 7.59544 14.6649 7.68063L14.8655 7.73515C14.7841 7.54844 14.5262 7.46622 14.3454 7.50866C14.2325 7.54401 14.1245 7.59428 14.024 7.65824C13.9378 7.70485 13.8509 7.75018 13.7634 7.79422C13.4221 7.96635 13.0505 8.16429 12.6706 8.22139L12.8509 8.40817C12.9011 8.2365 12.9319 8.05936 12.9425 7.88032C12.9527 7.7227 12.9448 7.57836 12.8264 7.46371C12.7683 7.40898 12.6927 7.37857 12.6142 7.37842C12.5358 7.37826 12.46 7.40837 12.4018 7.46287C12.3001 7.55232 12.2491 7.68382 12.1892 7.80364C12.0499 8.08403 11.8903 8.38273 11.8177 8.69054C11.7789 8.86268 11.7658 9.03994 11.7788 9.21618C11.7892 9.37495 11.8353 9.53447 11.8236 9.6927C11.8223 9.71131 11.8259 9.67957 11.826 9.67919C11.8244 9.69058 11.8225 9.70197 11.8203 9.7132C11.8155 9.73925 11.8101 9.76529 11.8046 9.79118C11.7912 9.85253 11.7765 9.91358 11.7615 9.97455C11.7347 10.083 11.7065 10.1912 11.678 10.2994C11.6283 10.4881 11.9111 10.5687 11.9608 10.3801L11.9614 10.3804Z" fill="#211715"/>
<path d="M5.4566 6.83218C5.45883 6.92153 5.45665 7.01094 5.45008 7.10005C5.44957 7.10582 5.44561 7.1387 5.44964 7.10947C5.44832 7.11873 5.44693 7.12799 5.44532 7.13726C5.4418 7.15753 5.43747 7.17773 5.43219 7.19754C5.42933 7.20832 5.42574 7.2188 5.42281 7.22951C5.41497 7.2576 5.42589 7.22457 5.42589 7.22457C5.42823 7.22715 5.40727 7.2576 5.40558 7.26041C5.394 7.27947 5.41189 7.2551 5.41174 7.25282C5.41174 7.25737 5.39803 7.2696 5.39532 7.27271C5.38425 7.28562 5.37267 7.29799 5.36079 7.31007C5.33352 7.33778 5.30464 7.3639 5.27509 7.38911C5.26615 7.39675 5.25713 7.40434 5.24804 7.41189C5.24496 7.41439 5.22048 7.43406 5.238 7.42024C5.22018 7.43436 5.20222 7.4481 5.18412 7.46177C5.1446 7.49161 5.10443 7.52054 5.06396 7.54893C5.0304 7.5693 5.00603 7.60264 4.99621 7.64162C4.98639 7.6806 4.99192 7.72203 5.01158 7.75678C5.03125 7.79154 5.06344 7.81678 5.10108 7.82696C5.13871 7.83713 5.17871 7.8314 5.21227 7.81103C5.37135 7.69927 5.54787 7.58006 5.65908 7.41371C5.70682 7.32897 5.73446 7.2337 5.73972 7.13574C5.74959 7.03485 5.75304 6.93339 5.75006 6.83203C5.75006 6.79176 5.73461 6.75313 5.70712 6.72465C5.67962 6.69617 5.64233 6.68018 5.60344 6.68018C5.56456 6.68018 5.52726 6.69617 5.49977 6.72465C5.47227 6.75313 5.45682 6.79176 5.45682 6.83203L5.4566 6.83218Z" fill="#211715"/>
<path d="M7.62985 6.84198C7.62699 6.94117 7.63052 7.04045 7.64041 7.13916C7.64525 7.23787 7.67407 7.33371 7.7242 7.41781C7.8415 7.58159 8.0225 7.6951 8.18715 7.80117C8.2208 7.82113 8.26067 7.82661 8.29819 7.81643C8.3357 7.80625 8.36785 7.78122 8.38772 7.74673C8.40656 7.71178 8.41162 7.67063 8.40182 7.6319C8.39202 7.59318 8.36813 7.55988 8.33516 7.53899C8.25503 7.48736 8.17718 7.43269 8.10057 7.3759C8.07858 7.3598 8.10512 7.38015 8.09324 7.37021C8.08657 7.36466 8.07982 7.3592 8.07315 7.35358C8.05754 7.34044 8.04222 7.327 8.02726 7.31303C8.01509 7.30172 8.00322 7.29025 7.99178 7.27795C7.98386 7.26953 7.96979 7.24576 7.95989 7.2409C7.96495 7.24333 7.97705 7.26816 7.96788 7.25062C7.96495 7.24515 7.96136 7.23916 7.95799 7.23384C7.94538 7.2138 7.96671 7.23885 7.96084 7.24212C7.96084 7.24212 7.95351 7.21934 7.95278 7.21759C7.94645 7.19638 7.94121 7.17484 7.93709 7.15305C7.93533 7.14409 7.93394 7.13513 7.9324 7.12618C7.92507 7.08343 7.93299 7.14349 7.9313 7.11858C7.92514 7.02626 7.92258 6.93492 7.92316 6.84228C7.92316 6.80201 7.90772 6.76338 7.88022 6.73491C7.85272 6.70643 7.81543 6.69043 7.77655 6.69043C7.73766 6.69043 7.70037 6.70643 7.67287 6.73491C7.64537 6.76338 7.62993 6.80201 7.62993 6.84228L7.62985 6.84198Z" fill="#211715"/>
<path d="M11.4685 11.0183C11.224 10.3421 11.0952 9.61772 10.8126 8.95677C10.6676 8.61761 10.4004 8.40106 10.0842 8.24632C9.82656 8.12013 9.56375 8.00457 9.30218 7.88802C9.00675 7.75644 8.70984 7.62774 8.41793 7.48796C8.38409 7.46877 8.34445 7.46373 8.30713 7.47387C8.26982 7.48401 8.23767 7.50856 8.21728 7.54248C8.19797 7.57733 8.19267 7.61865 8.20252 7.65751C8.21237 7.69638 8.23657 7.72967 8.26992 7.75021C8.77685 7.99318 9.29624 8.20578 9.80486 8.44556C9.92896 8.50065 10.0497 8.56343 10.1666 8.63355C10.3043 8.72146 10.4187 8.84347 10.4995 8.98859C10.5845 9.1584 10.6523 9.33683 10.7019 9.52106C10.7527 9.67816 10.7995 9.83662 10.8445 9.99561C10.9497 10.3667 11.0547 10.7367 11.1858 11.0991C11.197 11.1373 11.2219 11.1697 11.2555 11.1895C11.289 11.2093 11.3286 11.215 11.3661 11.2054C11.4035 11.1944 11.4352 11.1687 11.4544 11.1338C11.4736 11.0988 11.4788 11.0574 11.4688 11.0186L11.4685 11.0183Z" fill="#211715"/>
<path d="M4.97225 7.59977C4.55292 7.80182 4.12839 7.99224 3.70694 8.1895C3.26708 8.39542 2.77701 8.59951 2.53934 9.06532C2.36267 9.41185 2.31993 9.83287 2.27037 10.2157C2.20351 10.732 2.16092 11.2515 2.12375 11.7708C2.06958 12.5252 2.02926 13.2806 1.99085 14.0359C1.98095 14.2313 2.27418 14.2306 2.28408 14.0359C2.34463 12.8454 2.39793 11.6501 2.53333 10.4656C2.56439 10.1177 2.62337 9.77299 2.70964 9.43516C2.77714 9.18912 2.92758 8.9763 3.13366 8.83534C3.32133 8.70978 3.51947 8.60187 3.7257 8.51287C4.18968 8.29382 4.65819 8.0851 5.12048 7.86233C5.15381 7.84178 5.178 7.80848 5.18784 7.76961C5.19767 7.73075 5.19236 7.68944 5.17304 7.65459C5.15282 7.6205 5.12068 7.59581 5.08332 7.58565C5.04595 7.5755 5.00625 7.58067 4.97247 7.60008L4.97225 7.59977Z" fill="#211715"/>
<path d="M3.7246 15.0286C3.76243 14.5755 3.8073 14.1229 3.84028 13.6695C3.86116 13.3996 3.85475 13.1282 3.82115 12.8597C3.73523 12.1736 3.59749 11.4975 3.4884 10.8154C3.41311 10.3446 3.35366 9.86994 3.26444 9.4014C3.22779 9.20983 2.94526 9.29092 2.98162 9.48218C3.05918 9.88938 3.11306 10.3014 3.17655 10.7111C3.23072 11.0603 3.29567 11.4078 3.3563 11.756C3.41619 12.0998 3.47257 12.4444 3.51882 12.7907C3.55596 13.0391 3.56824 13.2907 3.55548 13.5417C3.52425 14.0381 3.47242 14.5332 3.43085 15.0288C3.41458 15.2235 3.70796 15.2224 3.72409 15.0288L3.7246 15.0286Z" fill="#211715"/>
<path d="M6.75271 7.88991H6.6198C6.59379 7.86655 6.56353 7.84882 6.5308 7.83775C6.07292 7.64694 5.6909 7.35599 5.52354 7.12305C5.41306 7.22793 5.32328 7.35402 5.25919 7.49433C5.38227 9.18842 6.07101 10.5715 6.63388 11.8989C6.84082 11.5135 7.02744 11.1168 7.19293 10.7105C7.41286 10.1692 7.73586 9.22236 7.83438 8.94446C7.98944 8.46584 8.1019 7.97353 8.17036 7.47368C8.10789 7.34141 8.02183 7.22257 7.91671 7.12343C7.74942 7.35637 7.36741 7.64732 6.90952 7.83813C6.87677 7.8492 6.84649 7.86693 6.82045 7.89029L6.75271 7.88991Z" fill="#5394CF"/>
<path d="M10.0939 9.49579C9.99194 10.3223 9.86834 11.143 9.72736 11.9634C9.6663 12.3186 9.60567 12.6749 9.56608 13.0335C9.54457 13.3064 9.54928 13.5808 9.58016 13.8527C9.61879 14.3314 9.66622 14.8094 9.70244 15.2883C9.7171 15.4819 10.0103 15.4836 9.99568 15.2883C9.96335 14.8613 9.92237 14.4352 9.8863 14.0085C9.86211 13.7221 9.82398 13.4287 9.84862 13.1411C9.90653 12.4663 10.0612 11.8013 10.1655 11.1334C10.2505 10.5893 10.3195 10.0428 10.3871 9.49609C10.387 9.45588 10.3714 9.41737 10.344 9.38894C10.3165 9.3605 10.2794 9.34444 10.2405 9.34424C10.2019 9.34524 10.1652 9.36156 10.1379 9.38982C10.1106 9.41809 10.0949 9.45613 10.0939 9.49609V9.49579Z" fill="#211715"/>
<path d="M8.02183 7.48556C7.93986 8.04425 7.80392 8.59299 7.61607 9.12354C7.42972 9.65814 7.24806 10.1968 7.03114 10.7192C6.87462 11.0961 6.69751 11.4626 6.5069 11.8221C6.41607 11.9936 6.66914 12.147 6.76011 11.9754C7.07167 11.3812 7.34236 10.7649 7.57018 10.1312C7.74964 9.63939 7.94471 9.14366 8.08268 8.63715C8.17866 8.28557 8.25278 7.92798 8.30459 7.56658C8.31365 7.52775 8.30808 7.48681 8.28901 7.45209C8.26994 7.41737 8.23881 7.39149 8.20195 7.37972C8.16444 7.36931 8.12447 7.37463 8.09072 7.39453C8.05696 7.41442 8.03213 7.4473 8.02161 7.48602L8.02183 7.48556Z" fill="#211715"/>
<path d="M5.11293 7.50467C5.20823 8.75223 5.62279 9.91482 6.10817 11.05C6.23719 11.3517 6.36952 11.652 6.49795 11.9539C6.51776 11.9885 6.54991 12.0136 6.58745 12.0238C6.62498 12.034 6.66489 12.0285 6.69853 12.0084C6.73139 11.9874 6.75519 11.9541 6.76499 11.9154C6.77479 11.8767 6.76984 11.8356 6.75116 11.8006C6.30046 10.741 5.81156 9.69365 5.56253 8.55808C5.486 8.2113 5.43374 7.85925 5.40616 7.50467C5.3915 7.31113 5.09827 7.30946 5.11293 7.50467Z" fill="#211715"/>
<path d="M8.60361 11.335C8.54913 11.3246 8.49749 11.302 8.4523 11.2688C8.25436 11.1224 8.23684 10.8274 8.28889 10.6003C8.30261 10.5364 8.32916 10.4762 8.36681 10.4237C8.40447 10.3711 8.45238 10.3274 8.50744 10.2953C8.5625 10.2632 8.62347 10.2435 8.68638 10.2374C8.74929 10.2313 8.81273 10.239 8.87258 10.26C9.13583 10.3346 9.21574 10.638 9.16933 10.8894C9.11963 11.1597 8.9159 11.3962 8.60361 11.335Z" fill="white"/>
<path d="M8.64262 11.1884C8.61728 11.184 8.59262 11.1761 8.56931 11.1649C8.55948 11.1593 8.55017 11.1533 8.5405 11.1475C8.50135 11.1239 8.55076 11.1619 8.52305 11.134C8.51323 11.1241 8.50362 11.1136 8.49373 11.1037C8.47511 11.0854 8.48588 11.0953 8.49072 11.1017C8.47156 11.0755 8.45547 11.047 8.44278 11.0169C8.45304 11.0405 8.44358 11.0186 8.44219 11.0139C8.43808 11.0003 8.43339 10.9869 8.42965 10.9732C8.4236 10.95 8.4187 10.9265 8.41499 10.9028C8.42034 10.9356 8.41375 10.8887 8.41345 10.8855C8.41228 10.871 8.41152 10.8564 8.41118 10.8417C8.41039 10.8126 8.41102 10.7834 8.41309 10.7543C8.41404 10.7398 8.41536 10.7255 8.41697 10.7111C8.41624 10.7176 8.41221 10.7388 8.41749 10.7089C8.42181 10.6845 8.42562 10.66 8.43215 10.6359C8.43435 10.6272 8.43677 10.6185 8.43948 10.61C8.44138 10.604 8.44366 10.5982 8.44556 10.5922C8.45253 10.5706 8.45861 10.5893 8.44102 10.6025C8.45634 10.591 8.47115 10.5411 8.48229 10.5233C8.48962 10.5113 8.5196 10.4792 8.4905 10.5092C8.50516 10.4941 8.51704 10.4772 8.53177 10.4625C8.53764 10.4567 8.54409 10.4515 8.54981 10.4455C8.57319 10.4214 8.5229 10.462 8.55157 10.4439C8.56623 10.4345 8.58016 10.4244 8.59555 10.4159C8.60244 10.4121 8.63485 10.3991 8.59958 10.4127C8.60831 10.4093 8.61696 10.4059 8.62576 10.403C8.63455 10.4001 8.64408 10.3974 8.65339 10.3954C8.66138 10.3935 8.71021 10.3886 8.67392 10.3907C8.69575 10.3891 8.71765 10.3886 8.73953 10.3892C8.74166 10.3892 8.78726 10.3935 8.75742 10.3892C8.77003 10.3909 8.78264 10.3936 8.7951 10.3963C8.82211 10.4018 8.84863 10.4096 8.87435 10.4198C8.84972 10.4096 8.8764 10.4213 8.88219 10.425C8.89531 10.4331 8.90844 10.4408 8.92119 10.4497C8.89531 10.4316 8.92779 10.456 8.93123 10.4594C8.93739 10.4653 8.9434 10.4715 8.9492 10.4778C8.95227 10.4811 8.97779 10.5145 8.95851 10.4873C8.96584 10.4979 8.97317 10.5088 8.97955 10.52C8.9846 10.5288 9.01048 10.5838 8.99883 10.5546C9.00863 10.5795 9.0166 10.6052 9.02265 10.6313C9.0258 10.6445 9.028 10.6579 9.03079 10.6712C9.03995 10.7138 9.02998 10.6413 9.03277 10.685C9.03416 10.7078 9.03585 10.7306 9.03585 10.7533C9.03585 10.7761 9.03401 10.7989 9.03269 10.8217C9.03013 10.8656 9.03944 10.7925 9.03101 10.8353C9.02742 10.8533 9.02426 10.8715 9.01987 10.8895C9.01314 10.9164 9.00494 10.9429 8.99531 10.9689C9.00506 10.9425 8.99465 10.9704 8.99149 10.977C8.98416 10.9912 8.97764 11.0056 8.9695 11.0194C8.9629 11.0312 8.95594 11.0428 8.94861 11.054C8.9467 11.057 8.9209 11.0902 8.94025 11.0665C8.92213 11.0886 8.90254 11.1094 8.8816 11.1286C8.86357 11.1452 8.90954 11.1108 8.87567 11.1334C8.861 11.1431 8.84693 11.1529 8.83168 11.1613C8.83256 11.1608 8.79437 11.1792 8.81379 11.1709C8.8278 11.1648 8.78623 11.1799 8.78139 11.1814C8.76827 11.1851 8.75507 11.188 8.74173 11.1907C8.77142 11.1848 8.72846 11.1915 8.72494 11.1918C8.71028 11.1925 8.69562 11.1925 8.68096 11.1918C8.67084 11.1913 8.66072 11.1905 8.65068 11.1895C8.66395 11.1916 8.66131 11.1911 8.64291 11.1878C8.60542 11.1783 8.56583 11.184 8.53228 11.2038C8.49872 11.2235 8.47375 11.2559 8.4625 11.2941C8.4525 11.333 8.45766 11.3743 8.47686 11.4093C8.49606 11.4443 8.52777 11.47 8.56513 11.481C8.71426 11.5141 8.86998 11.489 9.00227 11.4103C9.11629 11.3361 9.20558 11.2275 9.25812 11.099C9.36808 10.8362 9.35577 10.5083 9.17315 10.2827C9.07853 10.1784 8.95255 10.1105 8.81582 10.09C8.67908 10.0695 8.53968 10.0977 8.42042 10.1699C8.34269 10.2228 8.2768 10.2923 8.22718 10.3738C8.17756 10.4553 8.14536 10.5468 8.13275 10.6423C8.10366 10.8024 8.11631 10.9676 8.16941 11.121C8.20128 11.2104 8.25417 11.2901 8.32329 11.353C8.39241 11.4159 8.47558 11.46 8.56528 11.4812C8.60277 11.4909 8.64244 11.4853 8.67603 11.4655C8.70962 11.4457 8.73455 11.4132 8.74562 11.3749C8.75543 11.336 8.75014 11.2947 8.73088 11.2599C8.71162 11.225 8.67993 11.1993 8.64262 11.1884Z" fill="#211715"/>
<path d="M8.99758 10.1901C9.06598 9.68208 9.08073 9.1678 9.04157 8.65642C9.00147 8.23191 8.91284 7.74864 8.60061 7.44159C8.46374 7.30712 8.25606 7.52154 8.39329 7.65638C8.66454 7.92319 8.72751 8.3701 8.75529 8.73782C8.78488 9.22227 8.76791 9.70857 8.70464 10.1895C8.70487 10.2297 8.72039 10.2682 8.74784 10.2967C8.77528 10.3251 8.81244 10.3412 8.85126 10.3414C8.88985 10.3405 8.92662 10.3241 8.95392 10.2959C8.98122 10.2676 8.99696 10.2295 8.99787 10.1895L8.99758 10.1901Z" fill="#211715"/>
<path d="M4.75584 9.72565C4.73744 9.31929 4.70181 8.90799 4.73671 8.50155C4.76347 8.18987 4.8551 7.89299 5.07884 7.67395C5.21615 7.53925 5.00854 7.32468 4.87152 7.45915C4.28864 8.03065 4.42888 8.9802 4.46261 9.72595C4.4714 9.92055 4.76471 9.92169 4.75584 9.72595V9.72565Z" fill="#211715"/>
<path d="M14.445 8.52866C14.3269 8.58811 14.2124 8.6547 14.0958 8.71688C14.0394 8.74688 13.9824 8.7755 13.9243 8.80185C13.9536 8.78856 13.9191 8.80397 13.9127 8.80663C13.897 8.81316 13.8813 8.81946 13.8654 8.82538C13.8335 8.83753 13.8012 8.84816 13.7685 8.85818C13.731 8.86889 13.6992 8.89458 13.6799 8.92962C13.6607 8.96465 13.6557 9.00616 13.6661 9.045C13.6764 9.08385 13.7012 9.11685 13.7351 9.13675C13.7689 9.15665 13.809 9.16181 13.8465 9.15111C14.112 9.07078 14.3461 8.91528 14.593 8.79091C14.6264 8.77044 14.6507 8.73714 14.6605 8.69824C14.6703 8.65934 14.665 8.61799 14.6455 8.58318C14.6252 8.54916 14.5931 8.52453 14.5558 8.51438C14.5184 8.50423 14.4788 8.50934 14.445 8.52866Z" fill="#211715"/>
<path d="M14.4341 8.11577C14.2558 8.19352 14.0829 8.28455 13.9063 8.36572C13.8244 8.40368 13.7428 8.44165 13.6611 8.47961C13.6214 8.49791 13.5817 8.51621 13.5419 8.5342C13.5233 8.54263 13.5046 8.5509 13.486 8.55926C13.4693 8.56685 13.4808 8.56138 13.4908 8.55721C13.4817 8.561 13.4727 8.5648 13.4636 8.56882C13.4267 8.58053 13.3955 8.60639 13.3764 8.64111C13.3574 8.67583 13.3518 8.71679 13.3609 8.7556C13.3714 8.79435 13.3962 8.82725 13.43 8.84715C13.4638 8.86705 13.5038 8.87235 13.5413 8.8619C13.706 8.7922 13.8674 8.71453 14.0299 8.63959C14.1096 8.60291 14.1896 8.56768 14.2683 8.52911C14.3148 8.50634 14.361 8.48303 14.4076 8.4601C14.4302 8.44893 14.4528 8.43777 14.4756 8.42684L14.5009 8.41484C14.5042 8.41332 14.5449 8.3951 14.5125 8.40922C14.5493 8.39741 14.5804 8.37152 14.5995 8.33681C14.6185 8.30211 14.6241 8.26119 14.6151 8.22237C14.6046 8.18363 14.5797 8.15074 14.546 8.13084C14.5122 8.11094 14.4722 8.10564 14.4347 8.11607L14.4341 8.11577Z" fill="#211715"/>
<path d="M13.2799 8.74303C13.4523 8.89154 13.6174 9.04846 13.7753 9.21377C13.7888 9.22828 13.805 9.23985 13.8229 9.24781C13.8408 9.25576 13.86 9.25995 13.8795 9.26013C13.8989 9.2603 13.9182 9.25646 13.9363 9.24883C13.9543 9.24119 13.9706 9.22991 13.9844 9.21566C13.9982 9.2014 14.0091 9.18444 14.0164 9.16578C14.0238 9.14712 14.0275 9.12712 14.0273 9.10696C14.0272 9.0868 14.0231 9.06687 14.0154 9.04834C14.0078 9.02982 13.9966 9.01306 13.9826 8.99905C13.8249 8.83383 13.6597 8.67692 13.4872 8.5283C13.4591 8.50081 13.4222 8.485 13.3835 8.48389C13.3545 8.48389 13.3262 8.4928 13.3021 8.50949C13.278 8.52618 13.2592 8.54989 13.2481 8.57763C13.237 8.60538 13.2341 8.6359 13.2397 8.66536C13.2454 8.69481 13.2594 8.72187 13.2799 8.7431V8.74303Z" fill="#211715"/>
<path d="M10.9903 12.1695C11.2232 11.4443 11.3896 10.845 11.5797 10.1689C12.0224 10.3218 12.8707 10.6077 13.1983 10.6972C13.0537 11.4395 12.9138 12.2363 12.6806 12.9892C12.5185 13.5122 12.2746 14.0097 11.7784 14.204C11.5929 14.2801 11.393 14.3113 11.1941 14.2952C10.9951 14.279 10.8024 14.216 10.6305 14.111C10.334 13.932 9.98806 13.5422 9.77202 13.313" fill="white"/>
<path d="M11.1318 12.2099C11.3439 11.548 11.5328 10.8789 11.7211 10.2094L11.5407 10.3157C12.0765 10.5006 12.6135 10.6935 13.1594 10.8439L13.0568 10.6571C12.97 11.1027 12.8882 11.5493 12.789 11.9922C12.7052 12.4134 12.5891 12.8269 12.4419 13.2289C12.3203 13.5373 12.1391 13.8388 11.8503 14.0034C11.6821 14.0965 11.4945 14.1458 11.3037 14.1468C11.113 14.1479 10.9249 14.1008 10.7557 14.0096C10.4108 13.8212 10.1438 13.4912 9.87546 13.2058C9.7435 13.0655 9.53633 13.2804 9.66814 13.4206C9.93454 13.7039 10.1974 14.0116 10.5243 14.2223C10.7109 14.3414 10.9207 14.4159 11.1386 14.4403C11.3565 14.4647 11.5769 14.4384 11.7837 14.3633C12.5833 14.0716 12.8165 13.1333 13.0023 12.3713C13.1339 11.8313 13.2334 11.2838 13.3395 10.7381C13.3491 10.6993 13.3437 10.6581 13.3246 10.6233C13.3054 10.5885 13.274 10.5627 13.2369 10.5513C12.691 10.4009 12.154 10.2079 11.6182 10.0231C11.5807 10.0129 11.5409 10.0184 11.5072 10.0382C11.4735 10.0581 11.4486 10.0908 11.4379 10.1294C11.2496 10.7988 11.0607 11.468 10.8486 12.1298C10.789 12.3158 11.072 12.3956 11.1313 12.2106L11.1318 12.2099Z" fill="#211715"/>
<path d="M4.63078 12.0324C4.6192 12.0289 4.60879 11.9945 4.6104 12.0194C4.60857 11.9937 4.67448 11.9591 4.67118 11.982C4.67118 11.9828 4.64185 11.9358 4.6431 11.9379C4.62016 11.8732 4.60464 11.806 4.59684 11.7376C4.56679 11.5857 4.53819 11.4339 4.51298 11.2811C4.45479 10.9719 4.43105 10.6568 4.44223 10.3421C4.44956 10.2115 4.46533 10.0401 4.57162 9.9527C4.61446 9.91794 4.66668 9.89785 4.72104 9.89523C4.7754 9.8926 4.8292 9.90757 4.87498 9.93805C4.99601 10.0064 5.04908 10.1279 5.09769 10.2569C5.15644 10.4174 5.20517 10.5816 5.24357 10.7486C5.28756 10.9314 5.32201 11.1164 5.35134 11.3024C5.36703 11.4021 5.38125 11.5022 5.39459 11.6024C5.40023 11.6445 5.40735 11.6869 5.40984 11.7294C5.40812 11.7488 5.40812 11.7683 5.40984 11.7877L5.41094 11.7936C5.48747 11.7702 5.51022 11.7898 5.47919 11.8525C5.64523 11.7595 5.49737 11.4972 5.33118 11.5903C5.0779 11.7321 5.24783 12.1684 5.52383 12.071C5.80241 11.9727 5.68387 11.5598 5.65227 11.3436C5.61467 11.0717 5.56145 10.8023 5.4929 10.5369C5.42919 10.2981 5.3575 10.0165 5.20105 9.82317C5.1296 9.73558 5.03699 9.66918 4.93267 9.63075C4.82835 9.59232 4.71606 9.58324 4.60725 9.60442C4.37266 9.66235 4.23074 9.86143 4.18045 10.0959C4.07532 10.5855 4.18426 11.1285 4.27436 11.6119C4.31416 11.8257 4.333 12.2118 4.59215 12.2692C4.9227 12.3427 5.02086 11.8346 4.70878 11.7397C4.52734 11.6845 4.44986 11.9775 4.63086 12.0326L4.63078 12.0324Z" fill="#211715"/>
<path d="M6.48689 12.5734C6.4973 13.161 6.48249 13.7488 6.49283 14.3364C6.49628 14.5316 6.78959 14.5323 6.78607 14.3364C6.77573 13.7488 6.79054 13.161 6.78013 12.5734C6.77668 12.3782 6.48345 12.3776 6.48689 12.5734Z" fill="#211715"/>
<path d="M7.61681 8.78983C7.83801 8.52119 8.03104 8.22897 8.19265 7.91811C8.23204 7.84091 8.26962 7.76279 8.3054 7.68372C8.3355 7.63675 8.35126 7.58148 8.35063 7.52511C8.33947 7.47856 8.32083 7.43429 8.2955 7.39413C8.22454 7.25299 8.13147 7.12501 8.02008 7.01541C8.00398 6.99951 7.98465 6.98753 7.9635 6.98035C7.94236 6.97318 7.91994 6.97098 7.89787 6.97393C7.8758 6.97687 7.85465 6.98489 7.83595 6.99739C7.81726 7.00988 7.8015 7.02655 7.78982 7.04616C7.6746 7.18676 7.53929 7.30828 7.3886 7.40651C7.28948 7.47413 7.18668 7.53576 7.0807 7.59109C6.97198 7.6365 6.86561 7.68771 6.76202 7.74454C6.5396 7.89374 6.77874 8.09638 6.88951 8.21582C7.06435 8.40442 7.2466 8.59029 7.41 8.78983C7.43765 8.818 7.47488 8.83379 7.51366 8.83379C7.55244 8.83379 7.58967 8.818 7.61732 8.78983C7.6441 8.76095 7.65905 8.72247 7.65905 8.68243C7.65905 8.64239 7.6441 8.60391 7.61732 8.57503C7.48536 8.41361 7.33662 8.26806 7.19777 8.11316C7.13912 8.04772 7.08048 7.98257 7.01956 7.91963C7.00233 7.90194 6.98532 7.88409 6.96824 7.86648C6.96238 7.86048 6.95725 7.8538 6.95153 7.84765C6.98144 7.88007 6.95886 7.85775 6.94574 7.8333L6.96575 7.90991L6.96751 7.88963L6.92462 7.997C6.91436 8.00808 6.96179 7.97885 6.97425 7.97315C7.01091 7.95653 7.04756 7.94134 7.08422 7.92464C7.14125 7.89847 7.19745 7.87063 7.25283 7.84112C7.36472 7.78155 7.47291 7.71481 7.57678 7.64128C7.75426 7.52103 7.91184 7.37192 8.04346 7.19968L7.8132 7.23044C7.92378 7.34375 8.01423 7.47634 8.08041 7.62214V7.46862C7.90548 7.8667 7.67999 8.23879 7.40993 8.57503C7.38337 8.60402 7.36856 8.64246 7.36856 8.68243C7.36856 8.72239 7.38344 8.76084 7.41 8.78983C7.43763 8.81786 7.47469 8.83357 7.51337 8.83357C7.55204 8.83357 7.58918 8.81786 7.61681 8.78983Z" fill="#211715"/>
<path d="M6.03025 8.57503C5.76017 8.23879 5.53466 7.8667 5.3597 7.46862V7.62192C5.4259 7.47613 5.51635 7.34354 5.62691 7.23021L5.39664 7.19946C5.52829 7.37169 5.6859 7.52081 5.8634 7.64105C5.96725 7.71456 6.07542 7.7813 6.18728 7.84089C6.24275 7.8705 6.29896 7.89834 6.35589 7.92441C6.39255 7.94111 6.4292 7.9563 6.46586 7.97293C6.47832 7.97862 6.52575 8.00785 6.51556 7.99677L6.47319 7.88963L6.47502 7.90991L6.49503 7.8333C6.48536 7.85129 6.45105 7.88591 6.48917 7.84765C6.4833 7.85349 6.47839 7.86055 6.47253 7.86648C6.45706 7.88166 6.4421 7.89791 6.42686 7.91363C6.36374 7.97847 6.30318 8.04559 6.2427 8.11316C6.10393 8.26806 5.95519 8.41368 5.82316 8.57503C5.7966 8.60402 5.78179 8.64246 5.78179 8.68243C5.78179 8.72239 5.7966 8.76084 5.82316 8.78983C5.85081 8.81801 5.88806 8.8338 5.92685 8.8338C5.96565 8.8338 6.00289 8.81801 6.03055 8.78983C6.19373 8.59029 6.37591 8.4045 6.55104 8.21582C6.66181 8.09638 6.90153 7.89411 6.67853 7.74454C6.57482 7.68764 6.4683 7.63642 6.35941 7.59109C6.2534 7.53582 6.15059 7.47419 6.05151 7.40651C5.90079 7.30829 5.76546 7.18677 5.65022 7.04616C5.63854 7.02655 5.62278 7.00988 5.60408 6.99739C5.58539 6.98489 5.56423 6.97687 5.54217 6.97393C5.5201 6.97098 5.49768 6.97318 5.47653 6.98035C5.45539 6.98753 5.43606 6.99951 5.41996 7.01541C5.3111 7.1222 5.21984 7.24672 5.14981 7.38404C5.12639 7.42203 5.10704 7.46256 5.09212 7.50491C5.08397 7.56323 5.09703 7.6226 5.12877 7.6715C5.16641 7.75461 5.20582 7.83681 5.24702 7.91811C5.40866 8.22896 5.60169 8.52117 5.82286 8.78983C5.85052 8.81801 5.88776 8.8338 5.92656 8.8338C5.96535 8.8338 6.0026 8.81801 6.03025 8.78983C6.057 8.76093 6.07193 8.72246 6.07193 8.68243C6.07193 8.6424 6.057 8.60392 6.03025 8.57503Z" fill="#211715"/>
<path d="M7.56549 12.2228L8.18795 11.5513C8.21546 11.5228 8.23091 11.4842 8.23091 11.4439C8.23091 11.4036 8.21546 11.365 8.18795 11.3365C8.16045 11.308 8.12315 11.292 8.08426 11.292C8.04537 11.292 8.00807 11.308 7.98056 11.3365L7.3581 12.0081C7.3306 12.0365 7.31516 12.0752 7.31517 12.1154C7.31518 12.1557 7.33063 12.1943 7.35813 12.2228C7.38563 12.2513 7.42293 12.2673 7.46182 12.2673C7.5007 12.2673 7.538 12.2513 7.56549 12.2228Z" fill="#211715"/>
<path d="M8.63513 5.19667C8.61507 5.31427 8.58045 5.4287 8.53213 5.53713C8.51989 5.5675 8.50831 5.59787 8.49709 5.62885C8.48925 5.65018 8.51175 5.59741 8.49335 5.63682C8.48859 5.64707 8.48404 5.6574 8.4792 5.66765C8.41105 5.80912 8.33178 5.94455 8.2422 6.07257C8.03891 6.36868 7.76144 6.69069 7.40647 6.77709C7.2232 6.82174 7.30062 7.11467 7.48447 7.06995C7.90461 6.96775 8.22819 6.60633 8.4729 6.25874C8.57052 6.12258 8.65658 5.97793 8.73014 5.82641C8.81959 5.65447 8.88303 5.46933 8.91825 5.27746C8.92728 5.23864 8.92169 5.19773 8.90262 5.16303C8.88356 5.12834 8.85245 5.10246 8.81562 5.09068C8.7781 5.08024 8.73813 5.08555 8.70437 5.10545C8.6706 5.12535 8.64578 5.15824 8.63528 5.19697L8.63513 5.19667Z" fill="#211715"/>
<path d="M4.43629 5.1709C4.52111 5.6249 4.71417 6.04974 4.99791 6.40677C5.28646 6.77 5.67969 7.08176 6.13882 7.1545C6.1763 7.1639 6.21583 7.15814 6.24934 7.13839C6.28285 7.11863 6.30783 7.08638 6.31916 7.0482C6.32919 7.00934 6.32405 6.96794 6.30485 6.93297C6.28564 6.898 6.25391 6.87227 6.21653 6.86134C5.80123 6.79559 5.46592 6.52013 5.20486 6.19182C4.95693 5.87208 4.78986 5.49338 4.71875 5.08996C4.68327 4.89825 4.40059 4.97941 4.43593 5.17067L4.43629 5.1709Z" fill="#211715"/>
<path d="M8.184 0.909974C7.79645 0.657616 7.35561 0.506319 6.89925 0.469042C6.44289 0.431764 5.9846 0.509619 5.56365 0.695935C5.22367 0.851997 4.91827 1.07871 4.66635 1.36202C4.41444 1.64533 4.22139 1.9792 4.09915 2.34295C3.92635 2.88748 3.91132 3.47251 4.0559 4.0258C4.10282 4.21493 4.38579 4.13475 4.33865 3.94501C4.13911 3.14064 4.28792 2.27036 4.82205 1.63682C5.21617 1.17502 5.75673 0.874393 6.34612 0.789221C6.93551 0.704049 7.53487 0.839948 8.03599 1.17238C8.19544 1.27799 8.34272 1.01521 8.184 0.910126V0.909974Z" fill="#211715"/>
<path d="M9.31442 4.02616C9.45166 3.48698 9.44192 2.91894 9.28627 2.38515C9.1571 1.96196 8.92903 1.57836 8.62231 1.26841C8.48728 1.13174 8.27974 1.34624 8.415 1.48321C8.68646 1.75547 8.88865 2.09308 9.00352 2.46593C9.14537 2.94673 9.15512 3.45894 9.03167 3.94515C8.98651 4.13497 9.26919 4.2159 9.31442 4.02593V4.02616Z" fill="#211715"/>
<path d="M8.94135 4.23688C8.95934 4.2222 8.98009 4.21156 9.00228 4.20564C9.02446 4.19971 9.04759 4.19864 9.07019 4.20248C9.0928 4.20632 9.11438 4.215 9.13357 4.22795C9.15276 4.24091 9.16914 4.25786 9.18166 4.27773C9.20452 4.33599 9.21435 4.39886 9.21039 4.46162C9.21251 4.53582 9.2074 4.61005 9.19515 4.68318C9.17065 4.82999 9.11929 4.9706 9.04384 5.09744C9.01208 5.15218 8.97178 5.20108 8.92456 5.24215C8.91021 5.25855 8.89157 5.27028 8.8709 5.27592C8.85024 5.28155 8.82844 5.28085 8.80815 5.27389C8.62561 5.22348 8.54775 5.5164 8.73022 5.56682C8.96334 5.63121 9.14596 5.47571 9.27307 5.28817C9.39526 5.09795 9.47101 4.87983 9.49381 4.65258C9.51873 4.44112 9.51815 4.17318 9.35291 4.01942C9.26705 3.9419 9.15688 3.89942 9.04299 3.89991C8.92909 3.9004 8.81926 3.94383 8.73403 4.02208C8.70681 4.05072 8.69155 4.08929 8.69155 4.12948C8.69155 4.16967 8.70681 4.20824 8.73403 4.23688C8.76193 4.26456 8.79906 4.28001 8.83769 4.28001C8.87632 4.28001 8.91346 4.26456 8.94135 4.23688Z" fill="#211715"/>
<path d="M4.63159 4.02191C4.54631 3.94376 4.4365 3.9004 4.32264 3.89991C4.20877 3.89942 4.09862 3.94183 4.01272 4.01925C3.84301 4.17718 3.84704 4.45385 3.87402 4.66972C3.89894 4.89847 3.97843 5.1172 4.1053 5.30621C4.2366 5.49277 4.43241 5.65107 4.66663 5.59762C4.6852 5.59232 4.70257 5.58328 4.71777 5.57102C4.73296 5.55876 4.74567 5.54352 4.75518 5.52617C4.76468 5.50882 4.7708 5.48971 4.77317 5.46991C4.77554 5.45012 4.77413 5.43003 4.76901 5.4108C4.76389 5.39157 4.75516 5.37358 4.74332 5.35784C4.73148 5.34211 4.71677 5.32894 4.70002 5.3191C4.68327 5.30925 4.66481 5.30292 4.6457 5.30046C4.62659 5.298 4.6072 5.29947 4.58863 5.30477C4.48871 5.32755 4.3819 5.19141 4.33359 5.11609C4.25357 4.98807 4.1989 4.84486 4.17275 4.69477C4.15983 4.62288 4.15392 4.54983 4.15508 4.47671C4.14973 4.40886 4.15978 4.34066 4.18441 4.27755C4.19692 4.25769 4.21329 4.24074 4.23247 4.22778C4.25166 4.21483 4.27323 4.20615 4.29583 4.20231C4.31843 4.19847 4.34156 4.19954 4.36373 4.20546C4.38591 4.21138 4.40665 4.22202 4.42464 4.2367C4.45265 4.26418 4.48976 4.27949 4.52833 4.27949C4.56691 4.27949 4.60402 4.26418 4.63203 4.2367C4.65922 4.20805 4.67446 4.16948 4.67446 4.1293C4.67446 4.08913 4.65922 4.05056 4.63203 4.02191H4.63159Z" fill="#211715"/>
<path d="M6.31491 5.95712C6.44877 6.02907 6.59791 6.06509 6.74868 6.0619C6.90802 6.06818 7.06481 6.01908 7.19411 5.92243C7.20773 5.90832 7.21853 5.89158 7.2259 5.87315C7.23328 5.85472 7.23707 5.83497 7.23707 5.81503C7.23707 5.79508 7.23328 5.77533 7.2259 5.7569C7.21853 5.73847 7.20773 5.72173 7.19411 5.70763C7.16604 5.68027 7.12895 5.66504 7.09041 5.66504C7.05187 5.66504 7.01478 5.68027 6.98671 5.70763C7.0373 5.66685 6.984 5.70763 6.96795 5.71605C6.95556 5.72281 6.92206 5.73352 6.96795 5.71757C6.95607 5.72175 6.94456 5.72691 6.93261 5.73086C6.91795 5.73587 6.90234 5.74012 6.88694 5.74384C6.86898 5.74581 6.85121 5.74929 6.83379 5.75425C6.84845 5.74756 6.85703 5.75136 6.83482 5.75364C6.82507 5.75463 6.81539 5.75546 6.80549 5.75614C6.78211 5.75774 6.75872 5.75835 6.73526 5.75819C6.7143 5.75819 6.69333 5.75741 6.67237 5.75584C6.66259 5.75518 6.65299 5.75435 6.64355 5.75334C6.63813 5.7528 6.63263 5.7522 6.62721 5.75144C6.6157 5.74999 6.61988 5.7506 6.64004 5.75326C6.63168 5.75744 6.60206 5.74627 6.59275 5.74407C6.57765 5.74068 6.56265 5.73666 6.54774 5.732C6.53484 5.72798 6.52223 5.72319 6.50947 5.71871C6.47626 5.70687 6.5399 5.7339 6.50947 5.71909C6.49364 5.71135 6.478 5.70327 6.46255 5.69487C6.42906 5.67598 6.38977 5.67135 6.35303 5.68197C6.31629 5.69259 6.28499 5.71762 6.26578 5.75174C6.24657 5.78587 6.24095 5.82641 6.25012 5.86476C6.2593 5.9031 6.28254 5.93623 6.31491 5.95712Z" fill="#211715"/>
<path d="M6.65645 4.92276C6.67553 4.99404 6.6908 5.06635 6.7022 5.13938L6.69677 5.09906C6.69814 5.10897 6.69841 5.119 6.69758 5.12897L6.70286 5.08858C6.70218 5.09315 6.7011 5.09765 6.69963 5.10202L6.71429 5.06573C6.71306 5.06878 6.71151 5.07168 6.70967 5.07438L6.73262 5.04363C6.73061 5.04622 6.72832 5.04856 6.7258 5.05062L6.75549 5.02693C6.75016 5.0303 6.74463 5.03331 6.73893 5.03596L6.77389 5.02078C6.76493 5.02469 6.75556 5.02752 6.74596 5.02921L6.78496 5.02374C6.77627 5.0248 6.76749 5.0248 6.75879 5.02374L6.79772 5.02913C6.78782 5.02769 6.77815 5.02518 6.7684 5.02381C6.74943 5.01749 6.72917 5.01657 6.70975 5.02116C6.69035 5.02203 6.67152 5.02825 6.65521 5.03915C6.62164 5.05948 6.59724 5.09279 6.58739 5.13175C6.57753 5.1707 6.58302 5.21212 6.60264 5.24689C6.61191 5.26407 6.62446 5.27911 6.63952 5.29111C6.65458 5.3031 6.67184 5.3118 6.69025 5.31667C6.7162 5.32031 6.74156 5.32707 6.76788 5.32828C6.80928 5.32843 6.85009 5.31813 6.88679 5.29829C6.91066 5.28661 6.93176 5.26963 6.94858 5.24856C6.96541 5.22748 6.97755 5.20283 6.98414 5.17635C6.99288 5.13453 6.99253 5.09122 6.98312 5.04955C6.97175 4.9797 6.95621 4.91053 6.93913 4.84205C6.92863 4.80393 6.90455 4.77137 6.87176 4.75093C6.83752 4.73063 6.79691 4.72517 6.75879 4.73575C6.72192 4.74644 6.69048 4.77154 6.67111 4.80575C6.65196 4.84138 6.64672 4.88325 6.65645 4.92276Z" fill="#211715"/>
<path d="M5.59861 4.3041C5.56533 4.41617 5.58703 4.67402 5.792 4.69596C6.06325 4.69422 6.07739 4.38254 5.9862 4.236C5.9115 4.11603 5.69194 4.06615 5.59861 4.3041Z" fill="#211715"/>
<path d="M7.85404 4.3041C7.88739 4.41617 7.86569 4.67402 7.66072 4.69596C7.38948 4.69422 7.37533 4.38254 7.46653 4.236C7.54116 4.11603 7.76079 4.06615 7.85404 4.3041Z" fill="#211715"/>
<path d="M6.57501 4.41071C6.60483 4.40307 6.63503 4.39709 6.66547 4.3928L6.62647 4.39826C6.69493 4.38935 6.76421 4.38956 6.83261 4.39887L6.79369 4.3934C6.83173 4.39892 6.86935 4.40717 6.90629 4.41808C6.92485 4.42338 6.94425 4.42485 6.96336 4.42239C6.98247 4.41993 7.00093 4.4136 7.01768 4.40375C7.03443 4.39391 7.04914 4.38074 7.06098 4.36501C7.07282 4.34927 7.08154 4.33128 7.08667 4.31205C7.09179 4.29282 7.0932 4.27273 7.09083 4.25294C7.08846 4.23314 7.08234 4.21403 7.07283 4.19668C7.06333 4.17933 7.05062 4.16409 7.03542 4.15183C7.02023 4.13957 7.00286 4.13053 6.98429 4.12523C6.82529 4.07882 6.65735 4.0762 6.49708 4.11764C6.45975 4.12863 6.42809 4.15436 6.40889 4.1893C6.3897 4.22423 6.38451 4.26556 6.39445 4.30442C6.4054 4.34285 6.43031 4.37538 6.46393 4.3952C6.49756 4.41502 6.53729 4.42058 6.57479 4.41071H6.57501Z" fill="#211715"/>
<path d="M5.11455 4.0733C5.04425 4.05648 4.97219 4.04883 4.90005 4.05052C4.8613 4.05121 4.82425 4.06711 4.79639 4.09502C4.77022 4.12438 4.75499 4.16244 4.75343 4.20238C4.75343 4.24265 4.76888 4.28128 4.79638 4.30976C4.82387 4.33823 4.86117 4.35423 4.90005 4.35423C4.93858 4.353 4.97715 4.35501 5.01537 4.36023L4.97637 4.35484C4.9966 4.35773 5.01666 4.36147 5.03655 4.36608C5.05552 4.3724 5.07577 4.37331 5.0952 4.36874C5.11458 4.36787 5.13338 4.36165 5.14967 4.35074C5.16638 4.34156 5.18053 4.32809 5.19079 4.31164C5.20372 4.29708 5.21277 4.27929 5.21704 4.26001C5.22216 4.24076 5.22356 4.22066 5.22117 4.20086C5.21878 4.18105 5.21264 4.16193 5.20311 4.14458C5.19358 4.12723 5.18084 4.112 5.16562 4.09976C5.1504 4.08751 5.13299 4.0785 5.11441 4.07323L5.11455 4.0733Z" fill="#211715"/>
<path d="M8.421 4.36624C8.44085 4.36163 8.46091 4.35789 8.48119 4.355L8.44219 4.36039C8.48041 4.35517 8.51897 4.35316 8.55751 4.35439C8.57713 4.35529 8.59663 4.35078 8.61403 4.34133C8.6402 4.32943 8.66257 4.31005 8.67852 4.28548C8.69448 4.26091 8.70336 4.23214 8.70412 4.20254C8.70397 4.1623 8.68854 4.12373 8.66116 4.09518C8.63313 4.06755 8.59619 4.05169 8.55751 4.05069C8.52749 4.04966 8.49745 4.05065 8.46756 4.05365C8.42566 4.05756 8.38404 4.06416 8.34293 4.07339C8.32432 4.07781 8.30714 4.08718 8.29308 4.10057C8.27719 4.1112 8.26419 4.12586 8.25533 4.14316C8.24479 4.16003 8.23879 4.17951 8.23795 4.19958C8.23353 4.2197 8.23442 4.24068 8.24052 4.26032C8.25078 4.29858 8.27495 4.33124 8.30796 4.35143L8.34293 4.36662C8.36846 4.37383 8.3954 4.37383 8.42093 4.36662L8.421 4.36624Z" fill="#211715"/>
<path d="M7.64686 4.84025C7.53927 4.84172 7.43299 4.81581 7.33734 4.76478C7.32935 4.75985 7.28038 4.72242 7.3001 4.73973C7.27992 4.72197 7.2611 4.70263 7.2438 4.68187C7.24036 4.67785 7.2276 4.65909 7.24234 4.6805C7.23466 4.66937 7.22733 4.65795 7.22034 4.64626C7.21455 4.63639 7.20913 4.62629 7.204 4.61589C7.20128 4.61057 7.18259 4.56707 7.19329 4.59455C7.15241 4.4971 7.13567 4.39062 7.14462 4.28477C7.14286 4.31104 7.14381 4.28834 7.14462 4.28242C7.14733 4.26852 7.15085 4.25501 7.15473 4.24142C7.16661 4.19988 7.14139 4.2642 7.16038 4.22623C7.16441 4.21796 7.16873 4.20968 7.17335 4.20171C7.19531 4.16807 7.22304 4.13889 7.25517 4.11561C7.35396 4.0549 7.46593 4.02095 7.58073 4.0169C7.71431 4.00464 7.84883 4.0239 7.97418 4.07324C8.01013 4.09117 8.04408 4.11311 8.07542 4.13869C8.08422 4.14696 8.12168 4.19001 8.1079 4.17134C8.12427 4.19375 8.13811 4.21803 8.14917 4.24369C8.13825 4.21849 8.1499 4.24681 8.15173 4.25364C8.15481 4.26518 8.15841 4.27642 8.16104 4.28826C8.16163 4.29085 8.16874 4.33769 8.16522 4.30626C8.1664 4.31636 8.16698 4.32661 8.16742 4.33663C8.16854 4.36956 8.16754 4.40254 8.16442 4.43533C8.16442 4.43799 8.1609 4.46517 8.1639 4.44376C8.16097 4.46472 8.15657 4.48567 8.15195 4.50625C8.14518 4.53624 8.13608 4.56562 8.12476 4.5941C8.13355 4.57269 8.12344 4.59562 8.12182 4.59888C8.11325 4.61642 8.10408 4.63373 8.09389 4.65036C8.09558 4.64763 8.06941 4.68703 8.08099 4.67094C8.08671 4.66334 8.06054 4.69539 8.05599 4.70032C8.04617 4.71103 8.03583 4.72105 8.02528 4.73069C8.00328 4.75089 8.03613 4.72477 8.00966 4.7439C7.90197 4.81621 7.7743 4.8498 7.64634 4.8395C7.45757 4.83684 7.4575 5.14055 7.64634 5.1432C7.97579 5.14784 8.28149 5.00471 8.40751 4.67451C8.52033 4.37922 8.45883 4.03558 8.19653 3.85396C8.05196 3.764 7.88697 3.71532 7.71833 3.71289C7.53504 3.69944 7.35135 3.73248 7.18318 3.80916C7.04341 3.87353 6.93394 3.99261 6.87872 4.14036C6.83788 4.28794 6.83969 4.44468 6.88393 4.59121C6.92208 4.75295 7.01372 4.89573 7.14293 4.99477C7.29265 5.09516 7.46802 5.14686 7.64634 5.1432C7.83563 5.14989 7.83541 4.84618 7.64686 4.84025Z" fill="#211715"/>
<path d="M5.7994 5.1436C5.9613 5.14225 6.12014 5.0978 6.26066 5.01452C6.38116 4.93384 6.47325 4.81498 6.52318 4.67566C6.5776 4.52938 6.59482 4.37107 6.57318 4.21592C6.55924 4.14111 6.5305 4.07011 6.48874 4.00738C6.44699 3.94465 6.39315 3.89157 6.3306 3.85147C6.18311 3.7595 6.01408 3.71123 5.84192 3.71192C5.66094 3.70262 5.48039 3.73761 5.3149 3.81404C5.17549 3.88027 5.06603 3.99951 5.0092 4.14705C4.96145 4.29319 4.95873 4.45109 5.00143 4.5989C5.04234 4.76389 5.13846 4.90848 5.27268 5.00693C5.42928 5.11014 5.61394 5.15809 5.79903 5.1436C5.98714 5.13676 5.9881 4.83306 5.79903 4.83989C5.73848 4.8434 5.67773 4.84002 5.61789 4.82979C5.59119 4.82431 5.56483 4.81721 5.53893 4.80853C5.51678 4.80225 5.49559 4.79279 5.47596 4.78044C5.43532 4.76115 5.39956 4.73235 5.3715 4.69631C5.36527 4.68925 5.35903 4.68196 5.35324 4.67452C5.37142 4.69783 5.3443 4.66025 5.34327 4.65865C5.32782 4.63415 5.31428 4.6084 5.30281 4.58166C5.31439 4.60892 5.29687 4.56321 5.2965 4.56215C5.29342 4.5525 5.29049 4.54279 5.28778 4.53299C5.27925 4.5028 5.27278 4.47202 5.26842 4.44089C5.26945 4.44811 5.2707 4.46458 5.26798 4.43277C5.26652 4.41614 5.26534 4.39944 5.2649 4.38273C5.2649 4.36975 5.26447 4.35676 5.2649 4.34371C5.2649 4.33702 5.27165 4.28767 5.26652 4.31698C5.27112 4.27653 5.28449 4.23769 5.30562 4.20334C5.32676 4.169 5.35512 4.14005 5.38858 4.11866C5.4869 4.05652 5.5991 4.02185 5.71422 4.01805C5.84918 4.0029 5.98569 4.02149 6.11228 4.07227C6.09762 4.06551 6.12123 4.07735 6.12181 4.07766C6.13582 4.08487 6.1496 4.09284 6.16301 4.10104C6.176 4.10898 6.18855 4.11765 6.20062 4.12701C6.19527 4.12268 6.18435 4.11228 6.20502 4.13172C6.21558 4.14159 6.2254 4.15199 6.2353 4.16254C6.26521 4.19451 6.22796 4.14971 6.24263 4.17074C6.24924 4.18026 6.25538 4.19011 6.26103 4.20028C6.2655 4.2084 6.26975 4.2166 6.27364 4.22503C6.26802 4.20985 6.26819 4.21071 6.27415 4.22761C6.27708 4.2365 6.27972 4.24546 6.28199 4.25457C6.28287 4.25821 6.28984 4.30331 6.28639 4.27059C6.2886 4.29662 6.28895 4.32278 6.28742 4.34887C6.28782 4.40148 6.28113 4.45389 6.26755 4.50459C6.26048 4.53529 6.25126 4.56541 6.23999 4.59472C6.24233 4.58872 6.25098 4.57088 6.23837 4.59707C6.23046 4.61363 6.22217 4.62987 6.21286 4.64559C6.20824 4.65318 6.20341 4.66078 6.1982 4.66837C6.18823 4.68257 6.18801 4.68356 6.1974 4.67034C6.1919 4.67733 6.18611 4.68424 6.18024 4.69092C6.17291 4.69927 6.16507 4.70747 6.157 4.71537C6.1529 4.71947 6.11793 4.74938 6.14043 4.73184C6.03989 4.80326 5.92058 4.84093 5.79867 4.83974C5.76003 4.84057 5.72321 4.85684 5.69588 4.88514C5.66856 4.91344 5.65285 4.95158 5.65205 4.99159C5.65238 5.03191 5.66803 5.07046 5.6956 5.09892C5.72318 5.12737 5.76048 5.14342 5.7994 5.1436Z" fill="#211715"/>
<path d="M4.68327 4.19952C4.69317 4.03074 4.68254 3.82034 4.75108 3.66272C4.83106 3.47875 5.04007 3.42506 5.17913 3.30244C5.34547 3.15568 5.42487 2.92858 5.56415 2.75835C5.67485 2.62289 5.88803 2.65486 6.03487 2.69427C6.23104 2.74696 6.40662 2.85865 6.60081 2.9181C6.8247 2.98643 7.05775 2.97056 7.28809 2.96707C7.51146 2.96366 7.73527 2.96115 7.95872 2.96646C8.04418 2.96608 8.12954 2.97276 8.21398 2.98643C8.24914 2.99221 8.28375 3.00115 8.31742 3.01316C8.35532 3.02789 8.31786 3.01126 8.34975 3.02835C8.35429 3.03078 8.38911 3.05651 8.3691 3.04103C8.40018 3.06502 8.40136 3.08658 8.41602 3.13047C8.44732 3.22355 8.47738 3.3171 8.50399 3.41185C8.56652 3.63683 8.61703 3.8621 8.66314 4.09117C8.70163 4.28243 8.98431 4.2015 8.9459 4.01046C8.90074 3.78625 8.85125 3.56606 8.79077 3.34572C8.75126 3.20146 8.71373 3.0203 8.63074 2.89365C8.52913 2.73853 8.35026 2.69821 8.18143 2.6768C7.95692 2.65716 7.73145 2.65209 7.50633 2.66162C7.25708 2.66276 6.98539 2.70201 6.74091 2.64264C6.52223 2.58949 6.32994 2.46041 6.11309 2.40172C5.91516 2.34857 5.68057 2.33057 5.4937 2.43277C5.28712 2.5456 5.18888 2.81089 5.05495 2.99615C4.98105 3.09835 4.87901 3.14505 4.77703 3.2111C4.66668 3.27772 4.57473 3.37264 4.51004 3.48672C4.39854 3.69635 4.40367 3.96681 4.39004 4.19952C4.3786 4.39473 4.67191 4.39405 4.68327 4.19952Z" fill="#211715"/>
<path d="M17.3809 18.4527C17.7263 18.131 18.1676 17.9128 18.5953 17.7351C18.9432 17.593 19.3001 17.4755 19.6634 17.3835C19.8466 17.3359 19.7688 17.043 19.5854 17.0907C19.2029 17.1874 18.8277 17.3126 18.4626 17.4652C18.0043 17.6601 17.5448 17.8922 17.1735 18.238C17.0329 18.369 17.2408 18.5832 17.3809 18.4527Z" fill="#211715"/>
<path d="M17.4437 22.8643C17.6047 24.2461 17.7502 25.6299 17.8802 27.0155C17.9236 27.4726 17.9648 27.93 18.004 28.3876C18.0049 28.4275 18.0207 28.4656 18.048 28.4938C18.0753 28.5221 18.112 28.5384 18.1506 28.5394C18.1894 28.5391 18.2265 28.523 18.2539 28.4946C18.2813 28.4662 18.2969 28.4278 18.2972 28.3876C18.1674 26.8602 18.0122 25.3353 17.8441 23.8118C17.8093 23.4959 17.7736 23.18 17.737 22.8643C17.7358 22.8244 17.72 22.7864 17.6927 22.7582C17.6655 22.73 17.6289 22.7136 17.5903 22.7124C17.5515 22.7126 17.5144 22.7287 17.4869 22.7571C17.4595 22.7856 17.4439 22.8241 17.4437 22.8643Z" fill="#211715"/>
<path d="M14.6271 23.2662C14.5073 23.33 14.4034 23.4218 14.3237 23.5342C14.2404 23.6388 14.1894 23.7668 14.1771 23.9017C14.1862 24.0843 14.2117 24.2655 14.2534 24.4431C14.3446 24.9091 14.4653 25.3702 14.5998 25.825C14.7258 26.294 14.9244 26.7388 15.1879 27.142C15.3469 27.3929 15.5614 27.6007 15.8138 27.7481C16.0633 27.8879 16.3501 27.9396 16.6306 27.8956C16.9232 27.8388 17.2002 27.7164 17.4423 27.537C17.657 27.3839 17.8776 27.1891 17.9893 26.939C18.0078 26.9039 18.0127 26.8629 18.0029 26.8242C17.9931 26.7856 17.9694 26.7523 17.9367 26.7312C17.903 26.7112 17.8631 26.7057 17.8256 26.7159C17.7881 26.7261 17.7559 26.7512 17.7361 26.7857C17.6449 26.9669 17.5113 27.1216 17.3475 27.2357C17.1585 27.3829 16.9458 27.4941 16.7192 27.5643C16.2308 27.7077 15.7783 27.4552 15.4858 27.0517C15.2335 26.6934 15.0421 26.293 14.9201 25.8679C14.7937 25.4552 14.6829 25.0365 14.5893 24.6145C14.5647 24.5036 14.5415 24.3924 14.5209 24.2805C14.5054 24.1963 14.4872 24.0878 14.4806 24.026C14.4642 23.9494 14.4744 23.8694 14.5093 23.7998C14.5673 23.6819 14.6606 23.5868 14.7752 23.5286C14.9431 23.4393 14.7949 23.1771 14.6272 23.2663L14.6271 23.2662Z" fill="#211715"/>
<path d="M19.419 17.3274C19.5853 17.6683 19.8455 17.9505 20.1667 18.1381C20.5332 18.3401 20.9413 18.4475 21.3564 18.4512C22.1668 18.4739 22.9695 18.2827 23.6888 17.8956C23.995 17.7299 24.2847 17.5336 24.5539 17.3094C24.5812 17.2808 24.5965 17.2423 24.5965 17.2021C24.5965 17.1619 24.5812 17.1233 24.5539 17.0947C24.5259 17.0671 24.4888 17.0518 24.4502 17.0518C24.4116 17.0518 24.3745 17.0671 24.3466 17.0947C23.8493 17.5039 23.2784 17.8065 22.6671 17.985C22.3143 18.0864 21.9505 18.1416 21.5844 18.1494C21.2001 18.157 20.8 18.1169 20.4473 17.9467C20.1114 17.7884 19.8379 17.5158 19.6725 17.1741C19.5887 16.999 19.3357 17.1527 19.4193 17.3274H19.419Z" fill="#211715"/>
<path d="M24.1308 17.1286C25.3068 17.524 26.5595 18.0718 27.2218 19.2224C27.5598 19.8095 27.6203 20.5492 27.6686 21.2153C27.709 21.8834 27.7158 22.5531 27.6889 23.2219C27.673 23.7837 27.6489 24.3456 27.5958 24.9051C27.544 25.4513 27.4786 26.0222 27.2854 26.5375C27.0553 27.1514 26.5454 27.6275 25.9059 27.7158C25.5903 27.7606 25.269 27.7123 24.9788 27.5765C24.809 27.4897 24.6496 27.3826 24.5037 27.2576C24.1109 26.9255 23.739 26.5675 23.3905 26.1859C23.068 25.8426 22.7534 25.49 22.4533 25.1254C22.4051 25.0669 22.3576 25.0079 22.3107 24.9484C22.2831 24.9202 22.2459 24.9043 22.2071 24.9043C22.1682 24.9043 22.131 24.9202 22.1034 24.9484C22.0767 24.9773 22.0618 25.0158 22.0618 25.0558C22.0618 25.0958 22.0767 25.1343 22.1034 25.1632C22.3735 25.5076 22.6641 25.8357 22.9584 26.1578C23.3272 26.5701 23.7176 26.9611 24.1278 27.3289C24.2932 27.4791 24.4692 27.6163 24.6543 27.7394C24.9144 27.9029 25.2078 28.0011 25.511 28.0261C25.8517 28.0551 26.1938 27.9918 26.5038 27.8425C26.8137 27.6932 27.0808 27.463 27.2789 27.1744C27.6277 26.6809 27.7439 26.0597 27.8245 25.4661C27.9026 24.8549 27.9508 24.24 27.9691 23.6238C27.9924 23.0012 28.0123 22.3769 27.9906 21.754C27.9765 21.346 27.9447 20.9392 27.8953 20.5336C27.8571 20.1805 27.7803 19.8331 27.6665 19.498C27.458 18.9116 27.0361 18.3899 26.5623 18.0078C26.0224 17.5723 25.3893 17.2759 24.7509 17.0302C24.5717 16.9613 24.3909 16.897 24.209 16.8359C24.0291 16.7751 23.9524 17.0685 24.131 17.1287L24.1308 17.1286Z" fill="#211715"/>
<path d="M14.6352 18.9822C14.5056 18.5862 14.3528 18.097 14.2466 17.7286C14.2318 17.6768 14.2269 17.6225 14.2325 17.5689C14.238 17.5152 14.2538 17.4632 14.2789 17.4158C14.304 17.3685 14.3379 17.3268 14.3786 17.2932C14.4194 17.2595 14.4662 17.2346 14.5164 17.2198C15.1 17.0475 15.9452 16.8063 16.5071 16.6474C16.6052 16.6194 16.7101 16.632 16.7995 16.6825C16.8889 16.733 16.9559 16.8174 16.9864 16.918C17.2641 17.8303 17.8991 19.8891 18.1877 20.8126C18.2194 20.914 18.2115 21.0243 18.1656 21.1197C18.1198 21.2152 18.0397 21.2883 17.9424 21.3233C17.4936 21.486 16.7087 21.7537 16.5123 21.8208L14.6352 18.9822Z" fill="#B3B3B3"/>
<path d="M14.7765 18.9419C14.6438 18.5354 14.5126 18.1274 14.396 17.7154C14.3538 17.566 14.4033 17.4173 14.5554 17.3662C14.7314 17.3071 14.9126 17.2615 15.0906 17.2099C15.4703 17.1 15.8504 16.9911 16.2307 16.8834L16.4744 16.8142C16.5455 16.784 16.6243 16.7792 16.6982 16.8007C16.8294 16.8527 16.854 16.988 16.8919 17.112C17.2687 18.3465 17.6492 19.5799 18.0335 20.812C18.0836 20.9726 18.046 21.1198 17.8836 21.1845C17.715 21.2519 17.5401 21.3068 17.3685 21.3668C17.0704 21.4706 16.772 21.5734 16.4733 21.675C16.295 21.7358 16.3714 22.0294 16.5513 21.9679C16.8415 21.8687 17.1315 21.7689 17.4213 21.6684C17.5879 21.6104 17.7543 21.5522 17.9202 21.4925C18.1108 21.4242 18.2662 21.3117 18.3296 21.1035C18.3822 20.9307 18.3289 20.7725 18.2783 20.6088C18.233 20.4633 18.1877 20.3178 18.1426 20.1722C18.0326 19.8176 17.9228 19.4629 17.8133 19.108C17.6015 18.4221 17.3905 17.736 17.1805 17.0496C17.1277 16.8766 17.0822 16.7092 16.9351 16.5947C16.7706 16.4666 16.5871 16.4679 16.3969 16.5219C15.9884 16.6376 15.5801 16.7542 15.1721 16.8717C14.9487 16.9362 14.7249 16.9995 14.5023 17.0668C14.3948 17.0947 14.2979 17.1555 14.2242 17.2413C14.1505 17.3271 14.1034 17.4338 14.089 17.5476C14.0823 17.661 14.099 17.7746 14.138 17.8807C14.1736 18.0019 14.2099 18.1228 14.247 18.2434C14.327 18.5042 14.4094 18.7641 14.4941 19.0232C14.5542 19.2074 14.8375 19.1284 14.7768 18.9425L14.7765 18.9419Z" fill="#211715"/>
<path d="M14.976 18.6514C15.0164 18.6156 15.0633 18.5884 15.114 18.5714C15.1647 18.5545 15.2181 18.5481 15.2711 18.5527C15.3326 18.5578 15.3901 18.586 15.4328 18.6319C15.4756 18.6778 15.5007 18.7383 15.5034 18.8021C15.4967 18.901 15.4653 18.9964 15.4124 19.079C15.1362 19.5023 14.7976 20.0155 14.5457 20.3871C14.8516 20.1084 15.0676 19.8971 15.3594 19.7461C15.6405 19.5727 15.9571 19.4159 16.2512 19.3736C16.4 19.3522 16.5349 19.3778 16.599 19.4999C16.6312 19.5519 16.6477 19.6127 16.6464 19.6745C16.645 19.7363 16.6258 19.7963 16.5912 19.8467C16.5573 19.8931 16.52 19.9367 16.4796 19.9773C16.5383 19.9639 16.5994 19.9689 16.6553 19.9917C16.7112 20.0145 16.7592 20.054 16.7933 20.1052C16.8292 20.166 16.8445 20.2375 16.8366 20.3083C16.8288 20.3791 16.7982 20.4451 16.7499 20.4959C16.701 20.5521 16.6032 20.6343 16.5244 20.7091C16.6749 20.6344 16.8046 20.6053 16.9056 20.7337C16.9428 20.7907 16.9634 20.8575 16.965 20.9262C16.9667 20.9949 16.9493 21.0627 16.915 21.1215C16.7202 21.3569 16.5519 21.5494 16.3229 21.8212C16.5172 22.3593 16.5282 22.6669 16.4371 23.1727C16.4302 23.2338 16.4091 23.2924 16.3755 23.3432C16.1069 23.6417 15.6205 23.8912 15.231 23.8276C15.1589 23.8213 15.0906 23.7919 15.0354 23.7436C14.9512 23.6572 14.9563 23.5183 14.9518 23.3957C14.9293 22.7743 14.5581 22.4244 14.2318 21.9017C14.1667 21.7692 13.9135 21.4787 13.8544 21.1692C13.8216 20.9483 13.8175 20.7239 13.842 20.5019C13.8535 20.3163 13.9028 20.1354 13.9867 19.971C14.2714 19.5122 14.5936 19.0796 14.9498 18.678C14.9582 18.6686 14.9669 18.6597 14.976 18.6514Z" fill="white"/>
<path d="M14.9937 17.9308C15.1208 17.892 15.2482 17.854 15.3755 17.8159C15.4123 17.8049 15.4437 17.78 15.4635 17.7461C15.4782 17.7201 15.4851 17.69 15.4833 17.6599C15.4815 17.6297 15.471 17.6008 15.4532 17.5769C15.4354 17.5529 15.4111 17.535 15.3835 17.5254C15.3558 17.5158 15.326 17.515 15.2979 17.5231C15.1706 17.561 15.0432 17.599 14.916 17.6379C14.8795 17.649 14.8482 17.6739 14.8284 17.7077C14.8137 17.7338 14.8068 17.7638 14.8086 17.794C14.8105 17.8241 14.821 17.853 14.8387 17.877C14.8565 17.9009 14.8808 17.9189 14.9085 17.9284C14.9361 17.938 14.9659 17.9388 14.994 17.9308H14.9937Z" fill="#211715"/>
<path d="M14.6691 20.4767C14.834 20.3168 15.0078 20.1669 15.1896 20.0279C15.3735 19.8994 15.5672 19.7867 15.7688 19.691C15.8695 19.6413 15.974 19.6 16.0811 19.5674C16.1781 19.5304 16.2814 19.5146 16.3846 19.521C16.4143 19.5255 16.4416 19.5403 16.4621 19.563C16.4826 19.5857 16.495 19.6149 16.4974 19.6459C16.5126 19.7408 16.4332 19.8089 16.3757 19.8702C16.2442 20.0105 16.4513 20.2256 16.583 20.085C16.6847 19.9765 16.7781 19.8632 16.7913 19.7062C16.7992 19.5768 16.7575 19.4493 16.6752 19.3515C16.4905 19.1353 16.1547 19.2203 15.9274 19.2991C15.6496 19.4017 15.384 19.5367 15.1357 19.7015C14.8961 19.8683 14.6707 20.0557 14.4617 20.2619C14.3198 20.3915 14.5276 20.6056 14.669 20.4767L14.6691 20.4767Z" fill="#211715"/>
<path d="M15.231 20.941C15.368 20.8136 15.4988 20.6773 15.6441 20.56C15.8158 20.4251 16.0035 20.3137 16.2025 20.2285C16.295 20.1866 16.3911 20.1538 16.4896 20.1307C16.5211 20.1205 16.5548 20.1199 16.5866 20.1292C16.6183 20.1384 16.6468 20.157 16.6686 20.1828C16.7761 20.3408 16.5267 20.503 16.432 20.5909C16.2912 20.7218 16.4991 20.936 16.6393 20.8057C16.8323 20.6265 17.0668 20.4256 16.9609 20.1219C16.9411 20.0613 16.9087 20.0059 16.8659 19.9596C16.8232 19.9133 16.7711 19.8774 16.7135 19.8542C16.588 19.8107 16.4519 19.8131 16.3278 19.8609C16.0619 19.9423 15.8103 20.0675 15.5829 20.2317C15.3871 20.3849 15.2004 20.55 15.0237 20.7263C14.883 20.8572 15.0909 21.0714 15.231 20.941Z" fill="#211715"/>
<path d="M15.7622 21.5289C15.8776 21.3972 16.002 21.2742 16.1344 21.1608C16.2828 21.0196 16.4531 20.905 16.6381 20.8219C16.6704 20.8061 16.7056 20.7977 16.7414 20.7973C16.7215 20.7961 16.7673 20.8049 16.7639 20.8029C16.7725 20.8093 16.7806 20.8164 16.7882 20.8239C16.7854 20.8205 16.809 20.8613 16.8013 20.8431C16.8086 20.8615 16.8138 20.8808 16.8166 20.9005C16.8191 20.9284 16.8186 20.9564 16.8151 20.9841C16.813 21.0071 16.8028 21.0285 16.7865 21.0443C16.7584 21.0785 16.7298 21.1126 16.7013 21.1462C16.6435 21.2151 16.5854 21.2837 16.527 21.3519C16.3763 21.5287 16.2255 21.7054 16.0768 21.8839C16.0502 21.9129 16.0354 21.9513 16.0354 21.9913C16.0354 22.0313 16.0502 22.0697 16.0768 22.0987C16.1045 22.1268 16.1417 22.1426 16.1805 22.1426C16.2192 22.1426 16.2565 22.1268 16.2841 22.0987C16.4369 21.9154 16.592 21.7342 16.7465 21.5524C16.8129 21.4745 16.879 21.3963 16.9449 21.3178C17.0241 21.2408 17.0793 21.1411 17.1034 21.0314C17.1401 20.7878 17.0201 20.5151 16.7578 20.4946C16.6375 20.496 16.5197 20.53 16.4161 20.5933C16.3041 20.6528 16.1979 20.7233 16.0989 20.8037C15.9032 20.9567 15.7211 21.1275 15.5548 21.314C15.5281 21.3429 15.5132 21.3814 15.5132 21.4214C15.5132 21.4615 15.5281 21.4999 15.5548 21.5288C15.5825 21.5569 15.6198 21.5727 15.6585 21.5727C15.6973 21.5727 15.7345 21.5569 15.7622 21.5288V21.5289Z" fill="#211715"/>
<path d="M14.7106 20.4076C14.9524 20.0495 15.1913 19.6893 15.4272 19.3271C15.534 19.1639 15.6618 18.9872 15.6493 18.7781C15.6405 18.6787 15.5974 18.586 15.5279 18.5168C15.4585 18.4476 15.3673 18.4066 15.2711 18.4013C15.0598 18.3937 14.9131 18.4938 14.7762 18.649C14.6264 18.8188 14.4854 18.9964 14.3501 19.1789C14.2181 19.3565 14.0929 19.5394 13.9709 19.7245C13.8675 19.8675 13.7905 20.029 13.7437 20.201C13.7034 20.3739 13.6819 20.551 13.6797 20.7289C13.6702 20.9141 13.687 21.0996 13.7294 21.2798C13.7895 21.466 13.8779 21.6412 13.9913 21.7986C14.0821 21.9352 14.1656 22.076 14.2586 22.2111C14.4689 22.5164 14.7062 22.8176 14.7819 23.1935C14.8204 23.3847 14.7767 23.6024 14.8756 23.7772C14.9763 23.9551 15.2009 23.9946 15.3839 23.9894C15.6036 23.9779 15.8182 23.9162 16.0121 23.8087C16.1859 23.7171 16.4021 23.5809 16.5101 23.4075C16.5667 23.2934 16.5994 23.1683 16.6063 23.0403C16.6243 22.9233 16.635 22.8053 16.6384 22.6869C16.6388 22.4408 16.6006 22.1963 16.5252 21.9629C16.4686 21.7772 16.1854 21.8566 16.2425 22.0436C16.3511 22.3957 16.3693 22.771 16.2954 23.1326C16.2844 23.2071 16.2462 23.2742 16.1886 23.3202C16.1262 23.3778 16.059 23.4295 15.9877 23.4746C15.8551 23.5612 15.7096 23.6245 15.5571 23.6619C15.4513 23.6869 15.2266 23.7276 15.1387 23.6364C15.097 23.593 15.1021 23.5091 15.0999 23.4535C15.0975 23.3588 15.0892 23.2645 15.0751 23.171C15.0214 22.8369 14.8503 22.5466 14.6631 22.275C14.4905 22.0245 14.3186 21.7739 14.16 21.5135C14.0677 21.3754 14.0088 21.2165 13.9882 21.0499C13.9736 20.914 13.9698 20.7771 13.9766 20.6406C13.9834 20.4872 14.0088 20.3353 14.0522 20.1885C14.1092 20.0463 14.1858 19.9133 14.2795 19.7937C14.4934 19.4675 14.7286 19.1567 14.9833 18.8635C15.029 18.7944 15.0945 18.7419 15.1706 18.7135C15.2348 18.6983 15.3073 18.6931 15.3444 18.7604C15.373 18.812 15.3439 18.8857 15.3225 18.9351C15.277 19.0234 15.2243 19.1076 15.165 19.1867C14.931 19.5438 14.6951 19.8995 14.4572 20.2538C14.3488 20.4143 14.6029 20.5663 14.7104 20.4071L14.7106 20.4076Z" fill="#211715"/>
<path d="M20.0367 20.4822C19.9895 20.4658 19.9431 20.4501 19.8974 20.435C19.6545 20.3551 19.4434 20.3107 19.2842 20.3703C19.2352 20.3905 19.1928 20.425 19.1622 20.4696C19.1317 20.5142 19.1142 20.567 19.1119 20.6217C19.11 20.6684 19.1199 20.7148 19.1409 20.7562C19.1618 20.7977 19.193 20.8326 19.2312 20.8575C19.3115 20.9167 19.3983 20.966 19.4898 21.0042C19.8329 21.1632 20.3457 21.3939 20.6838 21.5808C20.4818 21.7614 20.2883 21.9515 20.1031 22.1511C20.0092 22.2521 19.9203 22.3588 19.9178 22.4991C19.9139 22.7167 20.0381 22.8547 20.3375 22.9698C20.3205 23.079 20.3143 23.1433 20.3764 23.2339C20.4543 23.3478 20.5751 23.4136 20.8002 23.413C20.8027 23.5301 20.8424 23.6431 20.9131 23.7346C21.129 24.0313 21.3798 24.2156 21.7301 24.2003C21.7741 24.2209 21.8027 24.2346 21.8027 24.2346C21.9085 24.2853 22.018 24.3385 22.0826 24.3645C22.1362 24.3827 22.1868 24.4093 22.2325 24.4434C22.2734 24.4827 22.3089 24.5278 22.338 24.5772C22.3755 24.6327 22.416 24.6859 22.4594 24.7366C22.7234 24.419 23.1291 23.9276 23.4685 23.52C23.425 23.4745 23.3822 23.423 23.3347 23.3631C23.1528 23.1333 23.0203 22.8661 22.8759 22.6082C22.6758 22.2509 22.4512 21.9089 22.2037 21.585C22.1179 21.4626 22.0153 21.3539 21.8991 21.2622C21.7842 21.1903 21.6625 21.1307 21.5358 21.0845C21.047 20.8719 20.504 20.6444 20.0367 20.4822Z" fill="white"/>
<path d="M21.7288 24.3649C21.7954 24.397 21.8621 24.4295 21.9294 24.4601C21.9637 24.4759 21.9982 24.4912 22.033 24.5057C22.047 24.5115 22.0611 24.5172 22.0752 24.523C22.109 24.5371 22.0576 24.5137 22.0764 24.5237C22.0847 24.5282 22.0934 24.5319 22.1017 24.5364C22.1165 24.5446 22.131 24.5536 22.1449 24.5633C22.1605 24.574 22.1297 24.5465 22.1413 24.5616C22.1469 24.5692 22.1547 24.5751 22.1609 24.5822C22.1633 24.5849 22.1755 24.5962 22.1755 24.5996C22.1653 24.5856 22.1634 24.5829 22.1697 24.592C22.172 24.5952 22.1742 24.5983 22.1763 24.6014C22.1862 24.6155 22.1955 24.63 22.2051 24.6443C22.2515 24.7138 22.3019 24.7802 22.356 24.8433C22.3836 24.8716 22.4209 24.8875 22.4597 24.8875C22.4985 24.8875 22.5357 24.8716 22.5633 24.8433C22.59 24.8144 22.6049 24.776 22.6049 24.736C22.6049 24.696 22.59 24.6575 22.5633 24.6286C22.54 24.6012 22.5178 24.5731 22.4957 24.5447C22.482 24.5272 22.5163 24.5737 22.4935 24.5417C22.4886 24.5349 22.4838 24.5283 22.4788 24.5215C22.4674 24.5052 22.4568 24.4885 22.4455 24.4719C22.3989 24.3936 22.3352 24.3278 22.2595 24.2798C22.2216 24.2594 22.1826 24.2415 22.1425 24.2261L22.0994 24.2083C22.0815 24.2007 22.1039 24.21 22.1094 24.2128C22.1021 24.2091 22.0942 24.2059 22.0867 24.2025C22.0162 24.1706 21.9464 24.1366 21.8766 24.103C21.8429 24.0836 21.8032 24.0784 21.7658 24.0886C21.7284 24.0987 21.6963 24.1234 21.676 24.1574C21.6568 24.1923 21.6516 24.2336 21.6615 24.2724C21.6713 24.3113 21.6954 24.3446 21.7286 24.3652L21.7288 24.3649Z" fill="#211715"/>
<path d="M20.6988 21.4173C20.2985 21.2034 19.8784 21.0347 19.4745 20.83C19.4056 20.7951 19.2792 20.7439 19.2603 20.6575C19.255 20.626 19.2609 20.5936 19.2768 20.5662C19.2928 20.5389 19.3177 20.5184 19.3471 20.5086C19.4395 20.4851 19.5362 20.4875 19.6275 20.5155C19.7534 20.5457 19.8776 20.5835 19.9994 20.6285C20.4659 20.7906 20.9227 20.9827 21.3768 21.1787C21.6008 21.2754 21.8135 21.3515 21.9805 21.5424C22.148 21.742 22.3018 21.9534 22.4408 22.1752C22.5994 22.4177 22.741 22.6697 22.8812 22.9237C23.0131 23.1785 23.1759 23.4147 23.3655 23.6268C23.4974 23.7668 23.7049 23.552 23.5728 23.4121C23.3941 23.2094 23.2413 22.9837 23.1183 22.7405C22.9756 22.4808 22.8289 22.2242 22.6655 21.9781C22.5138 21.7356 22.3434 21.5062 22.1559 21.2922C21.9612 21.0826 21.7078 20.995 21.4547 20.8858C20.9502 20.668 20.4419 20.451 19.9196 20.2825C19.693 20.2095 19.4012 20.1268 19.1778 20.2545C19.1262 20.2852 19.0815 20.3269 19.0468 20.377C19.0121 20.4271 18.9882 20.4842 18.9767 20.5447C18.9651 20.6051 18.9663 20.6675 18.98 20.7274C18.9937 20.7874 19.0196 20.8436 19.0561 20.8923C19.1566 21.0008 19.2798 21.0839 19.4163 21.1353C19.5341 21.1901 19.6523 21.2439 19.7703 21.2985C20.0329 21.42 20.2953 21.543 20.5511 21.6797C20.7185 21.7691 20.867 21.5072 20.6991 21.4174L20.6988 21.4173Z" fill="#211715"/>
<path d="M20.6012 21.4539C20.4598 21.5804 20.3221 21.7113 20.1883 21.8464C20.0666 21.9697 19.9244 22.097 19.8394 22.2518C19.8012 22.3213 19.7785 22.3988 19.773 22.4786C19.7676 22.5584 19.7795 22.6385 19.8079 22.7128C19.8724 22.859 19.9862 22.9756 20.1279 23.0408C20.1617 23.0602 20.2014 23.0654 20.2388 23.0552C20.2762 23.0451 20.3083 23.0204 20.3286 22.9863C20.3478 22.9515 20.353 22.9102 20.3432 22.8713C20.3334 22.8325 20.3092 22.7992 20.2759 22.7786C20.2266 22.7552 20.1807 22.7248 20.1397 22.6881C20.1133 22.6653 20.0927 22.6362 20.0796 22.6033C20.0648 22.5564 20.0628 22.5062 20.0738 22.4582C20.0848 22.4102 20.1085 22.3664 20.1421 22.3315C20.3479 22.0935 20.5707 21.8719 20.8086 21.6686C20.8358 21.64 20.851 21.6014 20.851 21.5613C20.851 21.5211 20.8358 21.4825 20.8086 21.4539C20.7807 21.4261 20.7436 21.4106 20.7049 21.4106C20.6662 21.4106 20.6291 21.4261 20.6012 21.4539Z" fill="#211715"/>
<path d="M21.0026 21.9875C20.8401 22.1006 20.6898 22.2313 20.5542 22.3774C20.4259 22.517 20.2795 22.6811 20.2137 22.8642C20.1798 22.9511 20.1706 23.0462 20.1871 23.1383C20.2036 23.2304 20.2451 23.3158 20.3068 23.3843C20.4296 23.504 20.5932 23.5686 20.7618 23.5641C20.8006 23.5641 20.8379 23.5481 20.8654 23.5196C20.8929 23.4911 20.9084 23.4525 20.9084 23.4122C20.9084 23.372 20.8929 23.3333 20.8654 23.3049C20.8379 23.2764 20.8006 23.2604 20.7618 23.2604C20.7023 23.2601 20.6435 23.2486 20.588 23.2264C20.6057 23.234 20.5822 23.2227 20.5761 23.2188C20.5659 23.2128 20.5558 23.2067 20.546 23.1999C20.5121 23.1765 20.5619 23.2175 20.5331 23.1887C20.525 23.1807 20.5173 23.1725 20.5097 23.164C20.4973 23.1511 20.4877 23.1356 20.4814 23.1186C20.4751 23.1017 20.4722 23.0835 20.473 23.0653C20.4756 23.0005 20.4961 22.9377 20.5321 22.8845C20.6963 22.6333 20.9064 22.4176 21.1505 22.2498C21.1834 22.2288 21.2072 22.1955 21.217 22.1568C21.2268 22.1181 21.2218 22.077 21.2032 22.042C21.1833 22.0075 21.1511 21.9825 21.1136 21.9723C21.0761 21.9621 21.0362 21.9676 21.0026 21.9875Z" fill="#211715"/>
<path d="M21.3995 22.4273L21.0671 22.7758C20.9605 22.8788 20.8598 22.9881 20.7656 23.1032C20.575 23.3572 20.6625 23.6517 20.8399 23.8822C20.9777 24.0721 21.1649 24.2174 21.3795 24.3011C21.5921 24.3771 21.9321 24.4074 22.0631 24.1721C22.0956 24.1081 22.1111 24.0363 22.108 23.9641C22.1049 23.8918 22.0832 23.8218 22.0453 23.7611C22.0054 23.7001 21.9561 23.6465 21.8993 23.6024C21.8695 23.5771 21.839 23.5529 21.8102 23.5265C21.8002 23.5173 21.7903 23.508 21.7808 23.4984C21.7714 23.4887 21.7607 23.4775 21.7515 23.4665C21.7354 23.4462 21.737 23.4528 21.7563 23.4861L21.7363 23.5627C21.7799 23.4993 21.8317 23.4425 21.8903 23.3938C22.0227 23.2543 21.8155 23.0394 21.6829 23.179C21.598 23.2685 21.459 23.3688 21.4619 23.5066C21.4647 23.6345 21.585 23.7277 21.672 23.8005C21.7209 23.8415 21.841 23.9207 21.8162 24.0055C21.7974 24.0693 21.6838 24.0503 21.6366 24.0473C21.4643 24.0312 21.3032 23.9516 21.1826 23.8231C21.0623 23.703 20.8645 23.4879 20.9842 23.3057C21.0718 23.1921 21.169 23.0867 21.2746 22.9908L21.6069 22.6422C21.7396 22.503 21.5324 22.2882 21.3995 22.4275L21.3995 22.4273Z" fill="#211715"/>
<path d="M25.9858 24.3903C25.3719 23.8403 24.7753 23.2696 24.1744 22.7047C24.1465 22.6771 24.1093 22.6616 24.0707 22.6616C24.032 22.6616 23.9949 22.6771 23.967 22.7047C23.8827 22.7871 23.8089 22.8832 23.7324 22.9734C23.5834 23.1494 23.4354 23.3262 23.2884 23.5039C22.9707 23.8861 22.6534 24.2687 22.3364 24.6517C22.2526 24.7526 22.1716 24.8584 22.082 24.9538C21.95 25.094 22.1573 25.309 22.2893 25.1686C22.5169 24.9265 22.7199 24.6544 22.9322 24.3981C23.252 24.012 23.571 23.6253 23.894 23.2422C23.9852 23.1342 24.0732 23.0182 24.1742 22.9194H23.9668C24.5679 23.4844 25.1644 24.055 25.7782 24.605C25.9203 24.7324 26.1286 24.5185 25.9855 24.3903H25.9858Z" fill="#211715"/>
</g>
<defs>
<clipPath id="clip0_329_2">
<rect width="28" height="29" fill="white"/>
</clipPath>
</defs>
</svg>
