<?xml version="1.0" standalone="no"?>
<!DOCTYPE svg PUBLIC "-//W3C//DTD SVG 20010904//EN"
 "http://www.w3.org/TR/2001/REC-SVG-20010904/DTD/svg10.dtd">
<svg version="1.0" xmlns="http://www.w3.org/2000/svg"
 width="512.000000pt" height="512.000000pt" viewBox="0 0 512.000000 512.000000"
 preserveAspectRatio="xMidYMid meet">

<g transform="translate(0.000000,512.000000) scale(0.100000,-0.100000)"
fill="#000000" stroke="none">
<path d="M2475 4753 c-8 -53 -41 -125 -79 -170 -33 -39 -129 -90 -188 -98
l-48 -7 0 -78 0 -78 47 -7 c57 -8 117 -35 164 -74 44 -37 95 -131 104 -193 l7
-48 78 0 78 0 7 47 c20 138 130 248 268 268 l47 7 0 78 0 78 -47 7 c-63 9
-157 60 -194 104 -39 47 -66 107 -74 164 l-7 47 -78 0 -78 0 -7 -47z m147
-288 l65 -65 -64 -63 -63 -64 -63 64 -64 63 61 64 c34 34 61 64 62 65 0 0 30
-28 66 -64z"/>
<path d="M1195 4033 c-8 -53 -41 -125 -79 -170 -33 -39 -129 -90 -188 -98
l-48 -7 0 -78 0 -78 47 -7 c57 -8 117 -35 164 -74 44 -37 95 -131 104 -193 l7
-48 78 0 78 0 7 47 c20 138 130 248 268 268 l47 7 0 78 0 78 -47 7 c-63 9
-157 60 -194 104 -39 47 -66 107 -74 164 l-7 47 -78 0 -78 0 -7 -47z m147
-288 l65 -65 -64 -63 -63 -64 -63 64 -64 63 61 64 c34 34 61 64 62 65 0 0 30
-28 66 -64z"/>
<path d="M3755 4033 c-8 -53 -41 -125 -79 -170 -33 -39 -129 -90 -188 -98
l-48 -7 0 -78 0 -78 47 -7 c57 -8 117 -35 164 -74 44 -37 95 -131 104 -193 l7
-48 78 0 78 0 7 47 c20 138 130 248 268 268 l47 7 0 78 0 78 -47 7 c-63 9
-157 60 -194 104 -39 47 -66 107 -74 164 l-7 47 -78 0 -78 0 -7 -47z m147
-288 l65 -65 -64 -63 -63 -64 -63 64 -64 63 61 64 c34 34 61 64 62 65 0 0 30
-28 66 -64z"/>
<path d="M2225 3179 c-732 -51 -748 -53 -905 -120 -127 -54 -210 -110 -316
-214 -114 -112 -163 -182 -255 -367 -35 -71 -66 -128 -70 -128 -3 0 -11 11
-17 25 -10 22 -7 35 23 95 49 98 47 111 -28 187 l-64 63 -187 0 c-111 0 -195
-4 -207 -10 -24 -14 -119 -201 -119 -236 0 -20 17 -44 63 -91 l64 -63 151 0
152 0 19 -38 20 -38 -101 -50 -101 -49 -93 -140 -94 -140 0 -541 c0 -374 3
-552 11 -575 6 -19 24 -51 40 -71 28 -35 29 -42 29 -140 0 -87 4 -111 24 -153
28 -60 66 -97 126 -124 41 -19 65 -21 250 -21 194 0 208 1 255 24 55 25 103
74 124 124 15 37 11 36 165 21 l111 -11 129 56 c72 31 135 56 141 56 7 0 20
-18 30 -41 34 -74 -40 -69 963 -69 604 0 910 3 923 10 10 6 30 33 44 60 l25
49 137 -60 138 -60 105 10 c157 16 157 16 169 -22 16 -48 85 -113 139 -131 35
-13 90 -16 246 -16 181 0 206 3 246 21 60 27 98 64 126 124 20 42 24 66 24
153 0 98 1 105 29 140 16 20 34 52 40 71 8 23 11 201 11 575 l0 541 -94 140
-93 140 -101 49 -101 50 20 38 19 38 152 0 151 0 64 63 c46 47 63 71 63 91 0
35 -95 222 -119 236 -12 6 -96 10 -207 10 l-187 0 -64 -63 c-75 -76 -77 -89
-28 -187 30 -60 33 -73 23 -95 -6 -14 -14 -25 -17 -25 -4 0 -35 57 -70 128
-89 179 -140 254 -245 358 -163 162 -336 252 -556 289 -86 15 -950 76 -1037
74 -26 -1 -165 -10 -308 -20z m790 -169 c253 -16 498 -37 544 -45 170 -32 334
-118 457 -240 77 -78 127 -151 198 -292 l56 -113 -1710 0 -1710 0 56 113 c93
185 163 274 286 367 150 114 291 163 508 181 139 11 772 55 825 58 17 1 237
-12 490 -29z m-2480 -460 c3 -5 -1 -23 -10 -40 l-16 -30 -119 0 c-66 0 -121 4
-125 10 -3 5 1 23 10 40 l16 30 119 0 c66 0 121 -4 125 -10z m4310 -20 c9 -17
13 -35 10 -40 -4 -6 -59 -10 -125 -10 l-119 0 -16 30 c-9 17 -13 35 -10 40 4
6 59 10 125 10 l119 0 16 -30z m-885 -615 l-245 -245 -262 -75 -262 -75 -146
0 -145 0 -80 40 -80 40 -180 0 -180 0 -80 -40 -80 -40 -145 0 -145 0 -262 75
-263 76 -64 67 c-36 37 -141 147 -234 245 l-169 177 1633 0 1634 0 -245 -245z
m-2945 -67 c158 -167 297 -309 308 -315 12 -7 149 -49 304 -93 l282 -80 176 0
175 0 80 40 80 40 140 0 140 0 80 -40 80 -40 177 0 178 0 294 84 294 84 307
307 307 307 124 -62 125 -62 67 -102 67 -102 0 -130 0 -129 -182 -181 -183
-181 -500 -77 -500 -76 -870 0 -870 0 -505 76 -505 77 -182 181 -183 181 0
129 0 130 67 102 67 102 131 65 c71 36 133 66 137 66 4 1 136 -135 293 -301z
m-444 -792 c-166 -218 -166 -219 -171 -280 l-5 -60 -37 36 -38 35 0 269 0 269
130 -130 c78 -78 126 -133 121 -139z m4229 -2 l0 -267 -37 -35 -38 -36 -5 60
c-5 56 -10 65 -92 174 l-87 115 127 128 c70 70 128 127 129 127 2 0 3 -120 3
-266z m-3580 -104 l453 -70 889 0 888 0 455 70 c250 39 458 70 463 70 4 0 49
-56 100 -124 l92 -123 0 -72 c0 -50 -4 -71 -12 -71 -7 0 -166 -16 -353 -34
l-340 -35 -269 115 c-148 63 -273 111 -277 107 -9 -10 -61 -134 -57 -137 2 -1
34 -15 72 -32 37 -16 68 -34 67 -39 -1 -14 -1661 -14 -1661 0 1 6 31 23 68 39
37 16 68 31 70 32 4 3 -48 127 -57 137 -4 4 -128 -44 -275 -107 l-268 -115
-336 35 c-185 19 -345 34 -354 34 -16 0 -18 10 -18 71 l0 72 92 123 c51 68 97
124 103 124 7 0 216 -31 465 -70z m-600 -485 c91 -8 183 -18 205 -22 l39 -5
-23 -19 c-21 -17 -42 -19 -198 -19 -176 0 -204 5 -230 39 -7 9 -13 31 -13 49
l0 33 28 -20 c21 -16 61 -23 192 -36z m4090 -15 c-18 -44 -46 -50 -234 -50
-156 0 -176 2 -197 19 l-24 19 35 6 c19 3 112 12 205 21 130 12 176 20 195 34
24 18 25 18 28 -1 2 -11 -2 -32 -8 -48z"/>
<path d="M533 1960 c-44 -18 -51 -46 -64 -242 -6 -102 -9 -198 -5 -212 7 -29
28 -43 250 -178 103 -63 136 -78 155 -73 14 4 92 54 173 112 155 110 171 128
152 181 -7 19 -89 78 -304 218 -162 105 -304 194 -315 197 -11 3 -30 2 -42 -3z
m275 -330 c89 -58 161 -108 162 -112 0 -9 -102 -81 -116 -81 -6 0 -62 31 -124
68 l-112 69 6 50 c3 28 6 66 6 84 0 19 4 32 8 30 5 -1 81 -50 170 -108z"/>
<path d="M4525 1955 c-16 -8 -156 -97 -310 -198 -198 -131 -283 -192 -289
-209 -19 -52 -3 -72 152 -181 81 -58 159 -108 173 -112 19 -5 52 10 155 73
222 135 243 149 250 178 11 45 -15 396 -32 422 -12 18 -54 44 -67 42 -1 -1
-15 -7 -32 -15z m-31 -301 l7 -81 -112 -68 c-61 -38 -117 -68 -123 -68 -14 0
-116 72 -116 81 1 7 332 224 335 220 1 -2 6 -39 9 -84z"/>
<path d="M2480 1280 l0 -80 80 0 80 0 0 80 0 80 -80 0 -80 0 0 -80z"/>
</g>
</svg>
