<svg width="18" height="18" viewBox="0 0 18 18" fill="none" xmlns="http://www.w3.org/2000/svg">
<path d="M16.5596 0.00161428H1.54121C1.34764 -0.00745239 1.15417 0.021739 0.971888 0.0875342C0.789608 0.153329 0.6221 0.254423 0.478935 0.385024C0.335783 0.515636 0.219786 0.6732 0.137607 0.848684C0.0554277 1.02418 0.0086623 1.21415 0 1.40774V16.4589C0.0113397 16.864 0.177363 17.2495 0.463973 17.536C0.750583 17.8226 1.13604 17.9886 1.54121 18H16.5596C16.9535 17.9825 17.3248 17.8112 17.594 17.5232C17.8632 17.2351 18.0088 16.8531 17.9996 16.4589V1.40774C18.0028 1.21932 17.9675 1.03223 17.8959 0.857942C17.8242 0.683662 17.7177 0.52585 17.5828 0.394181C17.448 0.262523 17.2877 0.159798 17.1118 0.0922925C16.9358 0.0247875 16.7479 -0.00606877 16.5596 0.00161428ZM5.62487 15.0078H3.00368V6.98726H5.62487V15.0078ZM4.37615 5.77234C4.19324 5.77871 4.01098 5.74719 3.84084 5.67977C3.67069 5.61234 3.51632 5.51046 3.38744 5.38052C3.25855 5.25059 3.15793 5.09541 3.09189 4.92473C3.02584 4.75405 2.99582 4.57155 3.00368 4.38871C2.99559 4.20389 3.02623 4.01943 3.09362 3.84715C3.16102 3.67486 3.26368 3.51857 3.39503 3.3883C3.52638 3.25801 3.6835 3.15662 3.85633 3.09064C4.02917 3.02464 4.21389 2.99551 4.39865 3.00509C4.58156 2.99872 4.76382 3.03023 4.93396 3.09766C5.10411 3.16508 5.25848 3.26697 5.38735 3.3969C5.51624 3.52684 5.61687 3.68202 5.68291 3.8527C5.74896 4.02338 5.77898 4.20587 5.77112 4.38871C5.77921 4.57353 5.74857 4.75799 5.68118 4.93027C5.61378 5.10256 5.51111 5.25885 5.37977 5.38913C5.24842 5.51941 5.0913 5.6208 4.91847 5.68679C4.74562 5.75279 4.5609 5.78192 4.37615 5.77234ZM15.0072 15.0078H12.3747V10.6207C12.3747 9.57452 12.0035 8.85459 11.0697 8.85459C10.7797 8.85706 10.4975 8.94919 10.2619 9.11838C10.0262 9.28756 9.8487 9.52548 9.75353 9.7995C9.6804 10.0049 9.6498 10.223 9.66353 10.4407V15.0078H7.07609V6.98726H9.66353V8.11216C9.89359 7.68953 10.2359 7.33879 10.6528 7.09851C11.0697 6.85835 11.5449 6.73807 12.026 6.751C13.7247 6.751 15.0072 7.87593 15.0072 10.272V15.0078Z" fill="white"/>
</svg>
