<svg width="15" height="18" viewBox="0 0 15 18" fill="none" xmlns="http://www.w3.org/2000/svg">
<path d="M12.7075 10.0575C12.0525 11.2522 11.165 12.4425 10.2575 13.5113C9.39662 14.5188 8.47612 15.484 7.5 16.4025C6.52385 15.484 5.60336 14.5188 4.7425 13.5113C3.835 12.4425 2.9475 11.2522 2.2925 10.0575C1.63 8.85037 1.25 7.71975 1.25 6.75C1.25 5.25816 1.90848 3.82742 3.08058 2.77252C4.25269 1.71763 5.8424 1.125 7.5 1.125C9.1576 1.125 10.7473 1.71763 11.9194 2.77252C13.0915 3.82742 13.75 5.25816 13.75 6.75C13.75 7.71975 13.3688 8.85037 12.7075 10.0575ZM7.5 18C7.5 18 15 11.6033 15 6.75C15 4.95979 14.2098 3.2429 12.8033 1.97703C11.3968 0.711159 9.48912 0 7.5 0C5.51088 0 3.60322 0.711159 2.1967 1.97703C0.790176 3.2429 2.96403e-08 4.95979 0 6.75C0 11.6033 7.5 18 7.5 18Z" fill="white"/>
<path d="M7.5 9C6.83696 9 6.20107 8.76295 5.73223 8.34099C5.26339 7.91903 5 7.34674 5 6.75C5 6.15326 5.26339 5.58097 5.73223 5.15901C6.20107 4.73705 6.83696 4.5 7.5 4.5C8.16304 4.5 8.79893 4.73705 9.26777 5.15901C9.73661 5.58097 10 6.15326 10 6.75C10 7.34674 9.73661 7.91903 9.26777 8.34099C8.79893 8.76295 8.16304 9 7.5 9ZM7.5 10.125C8.49456 10.125 9.44839 9.76942 10.1517 9.13649C10.8549 8.50355 11.25 7.64511 11.25 6.75C11.25 5.85489 10.8549 4.99645 10.1517 4.36351C9.44839 3.73058 8.49456 3.375 7.5 3.375C6.50544 3.375 5.55161 3.73058 4.84835 4.36351C4.14509 4.99645 3.75 5.85489 3.75 6.75C3.75 7.64511 4.14509 8.50355 4.84835 9.13649C5.55161 9.76942 6.50544 10.125 7.5 10.125Z" fill="white"/>
</svg>
