<svg width="17" height="18" viewBox="0 0 17 18" fill="none" xmlns="http://www.w3.org/2000/svg">
<path d="M0 2.25C0 1.65326 0.298511 1.08097 0.829864 0.65901C1.36122 0.237053 2.08189 0 2.83333 0L14.1667 0C14.9181 0 15.6388 0.237053 16.1701 0.65901C16.7015 1.08097 17 1.65326 17 2.25V15.75C17 16.3467 16.7015 16.919 16.1701 17.341C15.6388 17.7629 14.9181 18 14.1667 18H2.83333C2.08189 18 1.36122 17.7629 0.829864 17.341C0.298511 16.919 0 16.3467 0 15.75V2.25ZM6.375 2.25C6.18714 2.25 6.00697 2.30926 5.87413 2.41475C5.74129 2.52024 5.66667 2.66332 5.66667 2.8125C5.66667 2.96168 5.74129 3.10476 5.87413 3.21025C6.00697 3.31574 6.18714 3.375 6.375 3.375H10.625C10.8129 3.375 10.993 3.31574 11.1259 3.21025C11.2587 3.10476 11.3333 2.96168 11.3333 2.8125C11.3333 2.66332 11.2587 2.52024 11.1259 2.41475C10.993 2.30926 10.8129 2.25 10.625 2.25H6.375ZM8.5 12.375C9.62717 12.375 10.7082 12.0194 11.5052 11.3865C12.3022 10.7536 12.75 9.89511 12.75 9C12.75 8.10489 12.3022 7.24645 11.5052 6.61351C10.7082 5.98058 9.62717 5.625 8.5 5.625C7.37283 5.625 6.29183 5.98058 5.4948 6.61351C4.69777 7.24645 4.25 8.10489 4.25 9C4.25 9.89511 4.69777 10.7536 5.4948 11.3865C6.29183 12.0194 7.37283 12.375 8.5 12.375ZM15.5833 15.4744C14.3735 14.4281 12.2159 13.5 8.5 13.5C4.78408 13.5 2.6265 14.4293 1.41667 15.4744V15.75C1.41667 16.0484 1.56592 16.3345 1.8316 16.5455C2.09728 16.7565 2.45761 16.875 2.83333 16.875H14.1667C14.5424 16.875 14.9027 16.7565 15.1684 16.5455C15.4341 16.3345 15.5833 16.0484 15.5833 15.75V15.4744Z" fill="#FFF9F9"/>
</svg>
