<svg width="18" height="18" viewBox="0 0 18 18" fill="none" xmlns="http://www.w3.org/2000/svg">
<path d="M4.11115 1.4943C4.04474 1.40887 3.96091 1.33855 3.86524 1.288C3.76956 1.23746 3.66422 1.20786 3.55623 1.20115C3.44823 1.19445 3.34004 1.2108 3.23885 1.24912C3.13766 1.28745 3.04578 1.34686 2.96931 1.42342L1.8061 2.58777C1.26274 3.13226 1.0625 3.90286 1.29986 4.57897C2.28504 7.37744 3.88761 9.9182 5.98872 12.0128C8.08332 14.1139 10.6241 15.7165 13.4225 16.7017C14.0986 16.939 14.8692 16.7388 15.4137 16.1954L16.5769 15.0322C16.6534 14.9557 16.7129 14.8639 16.7512 14.7627C16.7895 14.6615 16.8059 14.5533 16.7992 14.4453C16.7924 14.3373 16.7628 14.232 16.7123 14.1363C16.6618 14.0406 16.5914 13.9568 16.506 13.8904L13.9107 11.8722C13.8195 11.8014 13.7133 11.7522 13.6003 11.7285C13.4872 11.7047 13.3703 11.7069 13.2582 11.7349L10.7946 12.3503C10.4657 12.4325 10.1212 12.4281 9.79452 12.3376C9.46786 12.2471 9.17019 12.0736 8.9305 11.8339L6.16759 9.06986C5.92771 8.83028 5.75397 8.53267 5.66328 8.20599C5.57259 7.87932 5.56805 7.53473 5.6501 7.20578L6.26658 4.74209C6.2946 4.63004 6.29681 4.51309 6.27303 4.40006C6.24926 4.28703 6.20012 4.18088 6.12934 4.08961L4.11115 1.4943ZM2.11996 0.575193C2.31683 0.378266 2.55333 0.225473 2.81377 0.12696C3.07422 0.0284473 3.35264 -0.0135314 3.63055 0.00381145C3.90846 0.0211543 4.1795 0.097422 4.42567 0.22755C4.67184 0.357678 4.88752 0.538689 5.05837 0.758563L7.07656 3.35275C7.44667 3.82861 7.57717 4.44847 7.43092 5.03346L6.81557 7.49715C6.78375 7.62475 6.78547 7.75842 6.82056 7.88516C6.85564 8.01191 6.9229 8.12743 7.01581 8.22051L9.77985 10.9846C9.87304 11.0777 9.98875 11.145 10.1157 11.1801C10.2427 11.2152 10.3766 11.2168 10.5043 11.1848L12.9669 10.5694C13.2556 10.4973 13.5569 10.4917 13.848 10.5531C14.1392 10.6144 14.4126 10.7412 14.6476 10.9238L17.2417 12.942C18.1743 13.6676 18.2598 15.0457 17.4251 15.8793L16.2619 17.0425C15.4294 17.875 14.1852 18.2406 13.0254 17.8323C10.0568 16.7878 7.36148 15.0883 5.13937 12.8599C2.91114 10.6381 1.21168 7.94315 0.167025 4.97496C-0.240213 3.81624 0.125401 2.57089 0.957875 1.73841L2.12109 0.575193H2.11996ZM12.3751 0.562818C12.3751 0.413637 12.4344 0.270567 12.5399 0.16508C12.6454 0.0595936 12.7884 0.00033184 12.9376 0.00033184H17.4375C17.5867 0.00033184 17.7297 0.0595936 17.8352 0.16508C17.9407 0.270567 18 0.413637 18 0.562818V5.06271C18 5.21189 17.9407 5.35496 17.8352 5.46045C17.7297 5.56593 17.5867 5.62519 17.4375 5.62519C17.2883 5.62519 17.1452 5.56593 17.0397 5.46045C16.9343 5.35496 16.875 5.21189 16.875 5.06271V1.92066L12.2109 6.58592C12.1053 6.69154 11.962 6.75088 11.8127 6.75088C11.6633 6.75088 11.52 6.69154 11.4144 6.58592C11.3088 6.4803 11.2495 6.33705 11.2495 6.18768C11.2495 6.03831 11.3088 5.89506 11.4144 5.78944L16.0797 1.1253H12.9376C12.7884 1.1253 12.6454 1.06604 12.5399 0.960556C12.4344 0.855069 12.3751 0.711999 12.3751 0.562818Z" fill="white"/>
</svg>
