<svg xmlns="http://www.w3.org/2000/svg" xmlns:xlink="http://www.w3.org/1999/xlink" width="500" zoomAndPan="magnify" viewBox="0 0 375 374.999991" height="500" preserveAspectRatio="xMidYMid meet" version="1.0"><defs><g/><clipPath id="47a934db74"><path d="M 108 171 L 274 171 L 274 178.808594 L 108 178.808594 Z M 108 171 " clip-rule="nonzero"/></clipPath><clipPath id="60f66019cc"><path d="M 76.765625 146 L 298 146 L 298 178.808594 L 76.765625 178.808594 Z M 76.765625 146 " clip-rule="nonzero"/></clipPath></defs><rect x="-37.5" width="450" fill="#ffffff" y="-37.499999" height="449.999989" fill-opacity="1"/><rect x="-37.5" width="450" fill="#ffffff" y="-37.499999" height="449.999989" fill-opacity="1"/><rect x="-37.5" width="450" fill="#000000" y="-37.499999" height="449.999989" fill-opacity="1"/><g clip-path="url(#47a934db74)"><path fill="#ed2323" d="M 116.078125 177.390625 C 122.089844 177.769531 128.085938 178.132812 134.082031 178.445312 C 134.59375 178.210938 135.355469 178.058594 136.488281 177.988281 C 167.320312 176.410156 201.890625 175.527344 273.5 171.800781 C 261.054688 170.96875 202.21875 173.046875 165.40625 174.203125 C 147.726562 174.757812 130.039062 175.496094 112.378906 176.566406 C 112.054688 176.574219 110.285156 176.742188 108.324219 177.003906 C 110.921875 177.089844 113.515625 177.222656 116.078125 177.390625 Z M 116.078125 177.390625 " fill-opacity="1" fill-rule="nonzero"/></g><g clip-path="url(#60f66019cc)"><path fill="#ffffff" d="M 297.613281 178.164062 C 297.230469 177.125 296.832031 176.109375 296.242188 175.1875 C 296.84375 174.308594 297.089844 173.328125 297.003906 172.121094 C 296.96875 171.78125 296.910156 171.449219 296.824219 171.121094 C 296.664062 170.429688 296.453125 169.484375 296.773438 169.15625 L 296.804688 169.117188 C 296.9375 168.980469 297.03125 168.816406 297.078125 168.628906 C 297.089844 168.554688 297.101562 168.480469 297.109375 168.414062 L 297.109375 168.324219 C 297.089844 166.167969 296.59375 164.769531 294.113281 163.960938 C 292.550781 163.453125 290.714844 163.445312 289.09375 163.4375 L 288.429688 163.4375 C 286.058594 163.410156 283.691406 163.292969 281.4375 163.09375 C 279.90625 162.839844 278.363281 162.304688 276.867188 161.789062 C 276.378906 161.613281 275.898438 161.449219 275.414062 161.289062 C 273.902344 160.800781 272.394531 160.296875 270.882812 159.800781 C 268.34375 158.964844 265.714844 158.097656 263.117188 157.261719 C 253.820312 154.269531 243.878906 151.203125 233.683594 149.414062 C 215.203125 145.808594 197.265625 145.058594 180.386719 147.1875 C 163.828125 149.273438 149.058594 157.070312 134.777344 164.597656 L 132.015625 166.054688 C 122.84375 166.097656 110.902344 166.566406 99.632812 169.832031 C 92.832031 171.800781 85.835938 174.511719 78.820312 177.898438 L 76.929688 178.808594 L 82.429688 178.796875 L 82.515625 178.761719 C 87.128906 176.765625 94.410156 173.9375 99.414062 172.386719 C 110.460938 168.960938 122.242188 168.46875 132.304688 168.433594 C 132.5 168.4375 132.683594 168.390625 132.855469 168.304688 L 132.890625 168.28125 C 133.921875 167.742188 134.953125 167.203125 135.976562 166.660156 C 149.828125 159.355469 164.144531 151.800781 180.089844 149.617188 C 196.546875 147.363281 214.394531 148.074219 233.140625 151.734375 C 243.144531 153.488281 253.109375 156.558594 262.453125 159.546875 C 265.296875 160.457031 268.171875 161.402344 270.957031 162.324219 L 274.316406 163.429688 L 275.886719 163.976562 C 277.546875 164.550781 279.273438 165.15625 281.015625 165.425781 L 281.101562 165.441406 L 281.234375 165.460938 C 283.597656 165.679688 286.195312 165.796875 289.183594 165.824219 C 290.636719 165.839844 292.078125 165.984375 293.503906 166.261719 C 294.082031 166.367188 294.371094 166.574219 294.523438 166.878906 C 291.210938 166.890625 287.992188 167.59375 285.25 168.289062 L 284.480469 168.480469 C 282.414062 168.992188 280.066406 169.574219 278.230469 170.6875 C 277.875 170.90625 277.667969 171.257812 277.660156 171.617188 C 277.648438 171.742188 277.652344 171.871094 277.679688 171.996094 C 278.515625 176.0625 282.976562 176.371094 284.441406 176.46875 C 287.933594 176.707031 291.191406 176.640625 294.128906 176.269531 C 294.683594 177.019531 295.054688 177.847656 295.320312 178.511719 L 295.441406 178.808594 L 297.851562 178.808594 Z M 293.863281 173.917969 C 291.550781 174.203125 289.144531 174.203125 286.671875 174.167969 L 286.136719 174.167969 C 283.957031 174.15625 281.28125 174.140625 280.296875 172.300781 C 281.503906 171.742188 282.882812 171.386719 284.214844 171.035156 L 285.269531 170.753906 C 288.792969 169.78125 291.6875 169.308594 294.308594 169.277344 C 294.273438 169.832031 294.371094 170.429688 294.464844 171.019531 C 294.699219 172.472656 294.777344 173.40625 293.863281 173.917969 Z M 293.863281 173.917969 " fill-opacity="1" fill-rule="nonzero"/></g><path fill="#ffffff" d="M 258.09375 166.234375 C 258.09375 166.234375 256.132812 166.984375 255.277344 167.148438 C 253.839844 167.421875 248.910156 167.976562 248.910156 167.976562 C 253.867188 168.402344 274.898438 167.097656 273.976562 167.097656 C 269.007812 167.097656 261.964844 166.558594 258.09375 166.234375 Z M 258.09375 166.234375 " fill-opacity="1" fill-rule="nonzero"/><path fill="#ffffff" d="M 259.394531 161.839844 C 260.175781 161.046875 259.414062 160.601562 259.199219 160.527344 C 238.660156 153.648438 216.355469 149.882812 194.574219 150.234375 C 192.765625 150.269531 190.957031 150.320312 189.160156 150.40625 C 175.714844 151.058594 162.589844 155.21875 150.574219 161.351562 L 150.554688 161.351562 C 150.324219 161.460938 150.089844 161.582031 149.871094 161.703125 C 145.824219 163.808594 141.902344 166.125 138.097656 168.648438 C 137.089844 169.382812 137.300781 169.933594 138.414062 170.078125 C 139.667969 170.179688 141.628906 170.132812 143.191406 170.144531 C 145.15625 170.171875 152.980469 170.03125 161.078125 169.867188 C 168.113281 169.722656 175.351562 169.554688 179.113281 169.4375 C 191.949219 169.046875 204.757812 168.640625 217.601562 168.433594 C 224.558594 168.324219 231.515625 168.175781 238.460938 167.804688 C 242.726562 167.582031 247.472656 167.601562 251.574219 166.269531 C 254.535156 165.359375 257.199219 164.0625 259.394531 161.839844 Z M 140.449219 168.820312 C 142.433594 167.554688 144.453125 166.339844 146.511719 165.167969 C 146.09375 166.242188 146.09375 167.441406 146.71875 168.707031 C 144.65625 168.773438 142.53125 168.90625 140.449219 168.820312 Z M 189.53125 167.574219 C 182.003906 167.832031 174.476562 168.15625 166.941406 168.335938 L 161.050781 168.460938 L 156.414062 168.546875 C 157.546875 166.507812 157.492188 164.871094 156.917969 163.675781 C 156.246094 162.265625 154.875 161.46875 153.902344 161.308594 C 164.972656 156.015625 176.902344 152.488281 189.148438 151.839844 C 190.957031 151.746094 192.777344 151.679688 194.59375 151.648438 C 192.253906 156.664062 190.863281 162.230469 189.53125 167.574219 Z M 196.898438 167.605469 L 195.441406 167.621094 C 195.828125 163.523438 197.421875 157.160156 198.359375 153.15625 C 198.359375 153.15625 197.269531 163.636719 196.898438 167.605469 Z M 231.917969 166.660156 C 222.953125 166.976562 213.980469 167.0625 205.015625 167.167969 L 202.519531 167.214844 C 202.578125 162.039062 203.015625 156.871094 203.320312 151.707031 C 211.59375 151.988281 219.8125 152.820312 227.976562 154.199219 C 227.992188 154.21875 228.011719 154.234375 228.03125 154.25 C 232.269531 157.902344 236.199219 162.011719 239.824219 166.300781 C 237.1875 166.460938 234.550781 166.566406 231.917969 166.660156 Z M 243.769531 166.023438 C 243.046875 166.082031 242.316406 166.128906 241.585938 166.183594 C 238.214844 162.132812 234.570312 158.207031 230.648438 154.65625 C 239.804688 156.328125 248.804688 158.617188 257.648438 161.523438 C 255.789062 163.144531 253.613281 164.148438 251.203125 164.890625 C 248.789062 165.632812 246.234375 165.8125 243.769531 166.023438 Z M 243.769531 166.023438 " fill-opacity="1" fill-rule="nonzero"/><g fill="#ffffff" fill-opacity="1"><g transform="translate(136.898831, 207.406436)"><g><path d="M 18.441406 -20.121094 L 4.15625 -20.121094 L 4.15625 0 L 7.578125 0 L 7.578125 -6.539062 L 18.441406 -6.539062 C 23.707031 -6.539062 26.222656 -8.417969 26.222656 -13.179688 L 26.222656 -14.152344 C 26.222656 -17.46875 24.847656 -20.121094 18.441406 -20.121094 Z M 22.734375 -13.179688 C 22.734375 -10.796875 21.761719 -9.890625 17.941406 -9.890625 L 7.578125 -9.890625 L 7.578125 -16.765625 L 17.941406 -16.765625 C 21.59375 -16.765625 22.734375 -16.128906 22.734375 -14.152344 Z M 22.734375 -13.179688 "/></g></g></g><g fill="#ffffff" fill-opacity="1"><g transform="translate(168.079888, 207.406436)"><g><path d="M 4.15625 0 L 7.578125 0 L 7.578125 -20.121094 L 4.15625 -20.121094 Z M 4.15625 0 "/></g></g></g><g fill="#ffffff" fill-opacity="1"><g transform="translate(182.765535, 207.406436)"><g><path d="M 22.265625 -20.121094 L 13.109375 -3.488281 L 3.957031 -20.121094 L -0.101562 -20.121094 L 10.964844 0 L 15.023438 0 L 26.089844 -20.121094 Z M 22.265625 -20.121094 "/></g></g></g><g fill="#ffffff" fill-opacity="1"><g transform="translate(211.800848, 207.406436)"><g><path d="M 22.199219 0 L 26.121094 0 L 15.125 -20.019531 L 15.15625 -20.121094 L 11.132812 -20.121094 L 11.199219 -20.019531 L 0.167969 0 L 4.089844 0 L 6.070312 -3.589844 L 20.21875 -3.589844 Z M 7.914062 -6.941406 L 13.144531 -16.464844 L 18.375 -6.941406 Z M 7.914062 -6.941406 "/></g></g></g><g fill="#ed2323" fill-opacity="1"><g transform="translate(124.775972, 226.641621)"><g><path d="M 1.175781 0 C 1.054688 -0.109375 1.09375 -0.238281 1.128906 -0.394531 C 1.199219 -0.660156 1.175781 -0.949219 1.175781 -1.222656 C 1.1875 -2.351562 1.1875 -3.492188 1.1875 -4.632812 C 1.1875 -5.269531 1.210938 -5.890625 1.210938 -6.515625 C 1.210938 -6.839844 1.210938 -7.164062 1.1875 -7.488281 C 1.175781 -7.738281 1.03125 -8.0625 1.117188 -8.316406 C 1.199219 -8.542969 1.464844 -8.484375 1.644531 -8.449219 C 1.992188 -8.398438 2.339844 -8.375 2.6875 -8.398438 C 2.832031 -8.398438 2.976562 -8.425781 3.121094 -8.460938 C 3.265625 -8.496094 3.433594 -8.449219 3.480469 -8.292969 C 3.492188 -8.207031 3.480469 -8.125 3.46875 -8.039062 C 3.394531 -7.644531 3.394531 -7.246094 3.394531 -6.839844 C 3.382812 -6.046875 3.394531 -5.230469 3.40625 -4.429688 C 3.421875 -4.019531 3.421875 -3.601562 3.421875 -3.179688 C 3.421875 -2.796875 3.371094 -2.425781 3.347656 -2.039062 C 3.335938 -1.933594 3.335938 -1.8125 3.421875 -1.726562 C 3.574219 -1.585938 3.816406 -1.714844 3.984375 -1.753906 C 4.222656 -1.800781 4.476562 -1.753906 4.714844 -1.753906 C 5.675781 -1.714844 6.636719 -1.753906 7.597656 -1.753906 C 8.59375 -1.753906 9.589844 -1.753906 10.585938 -1.765625 C 10.90625 -1.765625 11.230469 -1.777344 11.554688 -1.777344 C 11.867188 -1.777344 11.867188 -1.726562 12.179688 -1.726562 C 12.371094 -1.726562 12.5625 -1.859375 12.742188 -1.8125 C 12.960938 -1.753906 12.925781 -1.441406 12.898438 -1.285156 C 12.851562 -0.984375 12.769531 -0.707031 12.839844 -0.40625 C 12.863281 -0.335938 12.886719 -0.265625 12.886719 -0.179688 C 12.898438 0.0585938 12.648438 0.0859375 12.46875 0.0585938 C 11.664062 -0.0585938 10.871094 -0.0234375 10.066406 0 C 8.101562 0.046875 6.121094 0 4.152344 0 C 3.492188 0.0117188 2.820312 0 2.160156 -0.0234375 C 1.921875 -0.0351562 1.703125 0.109375 1.464844 0.109375 C 1.367188 0.109375 1.261719 0.0703125 1.175781 0 Z M 1.175781 0 "/></g></g></g><g fill="#ed2323" fill-opacity="1"><g transform="translate(138.743999, 226.641621)"><g><path d="M 0.347656 -0.0117188 C 0.394531 0.0351562 0.457031 0.0351562 0.515625 0.046875 C 1.117188 0.0703125 1.777344 0.214844 2.351562 0.0234375 C 3.058594 -0.191406 2.914062 -1.332031 3.742188 -1.332031 C 5.050781 -1.332031 6.359375 -1.308594 7.667969 -1.308594 C 8.316406 -1.308594 8.976562 -1.308594 9.625 -1.332031 C 10.140625 -1.34375 10.789062 -1.488281 11.292969 -1.378906 C 11.820312 -1.261719 11.832031 -0.480469 12.203125 -0.167969 C 12.46875 0.0703125 12.875 0.0703125 13.234375 0.0703125 C 13.597656 0.0585938 13.96875 0.046875 14.328125 0.046875 C 14.375 0.046875 14.425781 0.046875 14.460938 0.0234375 C 14.554688 -0.046875 14.484375 -0.203125 14.410156 -0.300781 C 12.648438 -2.675781 10.992188 -5.136719 9.46875 -7.679688 C 9.277344 -8.015625 9.035156 -8.375 8.664062 -8.484375 C 8.484375 -8.542969 8.28125 -8.519531 8.089844 -8.507812 C 7.414062 -8.449219 6.070312 -8.617188 5.664062 -8.003906 C 4.128906 -5.6875 2.578125 -3.371094 1.042969 -1.066406 C 0.925781 -0.898438 0.15625 -0.238281 0.347656 -0.0117188 Z M 4.703125 -3.109375 C 4.679688 -3.15625 4.667969 -3.191406 4.667969 -3.238281 C 4.679688 -3.335938 4.738281 -3.40625 4.800781 -3.492188 C 5.257812 -4.066406 5.699219 -4.667969 6.121094 -5.292969 C 6.335938 -5.617188 6.539062 -5.941406 6.742188 -6.265625 C 6.851562 -6.433594 7.152344 -7.175781 7.320312 -7.234375 C 7.703125 -7.378906 8.386719 -5.832031 8.578125 -5.519531 C 9.058594 -4.800781 9.5625 -4.09375 10.09375 -3.40625 C 10.152344 -3.335938 10.210938 -3.238281 10.199219 -3.15625 C 10.117188 -2.746094 8.878906 -3.070312 8.605469 -3.085938 C 7.511719 -3.179688 6.382812 -3.097656 5.292969 -2.953125 C 5.160156 -2.941406 5.027344 -2.914062 4.90625 -2.964844 C 4.824219 -2.988281 4.738281 -3.035156 4.703125 -3.109375 Z M 4.703125 -3.109375 "/></g></g></g><g fill="#ed2323" fill-opacity="1"><g transform="translate(154.104028, 226.641621)"><g><path d="M 13.429688 -8.386719 C 13.402344 -8.472656 13.332031 -8.507812 13.164062 -8.460938 C 12.792969 -8.339844 12.394531 -8.316406 12.023438 -8.398438 C 11.867188 -8.4375 11.699219 -8.484375 11.53125 -8.449219 C 11.328125 -8.386719 11.195312 -8.183594 11.089844 -8.003906 C 10.402344 -6.851562 9.71875 -5.710938 9.035156 -4.570312 C 8.710938 -4.03125 8.410156 -3.480469 8.101562 -2.929688 C 7.980469 -2.734375 7.175781 -1.140625 6.984375 -1.390625 C 6.660156 -1.777344 6.492188 -2.230469 6.226562 -2.664062 L 5.207031 -4.390625 C 4.523438 -5.542969 3.851562 -6.707031 3.179688 -7.859375 C 3.070312 -8.039062 2.953125 -8.21875 2.773438 -8.328125 C 2.605469 -8.425781 2.398438 -8.425781 2.195312 -8.425781 C 1.789062 -8.425781 1.222656 -8.496094 0.828125 -8.386719 C 0.527344 -8.292969 1.054688 -7.644531 1.152344 -7.488281 C 1.367188 -7.117188 1.597656 -6.730469 1.8125 -6.359375 L 3.121094 -4.164062 C 3.492188 -3.527344 3.851562 -2.878906 4.234375 -2.257812 C 4.429688 -1.933594 4.632812 -1.621094 4.824219 -1.296875 C 4.980469 -1.03125 5.207031 -0.816406 5.339844 -0.539062 C 5.519531 -0.191406 5.628906 0.0585938 6.058594 0.046875 L 8.148438 0.0117188 C 8.808594 0 9.121094 -0.984375 9.421875 -1.476562 C 9.863281 -2.230469 10.320312 -2.976562 10.765625 -3.730469 L 12.191406 -6.132812 C 12.480469 -6.613281 12.804688 -7.066406 13.078125 -7.546875 C 13.152344 -7.679688 13.464844 -8.171875 13.429688 -8.386719 Z M 13.429688 -8.386719 "/></g></g></g><g fill="#ed2323" fill-opacity="1"><g transform="translate(168.768049, 226.641621)"><g><path d="M 0.347656 -0.0117188 C 0.394531 0.0351562 0.457031 0.0351562 0.515625 0.046875 C 1.117188 0.0703125 1.777344 0.214844 2.351562 0.0234375 C 3.058594 -0.191406 2.914062 -1.332031 3.742188 -1.332031 C 5.050781 -1.332031 6.359375 -1.308594 7.667969 -1.308594 C 8.316406 -1.308594 8.976562 -1.308594 9.625 -1.332031 C 10.140625 -1.34375 10.789062 -1.488281 11.292969 -1.378906 C 11.820312 -1.261719 11.832031 -0.480469 12.203125 -0.167969 C 12.46875 0.0703125 12.875 0.0703125 13.234375 0.0703125 C 13.597656 0.0585938 13.96875 0.046875 14.328125 0.046875 C 14.375 0.046875 14.425781 0.046875 14.460938 0.0234375 C 14.554688 -0.046875 14.484375 -0.203125 14.410156 -0.300781 C 12.648438 -2.675781 10.992188 -5.136719 9.46875 -7.679688 C 9.277344 -8.015625 9.035156 -8.375 8.664062 -8.484375 C 8.484375 -8.542969 8.28125 -8.519531 8.089844 -8.507812 C 7.414062 -8.449219 6.070312 -8.617188 5.664062 -8.003906 C 4.128906 -5.6875 2.578125 -3.371094 1.042969 -1.066406 C 0.925781 -0.898438 0.15625 -0.238281 0.347656 -0.0117188 Z M 4.703125 -3.109375 C 4.679688 -3.15625 4.667969 -3.191406 4.667969 -3.238281 C 4.679688 -3.335938 4.738281 -3.40625 4.800781 -3.492188 C 5.257812 -4.066406 5.699219 -4.667969 6.121094 -5.292969 C 6.335938 -5.617188 6.539062 -5.941406 6.742188 -6.265625 C 6.851562 -6.433594 7.152344 -7.175781 7.320312 -7.234375 C 7.703125 -7.378906 8.386719 -5.832031 8.578125 -5.519531 C 9.058594 -4.800781 9.5625 -4.09375 10.09375 -3.40625 C 10.152344 -3.335938 10.210938 -3.238281 10.199219 -3.15625 C 10.117188 -2.746094 8.878906 -3.070312 8.605469 -3.085938 C 7.511719 -3.179688 6.382812 -3.097656 5.292969 -2.953125 C 5.160156 -2.941406 5.027344 -2.914062 4.90625 -2.964844 C 4.824219 -2.988281 4.738281 -3.035156 4.703125 -3.109375 Z M 4.703125 -3.109375 "/></g></g></g><g fill="#ed2323" fill-opacity="1"><g transform="translate(184.12808, 226.641621)"><g><path d="M 0.601562 -4.738281 C 0.707031 -4.800781 0.863281 -4.8125 0.996094 -4.800781 C 1.980469 -4.726562 2.964844 -4.726562 3.960938 -4.738281 C 4.609375 -4.738281 5.257812 -4.738281 5.902344 -4.8125 C 5.988281 -4.824219 6.070312 -4.824219 6.132812 -4.789062 C 6.238281 -4.726562 6.265625 -4.597656 6.253906 -4.476562 C 6.226562 -4.355469 6.179688 -4.234375 6.179688 -4.117188 C 6.179688 -4.007812 6.226562 -3.898438 6.253906 -3.78125 C 6.277344 -3.671875 6.265625 -3.527344 6.179688 -3.457031 C 6.097656 -3.382812 5.976562 -3.382812 5.867188 -3.394531 C 4.273438 -3.492188 2.6875 -3.492188 1.09375 -3.394531 C 0.9375 -3.382812 0.5625 -3.359375 0.503906 -3.5625 C 0.492188 -3.636719 0.5625 -3.792969 0.574219 -3.875 C 0.589844 -4.019531 0.574219 -4.175781 0.527344 -4.320312 C 0.503906 -4.414062 0.46875 -4.511719 0.492188 -4.609375 C 0.515625 -4.667969 0.550781 -4.714844 0.601562 -4.738281 Z M 0.601562 -4.738281 "/></g></g></g><g fill="#ed2323" fill-opacity="1"><g transform="translate(191.448098, 226.641621)"><g><path d="M 0.613281 -3.625 C 0.574219 -3.601562 0.550781 -3.5625 0.539062 -3.515625 C 0.527344 -3.46875 0.539062 -3.421875 0.539062 -3.371094 C 0.671875 -2.746094 1.09375 -1.96875 1.488281 -1.488281 C 1.621094 -1.332031 1.738281 -1.175781 1.882812 -1.042969 C 2.027344 -0.910156 2.195312 -0.804688 2.363281 -0.683594 C 2.519531 -0.5625 2.675781 -0.46875 2.855469 -0.359375 C 5.003906 0.863281 8.316406 0.613281 9.996094 -1.332031 C 10.441406 -1.847656 10.726562 -2.472656 10.859375 -3.132812 C 10.992188 -3.839844 10.933594 -4.558594 10.933594 -5.269531 C 10.933594 -5.976562 10.90625 -6.695312 10.945312 -7.402344 C 10.957031 -7.644531 11.171875 -8.4375 10.800781 -8.519531 C 10.703125 -8.53125 10.597656 -8.507812 10.5 -8.496094 C 9.972656 -8.398438 9.515625 -8.507812 9 -8.519531 C 8.542969 -8.53125 8.675781 -8.207031 8.675781 -7.859375 C 8.675781 -7.570312 8.710938 -7.570312 8.710938 -7.273438 C 8.710938 -5.363281 8.699219 -4.105469 8.6875 -3.757812 C 8.675781 -3.226562 8.53125 -2.722656 8.195312 -2.304688 C 7.535156 -1.488281 6.40625 -1.175781 5.398438 -1.261719 C 4.738281 -1.320312 4.078125 -1.535156 3.5625 -1.96875 C 3.070312 -2.398438 2.914062 -2.867188 2.710938 -3.46875 C 2.605469 -3.78125 2.257812 -3.648438 2.003906 -3.648438 C 1.765625 -3.648438 0.886719 -3.839844 0.613281 -3.625 Z M 0.613281 -3.625 "/></g></g></g><g fill="#ed2323" fill-opacity="1"><g transform="translate(204.108123, 226.641621)"><g><path d="M 0.347656 -0.0117188 C 0.394531 0.0351562 0.457031 0.0351562 0.515625 0.046875 C 1.117188 0.0703125 1.777344 0.214844 2.351562 0.0234375 C 3.058594 -0.191406 2.914062 -1.332031 3.742188 -1.332031 C 5.050781 -1.332031 6.359375 -1.308594 7.667969 -1.308594 C 8.316406 -1.308594 8.976562 -1.308594 9.625 -1.332031 C 10.140625 -1.34375 10.789062 -1.488281 11.292969 -1.378906 C 11.820312 -1.261719 11.832031 -0.480469 12.203125 -0.167969 C 12.46875 0.0703125 12.875 0.0703125 13.234375 0.0703125 C 13.597656 0.0585938 13.96875 0.046875 14.328125 0.046875 C 14.375 0.046875 14.425781 0.046875 14.460938 0.0234375 C 14.554688 -0.046875 14.484375 -0.203125 14.410156 -0.300781 C 12.648438 -2.675781 10.992188 -5.136719 9.46875 -7.679688 C 9.277344 -8.015625 9.035156 -8.375 8.664062 -8.484375 C 8.484375 -8.542969 8.28125 -8.519531 8.089844 -8.507812 C 7.414062 -8.449219 6.070312 -8.617188 5.664062 -8.003906 C 4.128906 -5.6875 2.578125 -3.371094 1.042969 -1.066406 C 0.925781 -0.898438 0.15625 -0.238281 0.347656 -0.0117188 Z M 4.703125 -3.109375 C 4.679688 -3.15625 4.667969 -3.191406 4.667969 -3.238281 C 4.679688 -3.335938 4.738281 -3.40625 4.800781 -3.492188 C 5.257812 -4.066406 5.699219 -4.667969 6.121094 -5.292969 C 6.335938 -5.617188 6.539062 -5.941406 6.742188 -6.265625 C 6.851562 -6.433594 7.152344 -7.175781 7.320312 -7.234375 C 7.703125 -7.378906 8.386719 -5.832031 8.578125 -5.519531 C 9.058594 -4.800781 9.5625 -4.09375 10.09375 -3.40625 C 10.152344 -3.335938 10.210938 -3.238281 10.199219 -3.15625 C 10.117188 -2.746094 8.878906 -3.070312 8.605469 -3.085938 C 7.511719 -3.179688 6.382812 -3.097656 5.292969 -2.953125 C 5.160156 -2.941406 5.027344 -2.914062 4.90625 -2.964844 C 4.824219 -2.988281 4.738281 -3.035156 4.703125 -3.109375 Z M 4.703125 -3.109375 "/></g></g></g><g fill="#ed2323" fill-opacity="1"><g transform="translate(219.468154, 226.641621)"><g><path d="M 0.683594 -6.730469 C 0.804688 -6.625 0.996094 -6.613281 1.164062 -6.613281 C 2.472656 -6.636719 3.769531 -6.660156 5.0625 -6.671875 C 5.148438 -6.671875 5.21875 -6.671875 5.292969 -6.648438 C 5.472656 -6.550781 5.496094 -6.3125 5.496094 -6.121094 C 5.449219 -4.273438 5.410156 -2.4375 5.375 -0.589844 C 5.375 -0.46875 5.375 -0.335938 5.425781 -0.226562 C 5.542969 -0.0351562 5.808594 0.0117188 6.035156 0.0117188 C 6.515625 0.0351562 6.996094 0.0234375 7.476562 -0.0351562 C 7.535156 -0.0351562 7.597656 -0.046875 7.632812 -0.0859375 C 7.679688 -0.132812 7.679688 -0.203125 7.679688 -0.265625 C 7.65625 -2.207031 7.632812 -4.152344 7.621094 -6.097656 C 7.621094 -6.238281 7.621094 -6.394531 7.703125 -6.503906 C 7.824219 -6.671875 8.0625 -6.683594 8.269531 -6.683594 C 9.707031 -6.660156 11.136719 -6.648438 12.574219 -6.625 C 12.648438 -6.625 12.742188 -6.625 12.804688 -6.683594 C 12.875 -6.742188 12.875 -6.851562 12.875 -6.949219 L 12.875 -8.195312 C 12.875 -8.257812 12.875 -8.304688 12.839844 -8.339844 C 12.792969 -8.386719 12.730469 -8.386719 12.683594 -8.386719 C 8.746094 -8.398438 4.824219 -8.410156 0.898438 -8.410156 C 0.816406 -8.410156 0.730469 -8.410156 0.671875 -8.351562 C 0.636719 -8.304688 0.625 -8.230469 0.625 -8.171875 C 0.613281 -7.8125 0.601562 -7.453125 0.574219 -7.09375 C 0.574219 -7.007812 0.574219 -6.910156 0.613281 -6.828125 C 0.636719 -6.792969 0.648438 -6.757812 0.683594 -6.730469 Z M 0.683594 -6.730469 "/></g></g></g><g fill="#ed2323" fill-opacity="1"><g transform="translate(233.460175, 226.641621)"><g><path d="M 0.394531 -4.1875 C 0.359375 -4.789062 0.503906 -5.410156 0.910156 -6.023438 C 1.921875 -7.511719 3.816406 -8.160156 5.519531 -8.496094 C 7.378906 -8.867188 9.324219 -8.832031 11.148438 -8.425781 C 12.71875 -8.074219 14.28125 -7.402344 15.289062 -6.179688 C 16.285156 -4.992188 16.34375 -3.40625 15.382812 -2.195312 C 14.878906 -1.546875 14.160156 -1.078125 13.429688 -0.707031 C 11.890625 0.0351562 10.175781 0.335938 8.449219 0.394531 C 7.019531 0.445312 5.578125 0.335938 4.222656 -0.109375 C 2.472656 -0.683594 0.527344 -2.339844 0.394531 -4.1875 Z M 2.640625 -4.175781 C 2.6875 -3.121094 3.660156 -2.160156 4.714844 -1.738281 C 6.660156 -0.960938 9.035156 -0.757812 11.039062 -1.453125 C 12.707031 -2.039062 14.832031 -4.007812 13.09375 -5.710938 C 12.695312 -6.097656 12.191406 -6.359375 11.6875 -6.574219 C 9.503906 -7.464844 6.984375 -7.414062 4.789062 -6.601562 C 4.164062 -6.371094 3.550781 -6.058594 3.144531 -5.554688 C 2.761719 -5.101562 2.628906 -4.632812 2.640625 -4.175781 Z M 2.640625 -4.175781 "/></g></g></g><path stroke-linecap="butt" transform="matrix(0.758465, 0, 0, 0.75, 275.731743, 222.891636)" fill="none" stroke-linejoin="miter" d="M -0.00168029 0.998652 L 13.85752 0.998652 " stroke="#ffffff" stroke-width="2" stroke-opacity="1" stroke-miterlimit="4"/><path stroke-linecap="butt" transform="matrix(0.758465, 0, 0, 0.75, 88.876508, 222.891636)" fill="none" stroke-linejoin="miter" d="M -0.00198857 0.998652 L 13.857212 0.998652 " stroke="#ffffff" stroke-width="2" stroke-opacity="1" stroke-miterlimit="4"/></svg>