<svg width="19" height="18" viewBox="0 0 19 18" fill="none" xmlns="http://www.w3.org/2000/svg">
<path fill-rule="evenodd" clip-rule="evenodd" d="M9.33429 0C14.4896 0 18.6686 4.13094 18.6686 9.22764C18.6686 13.3037 15.9971 16.7616 12.2905 17.9829C11.8172 18.0738 11.6492 17.7856 11.6492 17.5399C11.6492 17.2357 11.6604 16.2421 11.6604 15.0073C11.6604 14.1469 11.3617 13.5854 11.0266 13.2992C13.1053 13.0706 15.2896 12.2902 15.2896 8.746C15.2896 7.738 14.9274 6.91544 14.3281 6.26924C14.4252 6.03614 14.7454 5.09756 14.2367 3.82676C14.2367 3.82676 13.4544 3.5795 11.6725 4.7729C10.9267 4.5686 10.1277 4.46581 9.33429 4.46221C8.54087 4.46581 7.74279 4.5686 6.99792 4.7729C5.21413 3.5795 4.43005 3.82676 4.43005 3.82676C3.9232 5.09756 4.24337 6.03614 4.33951 6.26924C3.74305 6.91544 3.37808 7.738 3.37808 8.746C3.37808 12.2812 5.55764 13.0735 7.63078 13.3066C7.36382 13.537 7.12206 13.9435 7.03805 14.5402C6.506 14.776 5.15439 15.1841 4.32177 13.7738C4.32177 13.7738 3.82799 12.8872 2.89083 12.8224C2.89083 12.8224 1.98073 12.8107 2.82735 13.3831C2.82735 13.3831 3.43875 13.6666 3.86346 14.7331C3.86346 14.7331 4.41139 16.3801 7.00818 15.8221C7.01285 16.5934 7.02125 17.3203 7.02125 17.5399C7.02125 17.7838 6.8495 18.0692 6.38372 17.9837C2.67427 16.7642 0 13.3046 0 9.22764C0 4.13094 4.17989 0 9.33429 0Z" fill="white"/>
</svg>
