<svg width="12" height="12" viewBox="0 0 12 12" fill="none" xmlns="http://www.w3.org/2000/svg">
<path d="M11.04 9.97209e-05H1.0275C0.898447 -0.00594528 0.769463 0.0135174 0.64794 0.0573849C0.526418 0.101252 0.414743 0.168655 0.319298 0.25573C0.22386 0.342812 0.146528 0.447865 0.0917401 0.564865C0.0369526 0.681872 0.005775 0.808532 0 0.9376V10.9726C0.00756 11.2427 0.118245 11.4997 0.309322 11.6907C0.5004 11.8818 0.75738 11.9925 1.0275 12.0001H11.04C11.3026 11.9884 11.5501 11.8743 11.7296 11.6822C11.9091 11.4901 12.0062 11.2354 12 10.9726V0.9376C12.0022 0.811975 11.9786 0.687242 11.9309 0.571037C11.8831 0.45484 11.812 0.349622 11.7221 0.261835C11.6323 0.174055 11.5254 0.105565 11.4081 0.0605574C11.2908 0.0155499 11.1655 -0.00502278 11.04 9.97209e-05ZM3.75 10.0051H2.0025V4.65762H3.75V10.0051ZM2.9175 3.8476C2.79556 3.85185 2.67405 3.83084 2.56062 3.78588C2.44718 3.74093 2.34427 3.673 2.25835 3.58637C2.17242 3.49973 2.10533 3.39627 2.06131 3.28247C2.01728 3.16868 1.99726 3.047 2.0025 2.9251C1.99711 2.80187 2.01753 2.67889 2.06246 2.56403C2.10739 2.44916 2.17584 2.34495 2.2634 2.25809C2.35097 2.17123 2.45572 2.10363 2.57095 2.05964C2.68618 2.01563 2.80933 1.99621 2.9325 2.0026C3.05444 1.99835 3.17595 2.01936 3.28938 2.06432C3.40282 2.10927 3.50573 2.1772 3.59165 2.26383C3.67758 2.35046 3.74467 2.45393 3.78869 2.56772C3.83273 2.68152 3.85274 2.80319 3.8475 2.9251C3.85289 3.04832 3.83247 3.17131 3.78754 3.28617C3.7426 3.40104 3.67416 3.50525 3.5866 3.59211C3.49903 3.67897 3.39428 3.74657 3.27905 3.79056C3.16382 3.83456 3.04067 3.85399 2.9175 3.8476ZM10.005 10.0051H8.25V7.08012C8.25 6.38262 8.0025 5.90262 7.38 5.90262C7.18665 5.90427 6.99847 5.9657 6.84142 6.0785C6.6843 6.1913 6.56595 6.34992 6.5025 6.53262C6.45375 6.66957 6.43335 6.815 6.4425 6.96012V10.0051H4.7175V4.65762H6.4425V5.40762C6.59588 5.12585 6.8241 4.892 7.10205 4.7318C7.38 4.57167 7.6968 4.49148 8.0175 4.5001C9.15 4.5001 10.005 5.25012 10.005 6.84762V10.0051Z" fill="white"/>
</svg>
