<svg width="231" height="187" viewBox="0 0 231 187" fill="none" xmlns="http://www.w3.org/2000/svg">
<g clip-path="url(#clip0_282_3)">
<path d="M216.563 128.561H14.4378C6.47849 128.561 0 123.322 0 116.873V50.6435C0 44.2003 6.47849 38.9562 14.4378 38.9562H216.563C224.528 38.9562 231 44.2003 231 50.6435V116.873C231 123.322 224.528 128.561 216.563 128.561Z" fill="black"/>
<path d="M0.000488281 116.873C0.000488281 123.322 6.47898 128.561 14.4382 128.561H36.0556V112.981H0.000488281V116.873Z" fill="#E6E9ED"/>
<path d="M231 54.5414H24.0641C21.4062 54.5414 19.2491 56.2847 19.2491 58.4363V89.6038C19.2491 91.7554 21.4062 93.4958 24.0641 93.4958H231V54.5414Z" fill="#4FC2E9"/>
<path d="M43.3128 109.078C30.0454 109.078 19.2491 117.821 19.2491 128.561C19.2491 139.301 30.0454 148.044 43.3128 148.044C56.5802 148.044 67.3765 139.301 67.3765 128.561C67.3765 117.821 56.5802 109.078 43.3128 109.078Z" fill="#434A54"/>
<path d="M178.058 109.078C164.791 109.078 154.004 117.821 154.004 128.561C154.004 139.301 164.79 148.044 178.058 148.044C191.332 148.044 202.125 139.301 202.125 128.561C202.125 117.821 191.332 109.078 178.058 109.078Z" fill="#434A54"/>
<path d="M46.7179 125.81C48.5966 127.328 48.5966 129.794 46.7179 131.312C44.8355 132.841 41.7901 132.841 39.9118 131.312C38.0295 129.794 38.0295 127.328 39.9118 125.81C41.7901 124.281 44.8355 124.281 46.7179 125.81Z" fill="#F5F7FA"/>
<path d="M139.566 93.5148H81.8151V128.563H139.566V93.5148Z" fill="#E6E9ED"/>
<path d="M181.47 125.81C183.345 127.328 183.345 129.794 181.47 131.312C179.588 132.841 176.535 132.841 174.66 131.312C172.785 129.794 172.785 127.328 174.66 125.81C176.535 124.281 179.588 124.281 181.47 125.81Z" fill="#F5F7FA"/>
<path d="M113.093 54.5399H108.281V128.56H113.093V54.5399Z" fill="#E6E9ED"/>
<path d="M42.9992 93.5129L42.8508 54.5413L52.4771 54.5183L52.6251 93.4844L42.9992 93.5129Z" fill="#3BAFDA"/>
<path d="M173.321 93.5129L173.18 54.5413L182.795 54.5183L182.95 93.4844L173.321 93.5129Z" fill="#3BAFDA"/>
<path d="M81.8138 54.5414H139.568V128.561H144.375V54.5414V50.6436H139.568H81.8138H76.9993V54.5414V128.561H81.8138V54.5414Z" fill="#E6E9ED"/>
<path d="M231 101.294H216.563C213.905 101.294 211.755 103.029 211.755 105.186C211.755 107.343 213.905 109.078 216.563 109.078H231V101.294Z" fill="#E6E9ED"/>
</g>
<defs>
<clipPath id="clip0_282_3">
<rect width="231" height="187" fill="white"/>
</clipPath>
</defs>
</svg>
