<svg width="217" height="212" viewBox="0 0 217 212" fill="none" xmlns="http://www.w3.org/2000/svg">
<g clip-path="url(#clip0_278_2)">
<path d="M213.576 92.8794L178.623 84.3462L152.379 58.7132C151.532 57.885 150.386 57.4192 149.187 57.4192H90.4179C88.3979 57.4192 86.6233 58.726 86.0702 60.6216C85.9443 61.0485 83.2588 70.3647 81.7822 83.9193H4.51979C2.02297 83.9193 0 85.8923 0 88.3316V132.5C0 134.939 2.02297 136.919 4.51979 136.919H212.484C214.974 136.919 217 134.939 217 132.5V97.1691C217 95.1373 215.589 93.3709 213.576 92.8794Z" fill="black"/>
<path d="M149.187 57.4187H90.4179C88.3979 57.4187 86.6233 58.7255 86.0702 60.6211C85.9443 61.048 83.2588 70.3642 81.7822 83.9188H178.186L152.379 58.7127C151.532 57.8845 150.386 57.4187 149.187 57.4187Z" fill="#5D9CEC"/>
<path d="M213.576 92.8794L178.623 84.3462L152.379 58.7132C151.532 57.885 150.386 57.4192 149.187 57.4192H90.4179C88.3979 57.4192 86.6233 58.726 86.0702 60.6216C85.9443 61.0485 83.2588 70.3647 81.7822 83.9193H4.51979C2.02297 83.9193 0 85.8923 0 88.3316V132.5C0 134.939 2.02297 136.919 4.51979 136.919H212.484C214.974 136.919 217 134.939 217 132.5V97.1691C217 95.1373 215.589 93.3709 213.576 92.8794ZM207.954 128.081H9.04255V92.7498H85.8947C88.2491 92.7498 90.2093 90.9833 90.4013 88.6935C91.2456 78.6718 92.9342 70.5071 93.9442 66.2501H147.313L173.121 91.4562C173.697 92.0256 174.418 92.4268 175.214 92.6206L207.954 100.617V128.081Z" fill="black"/>
<path d="M213.576 92.8793L198.921 89.3018V97.1691C198.921 99.6084 200.941 101.581 203.438 101.581H217V97.1691C217 95.1373 215.589 93.3708 213.576 92.8793Z" fill="#E6E9ED"/>
<path d="M135.625 106H126.579C124.089 106 122.063 104.02 122.063 101.582C122.063 99.1427 124.089 97.1692 126.579 97.1692H135.625C138.122 97.1692 140.141 99.1427 140.141 101.582C140.141 104.02 138.122 106 135.625 106Z" fill="#E6E9ED"/>
<path d="M0 101.581H4.51979C6.2181 101.581 7.77104 100.656 8.54624 99.181L16.5428 83.9192H4.51979C2.02297 83.9192 0 85.8922 0 88.3315V101.581Z" fill="#ED5564"/>
<path d="M117.546 66.2493H108.5V83.9181H117.546V66.2493Z" fill="#4A89DC"/>
<path d="M49.73 110.419C37.2637 110.419 27.1247 120.324 27.1247 132.5C27.1247 144.676 37.2637 154.581 49.73 154.581C62.1933 154.581 72.3319 144.676 72.3319 132.5C72.3324 120.324 62.1933 110.419 49.73 110.419Z" fill="#434A54"/>
<path d="M176.313 110.419C163.85 110.419 153.704 120.324 153.704 132.5C153.704 144.676 163.85 154.581 176.313 154.581C188.775 154.581 198.921 144.676 198.921 132.5C198.921 120.324 188.775 110.419 176.313 110.419Z" fill="#434A54"/>
<path d="M52.9253 129.375C54.6901 131.102 54.6901 133.897 52.9253 135.625C51.1604 137.345 48.2961 137.345 46.5317 135.625C44.7669 133.897 44.7669 131.102 46.5317 129.375C48.2966 127.654 51.1604 127.654 52.9253 129.375Z" fill="#F5F7FA"/>
<path d="M179.511 129.375C181.279 131.102 181.279 133.897 179.511 135.625C177.743 137.345 174.882 137.345 173.121 135.625C171.346 133.897 171.346 131.102 173.121 129.375C174.882 127.654 177.743 127.654 179.511 129.375Z" fill="#F5F7FA"/>
</g>
<defs>
<clipPath id="clip0_278_2">
<rect width="217" height="212" fill="white"/>
</clipPath>
</defs>
</svg>
