<svg width="50" height="48" viewBox="0 0 50 48" fill="none" xmlns="http://www.w3.org/2000/svg">
<path d="M24.75 0C18.2522 0 12.0205 2.52856 7.42588 7.02944C2.83124 11.5303 0.25 17.6348 0.25 24C0.25 30.3652 2.83124 36.4697 7.42588 40.9706C12.0205 45.4714 18.2522 48 24.75 48C31.2478 48 37.4795 45.4714 42.0741 40.9706C46.6688 36.4697 49.25 30.3652 49.25 24C49.25 17.6348 46.6688 11.5303 42.0741 7.02944C37.4795 2.52856 31.2478 0 24.75 0ZM6.4975 12.978C7.49281 16.965 14.2517 20.598 17.8808 22.548C19.3508 23.337 20.3094 23.85 20.1562 24C19.9112 24.24 19.6601 24.474 19.4151 24.702C18.1411 25.89 17.0049 26.949 17.0938 28.5C17.2009 30.402 18.9864 30.972 20.8116 31.551C22.5787 32.115 24.3886 32.691 24.75 34.5C25.0011 35.751 24.5203 37.464 24.0763 39.06C23.4178 41.406 22.8329 43.5 24.75 43.5C29.3438 42 36.3814 33.942 37 28.5C37.4226 24.771 30.875 22.5 26.2812 21C24.8174 20.52 23.9691 21.243 23.2494 21.852C22.7226 22.302 22.2633 22.689 21.6875 22.5C20.3247 22.056 14.0312 16.5 17.0938 15C19.4825 13.83 20.0093 14.487 20.8514 15.546C21.0903 15.843 21.3506 16.17 21.6875 16.5C23.5526 17.412 23.7149 16.104 23.9017 14.601C24.0211 13.635 24.1497 12.588 24.75 12C26.0791 10.698 28.6241 9.627 30.9608 8.64C33.1413 7.722 35.1411 6.879 35.7964 6C39.4384 8.14539 42.3473 11.3028 44.1536 15.0711C45.9599 18.8394 46.5821 23.0486 45.9411 27.164C45.3001 31.2795 43.4249 35.1154 40.5537 38.1846C37.6825 41.2539 33.9448 43.4179 29.8154 44.4018C25.686 45.3857 21.3513 45.1451 17.3618 43.7106C13.3723 42.276 9.90802 39.7123 7.40909 36.345C4.91016 32.9777 3.4893 28.9588 3.32699 24.7988C3.16468 20.6387 4.26824 16.5223 6.4975 12.978Z" fill="#3C8FDB"/>
</svg>
