<svg width="48" height="52" viewBox="0 0 48 52" fill="none" xmlns="http://www.w3.org/2000/svg">
<path d="M35.548 33.6468C38.8548 29.8737 40.6151 24.9911 40.477 19.9757C40.3388 14.9603 38.3123 10.1821 34.8029 6.59701C31.2935 3.0119 26.56 0.884285 21.5493 0.639832C16.5387 0.395379 11.6205 2.05211 7.77873 5.27858C3.93692 8.50504 1.45481 13.0633 0.828993 18.0414C0.203175 23.0195 1.47979 28.0503 4.40345 32.1274C7.3271 36.2044 11.6822 39.027 16.5974 40.0305C21.5126 41.034 26.6254 40.1443 30.913 37.5395L30.9099 37.5392C30.9908 37.6693 31.0783 37.7937 31.1782 37.9162L41.8958 50.6908C42.4178 51.3134 43.1656 51.7031 43.9749 51.7741C44.7841 51.8452 45.5884 51.5919 46.2109 51.0699C46.8334 50.5478 47.2231 49.7999 47.2942 48.9905C47.3653 48.1811 47.112 47.3767 46.59 46.7541L35.8725 33.9796C35.773 33.8596 35.6644 33.7504 35.548 33.6468ZM37.3613 21.987C37.1685 24.1908 36.5435 26.335 35.5222 28.2972C34.5008 30.2595 33.1031 32.0013 31.4086 33.4233C29.7142 34.8453 27.7564 35.9196 25.6469 36.5848C23.5374 37.25 21.3175 37.4932 19.1141 37.3004C16.9106 37.1076 14.7667 36.4827 12.8048 35.4613C10.8428 34.4398 9.10126 33.0419 7.67952 31.3473C6.25778 29.6526 5.18369 27.6946 4.5186 25.5848C3.8535 23.475 3.61041 21.2548 3.80322 19.0511C4.1926 14.6004 6.33383 10.4866 9.75584 7.6148C13.1779 4.74298 17.6003 3.34833 22.0504 3.73766C26.5005 4.12699 30.6136 6.26841 33.485 9.69083C36.3563 13.1132 37.7507 17.5363 37.3613 21.987Z" fill="white"/>
</svg>
