<svg width="39" height="38" viewBox="0 0 39 38" fill="none" xmlns="http://www.w3.org/2000/svg">
<path d="M26.8125 14.25C26.8125 16.1397 26.0421 17.9519 24.6707 19.2881C23.2994 20.6243 21.4394 21.375 19.5 21.375C17.5606 21.375 15.7006 20.6243 14.3293 19.2881C12.9579 17.9519 12.1875 16.1397 12.1875 14.25C12.1875 12.3603 12.9579 10.5481 14.3293 9.21186C15.7006 7.87567 17.5606 7.125 19.5 7.125C21.4394 7.125 23.2994 7.87567 24.6707 9.21186C26.0421 10.5481 26.8125 12.3603 26.8125 14.25Z" fill="#3C8FDB"/>
<path fill-rule="evenodd" clip-rule="evenodd" d="M0 19C0 13.9609 2.05446 9.12816 5.71142 5.56497C9.36838 2.00178 14.3283 0 19.5 0C24.6717 0 29.6316 2.00178 33.2886 5.56497C36.9455 9.12816 39 13.9609 39 19C39 24.0391 36.9455 28.8718 33.2886 32.435C29.6316 35.9982 24.6717 38 19.5 38C14.3283 38 9.36838 35.9982 5.71142 32.435C2.05446 28.8718 0 24.0391 0 19ZM19.5 2.375C16.2868 2.37517 13.139 3.25936 10.4189 4.92582C7.69869 6.59227 5.51675 8.97325 4.12416 11.7947C2.73157 14.6162 2.18494 17.7634 2.54718 20.8742C2.90943 23.9851 4.16582 26.933 6.17175 29.3787C7.90238 26.6618 11.7122 23.75 19.5 23.75C27.2878 23.75 31.0952 26.6594 32.8283 29.3787C34.8342 26.933 36.0906 23.9851 36.4528 20.8742C36.8151 17.7634 36.2684 14.6162 34.8758 11.7947C33.4832 8.97325 31.3013 6.59227 28.5811 4.92582C25.861 3.25936 22.7132 2.37517 19.5 2.375Z" fill="#3C8FDB"/>
</svg>
